<svg width="185" height="89" viewBox="0 0 185 89" fill="none" xmlns="http://www.w3.org/2000/svg">
<path d="M43.1875 30.125C45.2292 30.125 46.8333 30.4167 48 31C49.1667 31.5417 50.0417 32.2917 50.625 33.25C51.25 34.2083 51.6458 35.3333 51.8125 36.625C51.9792 37.875 52.0625 39.2083 52.0625 40.625V77.625C52.0625 79.0833 51.9792 80.4375 51.8125 81.6875C51.6458 82.9375 51.2708 84.0417 50.6875 85C50.1042 85.9167 49.2292 86.6458 48.0625 87.1875C46.8958 87.7292 45.3125 88 43.3125 88C41.3542 88 39.7917 87.75 38.625 87.25C37.4583 86.7083 36.5625 86 35.9375 85.125C35.3125 84.25 34.8958 83.2083 34.6875 82C34.5208 80.7917 34.4375 79.5 34.4375 78.125V67H13.0625C10.4792 67 8.35417 66.7917 6.6875 66.375C5.02083 65.9583 3.6875 65.4167 2.6875 64.75C1.72917 64.0417 1.04167 63.2292 0.625 62.3125C0.25 61.3958 0.0625 60.4583 0.0625 59.5C0.0625 59 0.104167 58.5 0.1875 58C0.3125 57.5 0.4375 57 0.5625 56.5L13.1875 12.625C13.6042 11.0833 14 9.58333 14.375 8.125C14.7917 6.66667 15.3333 5.375 16 4.25C16.7083 3.125 17.6667 2.22917 18.875 1.5625C20.0833 0.854167 21.7292 0.5 23.8125 0.5C25.3125 0.5 26.5417 0.708333 27.5 1.125C28.5 1.54167 29.2917 2.10417 29.875 2.8125C30.4583 3.47917 30.8542 4.27083 31.0625 5.1875C31.3125 6.0625 31.4375 7 31.4375 8C31.4375 9 31.3542 10.0208 31.1875 11.0625C31.0208 12.0625 30.8125 13 30.5625 13.875C30.3542 14.75 30.125 15.5417 29.875 16.25C29.6667 16.9167 29.5208 17.4167 29.4375 17.75C29.4375 17.75 29.3125 18.2083 29.0625 19.125C28.8125 20 28.4792 21.1667 28.0625 22.625C27.6458 24.0417 27.1875 25.6875 26.6875 27.5625C26.1875 29.3958 25.6667 31.2708 25.125 33.1875C23.8333 37.6875 22.3958 42.7917 20.8125 48.5L21.3125 49H34.4375V40.5C34.4375 39.0833 34.5208 37.75 34.6875 36.5C34.8542 35.25 35.2292 34.1667 35.8125 33.25C36.3958 32.2917 37.2708 31.5417 38.4375 31C39.6042 30.4167 41.1875 30.125 43.1875 30.125ZM64.4375 25.5C64.4375 21.4583 65 18.0208 66.125 15.1875C67.2917 12.3125 68.7708 9.9375 70.5625 8.0625C72.3542 6.1875 74.3333 4.70833 76.5 3.625C78.6667 2.54167 80.7708 1.72917 82.8125 1.1875C84.8958 0.645833 86.75 0.3125 88.375 0.1875C90.0417 0.0625 91.2708 0 92.0625 0H94.1875C94.9792 0 96.2083 0.0625 97.875 0.1875C99.5417 0.3125 101.375 0.645833 103.375 1.1875C105.417 1.72917 107.5 2.54167 109.625 3.625C111.792 4.70833 113.75 6.1875 115.5 8.0625C117.292 9.9375 118.75 12.3125 119.875 15.1875C121 18.0208 121.562 21.4583 121.562 25.5V62.375C121.562 66.5417 121 70.0833 119.875 73C118.75 75.9167 117.292 78.3542 115.5 80.3125C113.75 82.2292 111.792 83.7292 109.625 84.8125C107.5 85.8958 105.417 86.7292 103.375 87.3125C101.375 87.8542 99.5417 88.1875 97.875 88.3125C96.2083 88.4375 94.9792 88.5 94.1875 88.5H92.0625C91.2708 88.5 90.0417 88.4375 88.375 88.3125C86.75 88.1875 84.8958 87.8542 82.8125 87.3125C80.7708 86.7292 78.6667 85.8958 76.5 84.8125C74.3333 83.7292 72.3542 82.2292 70.5625 80.3125C68.7708 78.3542 67.2917 75.9167 66.125 73C65 70.0833 64.4375 66.5417 64.4375 62.375V25.5ZM84.9375 65.625C85.0625 67.0833 85.4583 68.375 86.125 69.5C86.6667 70.4583 87.4792 71.3542 88.5625 72.1875C89.6875 72.9792 91.2292 73.375 93.1875 73.375C95.1042 73.375 96.6042 72.9792 97.6875 72.1875C98.7708 71.3542 99.5833 70.4583 100.125 69.5C100.75 68.375 101.146 67.0833 101.312 65.625V23.375C101.146 21.9167 100.75 20.625 100.125 19.5C99.5833 18.5417 98.7708 17.6667 97.6875 16.875C96.6042 16.0417 95.1042 15.625 93.1875 15.625C91.2292 15.625 89.6875 16.0417 88.5625 16.875C87.4792 17.6667 86.6667 18.5417 86.125 19.5C85.4583 20.625 85.0625 21.9167 84.9375 23.375V65.625ZM175.688 30.125C177.729 30.125 179.333 30.4167 180.5 31C181.667 31.5417 182.542 32.2917 183.125 33.25C183.75 34.2083 184.146 35.3333 184.312 36.625C184.479 37.875 184.562 39.2083 184.562 40.625V77.625C184.562 79.0833 184.479 80.4375 184.312 81.6875C184.146 82.9375 183.771 84.0417 183.188 85C182.604 85.9167 181.729 86.6458 180.562 87.1875C179.396 87.7292 177.812 88 175.812 88C173.854 88 172.292 87.75 171.125 87.25C169.958 86.7083 169.062 86 168.438 85.125C167.812 84.25 167.396 83.2083 167.188 82C167.021 80.7917 166.938 79.5 166.938 78.125V67H145.562C142.979 67 140.854 66.7917 139.188 66.375C137.521 65.9583 136.188 65.4167 135.188 64.75C134.229 64.0417 133.542 63.2292 133.125 62.3125C132.75 61.3958 132.562 60.4583 132.562 59.5C132.562 59 132.604 58.5 132.688 58C132.812 57.5 132.938 57 133.062 56.5L145.688 12.625C146.104 11.0833 146.5 9.58333 146.875 8.125C147.292 6.66667 147.833 5.375 148.5 4.25C149.208 3.125 150.167 2.22917 151.375 1.5625C152.583 0.854167 154.229 0.5 156.312 0.5C157.812 0.5 159.042 0.708333 160 1.125C161 1.54167 161.792 2.10417 162.375 2.8125C162.958 3.47917 163.354 4.27083 163.562 5.1875C163.812 6.0625 163.938 7 163.938 8C163.938 9 163.854 10.0208 163.688 11.0625C163.521 12.0625 163.312 13 163.062 13.875C162.854 14.75 162.625 15.5417 162.375 16.25C162.167 16.9167 162.021 17.4167 161.938 17.75C161.938 17.75 161.812 18.2083 161.562 19.125C161.312 20 160.979 21.1667 160.562 22.625C160.146 24.0417 159.688 25.6875 159.188 27.5625C158.688 29.3958 158.167 31.2708 157.625 33.1875C156.333 37.6875 154.896 42.7917 153.312 48.5L153.812 49H166.938V40.5C166.938 39.0833 167.021 37.75 167.188 36.5C167.354 35.25 167.729 34.1667 168.312 33.25C168.896 32.2917 169.771 31.5417 170.938 31C172.104 30.4167 173.688 30.125 175.688 30.125Z" fill="#D7D5E4"/>
</svg>
