<svg width="247" height="107" viewBox="0 0 247 107" fill="none" xmlns="http://www.w3.org/2000/svg">
<path d="M13.5859 15.8857V28.9839H14.5073C16.7957 28.9839 18.2832 28.3757 18.9697 27.1592C19.6442 25.9427 19.9814 24.4131 19.9814 22.5703C19.9814 21.4622 19.8369 20.3662 19.5479 19.2822C19.2467 18.1982 18.7168 17.3612 17.958 16.771C17.2113 16.1808 15.8743 15.8857 13.9473 15.8857H13.5859ZM13.5859 35H1.89697V28.9839H3.86621V15.8857H1.89697V9.86963H13.9292C16.6753 9.86963 18.9155 10.0382 20.6499 10.3755C22.3963 10.7127 24.0404 11.4053 25.582 12.4531C27.1117 13.513 28.3161 14.9463 29.1953 16.7529C29.6289 17.6201 29.9601 18.5475 30.189 19.5352C30.4178 20.5228 30.5322 21.5586 30.5322 22.6426C30.5322 24.8226 30.0685 26.8099 29.1411 28.6045C28.2257 30.387 27.0635 31.7541 25.6543 32.7056C24.2812 33.6571 22.7757 34.2773 21.1377 34.5664C19.5117 34.8555 16.9945 35 13.5859 35ZM45.1299 22.3716C45.1299 25.1659 45.4009 27.0508 45.9429 28.0264C46.4608 29.014 47.2738 29.5078 48.3818 29.5078C49.4779 29.5078 50.2969 29.0321 50.8389 28.0806C51.3809 27.117 51.6519 25.214 51.6519 22.3716C51.6519 19.6134 51.3869 17.7345 50.8569 16.7349C50.339 15.7472 49.514 15.2534 48.3818 15.2534C47.2979 15.2534 46.4849 15.7292 45.9429 16.6807C45.4009 17.6322 45.1299 19.5291 45.1299 22.3716ZM34.2178 22.3716C34.2178 20.2759 34.7297 18.2464 35.7534 16.2832C36.7651 14.332 38.3369 12.688 40.4688 11.3511C41.2275 10.8813 42.0044 10.508 42.7993 10.231C43.6063 9.95394 44.4795 9.74316 45.4189 9.59863C46.3584 9.44206 47.346 9.36377 48.3818 9.36377C52.8864 9.36377 56.3732 10.6826 58.8423 13.3203C60.0708 14.6211 60.9982 16.0303 61.6245 17.5479C62.2508 19.0654 62.564 20.6733 62.564 22.3716C62.564 25.8765 61.2873 28.9237 58.7339 31.5132C56.1805 34.1027 52.7298 35.3975 48.3818 35.3975C44.1784 35.3975 40.7699 34.181 38.1562 31.748C35.5306 29.3271 34.2178 26.2017 34.2178 22.3716ZM77.9204 24.5396V29.4897H80.1064C81.5036 29.4897 82.5093 29.3091 83.1235 28.9478C83.7257 28.5864 84.0269 27.9481 84.0269 27.0327C84.0269 26.1776 83.7559 25.5452 83.2139 25.1357C82.6719 24.7383 81.624 24.5396 80.0703 24.5396H77.9204ZM77.9204 15.3799V19.9688H80.0703C81.5277 19.9688 82.4852 19.758 82.9429 19.3364C83.3765 18.9149 83.5933 18.3608 83.5933 17.6743C83.5933 17.0841 83.3945 16.5542 82.9971 16.0845C82.5996 15.6147 81.5096 15.3799 79.7271 15.3799H77.9204ZM80.2329 35H66.0146V28.9839H68.2007V15.8857H66.0146V9.86963H81.3711C84.3822 9.86963 86.7127 10.0443 88.3628 10.3936C89.9888 10.7549 91.2655 11.4715 92.1929 12.5435C93.1203 13.6395 93.584 14.9162 93.584 16.3735C93.584 17.7948 93.1444 18.9269 92.2651 19.77C91.3618 20.6372 90.2658 21.2394 88.9771 21.5767C90.7476 22.1066 92.1086 22.9256 93.0601 24.0337C94.0236 25.1659 94.5054 26.4365 94.5054 27.8457C94.5054 29.5319 93.9634 30.9652 92.8794 32.1455C91.7954 33.3138 90.3079 34.0786 88.417 34.4399C86.5501 34.8133 83.8221 35 80.2329 35ZM121.244 35H97.3237V28.9839H99.582V15.8857H97.3237V9.86963H111.687V15.8857H109.302V28.9839H115.246V24.9551H121.244V35ZM147.494 35H123.52V28.9839H125.471V15.8857H123.484V9.86963H147.494V17.9092H140.9V15.8857H135.191V19.752H140.159V24.8647H135.191V28.9839H140.9V26.9604H147.494V35Z" fill="#7A73FF"/>
<path d="M35.5933 74.7417L46.3457 78.5244C45.4323 82.9525 43.3374 86.5763 40.061 89.396C36.745 92.2355 32.1779 93.6553 26.3599 93.6553C18.4172 93.6553 12.5396 91.5802 8.72705 87.4302C4.89469 83.3 2.97852 78.2563 2.97852 72.2993C2.97852 66.3026 4.85498 61.2093 8.60791 57.0195C12.3608 52.8298 17.2357 50.7349 23.2324 50.7349C28.0973 50.7349 32.0588 51.9362 35.1167 54.3389V51.5688H45.0649V66.6997H34.7295C34.1934 64.8133 33.2899 63.3241 32.019 62.2319C30.7482 61.1597 29.2987 60.6235 27.6704 60.6235C23.1828 60.6235 20.939 64.4857 20.939 72.21C20.939 79.9541 23.2622 83.8262 27.9087 83.8262C31.9793 83.8262 34.5409 80.798 35.5933 74.7417ZM73.4502 93H51.6475V83.0815H54.7749V61.4873H51.5879V51.5688H73.4502V61.4873H70.7993V67.8018H80.3901V61.4873H77.7095V51.5688H99.542V61.4873H96.4146V83.0815H99.542V93H77.7095V83.0815H80.3901V76.2905H70.7993V83.0815H73.4502V93ZM123.281 62.083L119.379 73.5503H126.795L123.281 62.083ZM119.379 93H102.967V83.0815H106.125L113.898 61.4873H110.562V51.5688H140.348V61.4873H137.012L144.935 83.0815H147.973V93H126.349V83.9155H129.982L128.404 78.7031H117.8L115.983 83.9155H119.379V93ZM190.923 93H151.398V83.0815H154.615V61.4873H151.338V51.5688H190.923V64.8232H180.051V61.4873H170.639V67.8613H178.83V76.2905H170.639V83.0815H180.051V79.7456H190.923V93ZM245.4 93H223.955V83.0815H225.95L216.866 71.2866L227.41 61.4873H224.044V51.5688H244.447V61.4873H241.23L232.771 69.3506L243.345 83.0815H245.4V93ZM219.636 93H197.178V83.0815H200.335V61.4873H197.088V51.5688H219.636V61.4873H216.359V83.0815H219.636V93Z" fill="#471BB2"/>
</svg>
