<svg width="153" height="54" viewBox="0 0 153 54" fill="none" xmlns="http://www.w3.org/2000/svg">
<path d="M15.3557 53.32C13.6704 53.32 12.1024 53.0533 10.6517 52.52C9.20108 51.9653 7.93175 51.176 6.84375 50.152C5.75575 49.128 4.91308 47.912 4.31575 46.504C3.71842 45.0747 3.41975 43.5067 3.41975 41.8C3.41975 40.1787 3.73975 38.6747 4.37975 37.288C5.01975 35.9013 5.89442 34.696 7.00375 33.672C8.11308 32.6267 9.39308 31.8267 10.8437 31.272C12.2944 30.696 13.8411 30.408 15.4837 30.408C16.7637 30.408 18.0011 30.5893 19.1957 30.952C20.4117 31.2933 21.4997 31.752 22.4597 32.328C23.4411 32.904 24.2304 33.5333 24.8277 34.216L22.6517 36.904C21.9477 36.264 21.2117 35.72 20.4437 35.272C19.6757 34.8027 18.8651 34.4507 18.0117 34.216C17.1584 33.96 16.2517 33.832 15.2917 33.832C14.2037 33.832 13.1584 34.024 12.1557 34.408C11.1531 34.792 10.2571 35.336 9.46775 36.04C8.69975 36.7227 8.08108 37.5547 7.61175 38.536C7.16375 39.5173 6.93975 40.6053 6.93975 41.8C6.93975 43.08 7.16375 44.2213 7.61175 45.224C8.08108 46.2267 8.72108 47.08 9.53175 47.784C10.3637 48.4667 11.3024 48.9893 12.3477 49.352C13.4144 49.7147 14.5451 49.896 15.7397 49.896C16.7851 49.896 17.7344 49.768 18.5877 49.512C19.4411 49.2347 20.2198 48.8827 20.9237 48.456C21.6277 48.008 22.2677 47.5493 22.8438 47.08L24.5397 49.928C23.9851 50.4613 23.2278 50.9947 22.2677 51.528C21.3291 52.04 20.2624 52.4667 19.0677 52.808C17.8944 53.1493 16.6571 53.32 15.3557 53.32ZM52.5287 53V30.6H55.9848V53H52.5287ZM35.4087 53V30.6H38.8647V53H35.4087ZM36.9127 43.56L36.9447 40.232H54.0648V43.56H36.9127ZM65.8285 53L75.7485 30.6H79.5565L89.4445 53H85.7005L79.2365 38.408C79.0872 38.1307 78.9165 37.7573 78.7245 37.288C78.5538 36.8187 78.3618 36.328 78.1485 35.816C77.9565 35.2827 77.7645 34.7707 77.5725 34.28C77.4018 33.768 77.2525 33.3307 77.1245 32.968L78.0205 32.936C77.8498 33.384 77.6685 33.8533 77.4765 34.344C77.3058 34.8347 77.1245 35.336 76.9325 35.848C76.7405 36.3387 76.5485 36.8187 76.3565 37.288C76.1645 37.736 75.9832 38.152 75.8125 38.536L69.4125 53H65.8285ZM70.1805 47.624L71.4925 44.296H83.4285L84.3885 47.624H70.1805ZM99.3087 53V30.6H115.917V33.928H102.765V49.672H115.917V53H99.3087ZM101.069 43.176V39.848H114.157V43.176H101.069ZM130.352 46.888L130.256 42.984L144.688 30.6H149.552L130.352 46.888ZM127.696 53V30.6H131.152V53H127.696ZM144.88 53L135.632 41.16L137.936 38.664L149.36 53H144.88Z" fill="#471BB2"/>
<path d="M2.78875 12V0.799999H7.89275C8.82075 0.799999 9.64208 0.943999 10.3568 1.232C11.0821 1.50933 11.6954 1.904 12.1968 2.416C12.6981 2.928 13.0768 3.52533 13.3328 4.208C13.5888 4.88 13.7168 5.61067 13.7168 6.4C13.7168 7.2 13.5888 7.94133 13.3328 8.624C13.0768 9.30667 12.6981 9.89867 12.1968 10.4C11.7061 10.9013 11.0981 11.296 10.3728 11.584C9.64742 11.8613 8.82075 12 7.89275 12H2.78875ZM4.51675 10.512L4.46875 10.336H7.81275C8.50608 10.336 9.10875 10.24 9.62075 10.048C10.1434 9.856 10.5701 9.584 10.9008 9.232C11.2421 8.88 11.4928 8.464 11.6528 7.984C11.8234 7.504 11.9088 6.976 11.9088 6.4C11.9088 5.83467 11.8234 5.31733 11.6528 4.848C11.4928 4.368 11.2421 3.952 10.9008 3.6C10.5594 3.23733 10.1328 2.96 9.62075 2.768C9.10875 2.56533 8.50608 2.464 7.81275 2.464H4.42075L4.51675 2.32V10.512ZM22.8831 12.16C21.9871 12.16 21.1605 12.016 20.4031 11.728C19.6565 11.4293 19.0005 11.0187 18.4351 10.496C17.8805 9.97333 17.4485 9.36533 17.1391 8.672C16.8405 7.968 16.6911 7.21067 16.6911 6.4C16.6911 5.58933 16.8405 4.83733 17.1391 4.144C17.4485 3.44 17.8805 2.82667 18.4351 2.304C19.0005 1.78133 19.6565 1.376 20.4031 1.088C21.1605 0.789333 21.9871 0.639999 22.8831 0.639999C23.7898 0.639999 24.6165 0.783999 25.3631 1.072C26.1205 1.36 26.7765 1.77067 27.3311 2.304C27.8965 2.82667 28.3285 3.44 28.6271 4.144C28.9365 4.83733 29.0911 5.58933 29.0911 6.4C29.0911 7.21067 28.9365 7.968 28.6271 8.672C28.3285 9.36533 27.8965 9.97867 27.3311 10.512C26.7765 11.0347 26.1205 11.44 25.3631 11.728C24.6165 12.016 23.7898 12.16 22.8831 12.16ZM22.8991 10.48C23.5498 10.48 24.1418 10.3787 24.6751 10.176C25.2191 9.96267 25.6885 9.67467 26.0831 9.312C26.4778 8.93867 26.7818 8.50667 26.9951 8.016C27.2191 7.51467 27.3311 6.976 27.3311 6.4C27.3311 5.824 27.2191 5.29067 26.9951 4.8C26.7818 4.29867 26.4778 3.86667 26.0831 3.504C25.6885 3.13067 25.2191 2.84267 24.6751 2.64C24.1311 2.42667 23.5391 2.32 22.8991 2.32C22.2485 2.32 21.6511 2.42667 21.1071 2.64C20.5631 2.84267 20.0885 3.12533 19.6831 3.488C19.2885 3.85067 18.9845 4.28267 18.7711 4.784C18.5578 5.27467 18.4511 5.81333 18.4511 6.4C18.4511 6.976 18.5578 7.51467 18.7711 8.016C18.9845 8.51733 19.2885 8.94933 19.6831 9.312C20.0885 9.67467 20.5631 9.96267 21.1071 10.176C21.6511 10.3787 22.2485 10.48 22.8991 10.48ZM37.8581 12.096C36.8448 12.096 35.9488 11.8827 35.1701 11.456C34.4021 11.0187 33.7995 10.4213 33.3621 9.664C32.9355 8.90667 32.7221 8.05333 32.7221 7.104V0.783999H34.4501V7.008C34.4501 7.65867 34.5995 8.24533 34.8981 8.768C35.2075 9.28 35.6181 9.68533 36.1301 9.984C36.6528 10.272 37.2288 10.416 37.8581 10.416C38.5195 10.416 39.1115 10.272 39.6341 9.984C40.1675 9.68533 40.5835 9.28 40.8821 8.768C41.1915 8.24533 41.3461 7.65867 41.3461 7.008V0.783999H42.9941V7.104C42.9941 8.05333 42.7755 8.90667 42.3381 9.664C41.9115 10.4213 41.3088 11.0187 40.5301 11.456C39.7621 11.8827 38.8715 12.096 37.8581 12.096ZM47.4606 12V0.799999H52.9326C53.7753 0.799999 54.4793 0.911999 55.0446 1.136C55.6206 1.34933 56.0526 1.664 56.3406 2.08C56.6286 2.496 56.7726 3.008 56.7726 3.616C56.7726 4.21333 56.586 4.72533 56.2126 5.152C55.85 5.57867 55.322 5.88267 54.6286 6.064L54.6926 5.744C55.1833 5.85067 55.6313 6.032 56.0366 6.288C56.442 6.53333 56.762 6.85867 56.9966 7.264C57.242 7.66933 57.3646 8.14933 57.3646 8.704C57.3646 9.30133 57.2526 9.81333 57.0286 10.24C56.8153 10.656 56.5166 10.992 56.1326 11.248C55.7486 11.504 55.306 11.696 54.8046 11.824C54.314 11.9413 53.7913 12 53.2366 12H47.4606ZM49.1886 10.336H53.2366C53.7166 10.336 54.1326 10.2773 54.4846 10.16C54.8366 10.032 55.1086 9.84533 55.3006 9.6C55.5033 9.344 55.6046 9.03467 55.6046 8.672C55.6046 8.288 55.4873 7.97867 55.2526 7.744C55.018 7.50933 54.714 7.33867 54.3406 7.232C53.9673 7.11467 53.5726 7.056 53.1566 7.056H49.1886V10.336ZM49.1886 5.392H53.0766C53.4286 5.392 53.754 5.33333 54.0526 5.216C54.3513 5.088 54.586 4.912 54.7566 4.688C54.9273 4.464 55.0126 4.20267 55.0126 3.904C55.0126 3.41333 54.8153 3.05067 54.4206 2.816C54.026 2.58133 53.514 2.464 52.8846 2.464H49.1886V5.392ZM61.1794 12V0.799999H62.9074V10.336H69.4034V12H61.1794ZM73.2575 12V0.799999H81.5615V2.464H74.9855V10.336H81.5615V12H73.2575ZM74.1375 7.088V5.424H80.6815V7.088H74.1375Z" fill="#AE9BF8"/>
</svg>
