<svg width="1869" height="887" viewBox="0 0 1869 887" fill="none" xmlns="http://www.w3.org/2000/svg">
<path d="M111.65 252L29.05 252C17.6167 252 9.91667 251.183 5.95 249.55C1.98333 247.917 1.08678e-06 245.233 1.0857e-06 241.5L1.02218e-06 20.65C1.02043e-06 14.5833 2.56667 10.2667 7.7 7.7C12.8333 4.89999 21.7 3.49999 34.3 3.49999L113.05 3.49999C157.85 3.49999 188.767 12.3667 205.8 30.1C222.833 47.6 231.35 79.5667 231.35 126C231.35 172.433 222.483 205.1 204.75 224C187.017 242.667 155.983 252 111.65 252ZM108.85 55.65C103.25 55.65 99.5167 56.1167 97.65 57.05L97.65 198.45L110.95 199.85C117.95 199.85 123.2 194.25 126.7 183.05C130.433 171.85 132.3 152.483 132.3 124.95C132.3 97.4167 130.433 78.9833 126.7 69.65C122.967 60.3167 117.017 55.65 108.85 55.65ZM381.306 255.15C361.939 255.15 345.256 253.4 331.256 249.9C317.489 246.167 304.773 239.633 293.106 230.3C269.539 211.867 257.756 176.517 257.756 124.25C257.756 102.317 260.906 83.1833 267.206 66.85C273.739 50.5167 282.723 37.5667 294.156 28C316.556 9.33332 345.606 -1.0117e-05 381.306 -1.01273e-05C399.739 -1.01326e-05 415.723 1.63332 429.256 4.89999C443.023 8.16666 455.973 14.1167 468.106 22.75C492.606 40.4833 504.856 74.3167 504.856 124.25C504.856 169.05 493.773 202.067 471.606 223.3C449.439 244.533 419.339 255.15 381.306 255.15ZM369.756 195.3C372.556 198.567 376.406 200.2 381.306 200.2C386.206 200.2 390.056 198.567 392.856 195.3C395.656 191.8 397.989 184.567 399.856 173.6C401.723 162.4 402.656 146.883 402.656 127.05C402.656 107.217 401.723 91.9333 399.856 81.2C397.989 70.4667 395.656 63.4667 392.856 60.2C390.056 56.9333 386.206 55.3 381.306 55.3C376.406 55.3 372.556 56.9333 369.756 60.2C366.956 63.4667 364.623 70.4667 362.756 81.2C360.889 91.9333 359.956 107.217 359.956 127.05C359.956 146.883 360.889 162.4 362.756 173.6C364.623 184.567 366.956 191.8 369.756 195.3ZM760.657 154.35C760.657 187.95 750.973 213.15 731.607 229.95C712.473 246.517 684.59 254.8 647.957 254.8C611.557 254.8 583.557 246.517 563.957 229.95C544.357 213.15 534.557 187.95 534.557 154.35L534.557 25.9C534.557 20.0667 541.09 14.8167 554.157 10.15C567.457 5.48332 582.857 3.14999 600.357 3.14999C614.357 3.14999 623.457 5.83332 627.657 11.2C630.69 15.4 632.207 19.0167 632.207 22.05L632.207 126.35C632.207 152.717 633.14 170.217 635.007 178.85C637.107 187.25 641.423 191.45 647.957 191.45C654.49 191.45 658.573 187.367 660.207 179.2C662.073 170.8 663.007 153.067 663.007 126L663.007 25.9C663.007 20.0667 669.54 14.8167 682.607 10.15C695.907 5.48332 711.19 3.14999 728.457 3.14999C743.157 3.14999 752.49 5.83332 756.457 11.2C759.257 15.4 760.657 19.0167 760.657 22.05L760.657 154.35ZM901.562 252L824.912 252C813.245 252 805.428 251.183 801.462 249.55C797.495 247.917 795.512 245.35 795.512 241.85L795.512 16.8C795.512 5.59999 829.228 -1.02561e-05 896.662 -1.02755e-05C935.395 -1.02867e-05 962.112 3.73332 976.812 11.2C991.745 18.9 1001.31 28.7 1005.51 40.6C1007.85 47.6 1009.01 55.7667 1009.01 65.1C1009.01 83.3 1005.86 96.95 999.562 106.05C993.495 115.15 986.845 120.283 979.612 121.45C990.578 123.783 999.678 129.15 1006.91 137.55C1014.15 145.95 1017.76 160.183 1017.76 180.25C1017.76 203.583 1010.65 220.85 996.412 232.05C984.045 241.85 965.145 248.033 939.712 250.6C928.978 251.533 916.262 252 901.562 252ZM901.912 99.4C913.812 99.4 919.762 91.4667 919.762 75.6C919.762 67.6667 918.128 61.8333 914.862 58.1C911.828 54.1333 908.328 52.15 904.362 52.15L893.162 52.15L893.162 99.4L901.912 99.4ZM893.162 199.85L901.912 199.85C913.812 199.85 919.762 191.917 919.762 176.05C919.762 168.117 918.128 162.283 914.862 158.55C911.828 154.583 908.328 152.6 904.362 152.6L893.162 152.6L893.162 199.85ZM1078.69 252C1067.02 252 1059.21 251.417 1055.24 250.25C1051.27 248.85 1049.29 246.633 1049.29 243.6L1049.29 25.9C1049.29 20.7667 1056.06 15.75 1069.59 10.85C1083.12 5.71666 1098.29 3.14999 1115.09 3.14999C1130.02 3.14999 1139.82 6.29999 1144.49 12.6C1146.12 14.9333 1146.94 17.2667 1146.94 19.6L1146.94 174.65C1175.41 172.783 1196.87 171.85 1211.34 171.85C1216.24 171.85 1218.69 179.667 1218.69 195.3C1218.69 210.7 1217.64 224 1215.54 235.2C1213.44 246.4 1210.64 252 1207.14 252L1078.69 252ZM1424.12 252L1275.72 252C1264.29 252 1256.59 251.183 1252.62 249.55C1248.65 247.917 1246.67 245.35 1246.67 241.85L1246.67 20.3C1246.67 14.2333 1249.35 9.91665 1254.72 7.34998C1260.32 4.78332 1270.24 3.49999 1284.47 3.49999L1425.17 3.49999C1430.07 3.49999 1432.52 11.6667 1432.52 28C1432.52 44.1 1431.47 56.4667 1429.37 65.1C1427.27 73.5 1424.47 77.7 1420.97 77.7C1405.8 77.7 1380.25 76.1833 1344.32 73.15L1344.32 96.6C1378.85 95.2 1401.37 94.5 1411.87 94.5C1418.17 94.5 1421.32 101.85 1421.32 116.55C1421.32 131.25 1420.04 142.45 1417.47 150.15C1415.14 157.617 1411.87 161.35 1407.67 161.35L1344.32 159.95L1344.32 182.35C1384.92 179.317 1412.92 177.8 1428.32 177.8C1433.22 177.8 1435.67 185.967 1435.67 202.3C1435.67 218.633 1434.62 231 1432.52 239.4C1430.42 247.8 1427.62 252 1424.12 252Z" fill="#8152F4"/>
<path d="M283.55 878.15C268.883 881.45 253.85 883.65 238.45 884.75C223.417 886.217 208.567 886.95 193.9 886.95C179.6 886.95 168.417 886.583 160.35 885.85C152.65 885.117 142.383 883.283 129.55 880.35C116.717 877.417 104.983 873.383 94.35 868.25C83.7167 863.117 72.35 855.6 60.25 845.7C48.5167 835.8 38.6167 824.067 30.55 810.5C11.85 778.967 2.5 738.267 2.5 688.4C2.5 655.033 7.63333 625.517 17.9 599.85C28.5333 574.183 41.1833 554.383 55.85 540.45C70.8833 526.517 87.9333 515.333 107 506.9C137.8 492.967 168.783 486 199.95 486C244.683 486 276.767 489.667 296.2 497C305 500.3 312.883 505.433 319.85 512.4C326.817 519.367 330.3 529.45 330.3 542.65C330.3 555.85 327 572.533 320.4 592.7C314.167 612.867 305 622.95 292.9 622.95C289.233 622.95 275.667 620.017 252.2 614.15C228.733 608.283 212.783 605.35 204.35 605.35C191.517 605.35 180.517 612.5 171.35 626.8C162.55 641.1 158.15 661.45 158.15 687.85C158.15 714.25 162 734.783 169.7 749.45C177.767 764.117 188.217 771.45 201.05 771.45C210.217 771.45 226.717 767.783 250.55 760.45C274.75 752.75 288.867 748.9 292.9 748.9C304.267 748.9 313.067 759.35 319.3 780.25C325.9 801.15 329.2 818.017 329.2 830.85C329.2 843.683 325.167 853.95 317.1 861.65C309.4 868.983 298.217 874.483 283.55 878.15ZM533.388 866.05C533.388 870.817 522.204 874.667 499.838 877.6C477.838 880.533 455.471 882 432.738 882C410.371 882 395.888 880.717 389.288 878.15C383.054 875.583 379.938 871.55 379.938 866.05L379.938 527.8C379.938 518.633 390.571 510.383 411.838 503.05C433.104 495.35 456.204 491.5 481.138 491.5C515.971 491.5 533.388 499.75 533.388 516.25L533.388 637.25L582.338 637.25L582.338 527.8C582.338 518.633 592.971 510.383 614.238 503.05C635.871 495.35 659.154 491.5 684.088 491.5C718.554 491.5 735.788 499.75 735.788 516.25L735.788 866.05C735.788 870.817 724.604 874.667 702.238 877.6C679.871 880.533 657.504 882 635.138 882C612.771 882 598.288 880.717 591.688 878.15C585.454 875.583 582.338 871.55 582.338 866.05L582.338 740.1L533.388 740.1L533.388 866.05ZM1069.4 882L836.197 882C818.23 882 806.13 880.717 799.897 878.15C793.664 875.583 790.547 871.55 790.547 866.05L790.547 517.9C790.547 508.367 794.764 501.583 803.197 497.55C811.997 493.517 827.58 491.5 849.947 491.5L1071.05 491.5C1078.75 491.5 1082.6 504.333 1082.6 530C1082.6 555.3 1080.95 574.733 1077.65 588.3C1074.35 601.5 1069.95 608.1 1064.45 608.1C1040.61 608.1 1000.46 605.717 943.997 600.95L943.997 637.8C998.264 635.6 1033.65 634.5 1050.15 634.5C1060.05 634.5 1065 646.05 1065 669.15C1065 692.25 1062.98 709.85 1058.95 721.95C1055.28 733.683 1050.15 739.55 1043.55 739.55L943.997 737.35L943.997 772.55C1007.8 767.783 1051.8 765.4 1076 765.4C1083.7 765.4 1087.55 778.233 1087.55 803.9C1087.55 829.567 1085.9 849 1082.6 862.2C1079.3 875.4 1074.9 882 1069.4 882ZM1412.79 878.15C1398.12 881.45 1383.09 883.65 1367.69 884.75C1352.66 886.217 1337.81 886.95 1323.14 886.95C1308.84 886.95 1297.66 886.583 1289.59 885.85C1281.89 885.117 1271.62 883.283 1258.79 880.35C1245.96 877.417 1234.22 873.383 1223.59 868.25C1212.96 863.117 1201.59 855.6 1189.49 845.7C1177.76 835.8 1167.86 824.067 1159.79 810.5C1141.09 778.967 1131.74 738.267 1131.74 688.4C1131.74 655.033 1136.87 625.517 1147.14 599.85C1157.77 574.183 1170.42 554.383 1185.09 540.45C1200.12 526.517 1217.17 515.333 1236.24 506.9C1267.04 492.967 1298.02 486 1329.19 486C1373.92 486 1406.01 489.667 1425.44 497C1434.24 500.3 1442.12 505.433 1449.09 512.4C1456.06 519.367 1459.54 529.45 1459.54 542.65C1459.54 555.85 1456.24 572.533 1449.64 592.7C1443.41 612.867 1434.24 622.95 1422.14 622.95C1418.47 622.95 1404.91 620.017 1381.44 614.15C1357.97 608.283 1342.02 605.35 1333.59 605.35C1320.76 605.35 1309.76 612.5 1300.59 626.8C1291.79 641.1 1287.39 661.45 1287.39 687.85C1287.39 714.25 1291.24 734.783 1298.94 749.45C1307.01 764.117 1317.46 771.45 1330.29 771.45C1339.46 771.45 1355.96 767.783 1379.79 760.45C1403.99 752.75 1418.11 748.9 1422.14 748.9C1433.51 748.9 1442.31 759.35 1448.54 780.25C1455.14 801.15 1458.44 818.017 1458.44 830.85C1458.44 843.683 1454.41 853.95 1446.34 861.65C1438.64 868.983 1427.46 874.483 1412.79 878.15ZM1662.63 864.95C1662.63 869.717 1651.26 873.567 1628.53 876.5C1606.16 879.433 1583.79 880.9 1561.43 880.9C1539.06 880.9 1524.76 879.617 1518.53 877.05C1512.29 874.483 1509.18 870.45 1509.18 864.95L1509.18 527.8C1509.18 518.267 1519.44 509.833 1539.98 502.5C1560.88 495.167 1584.89 491.5 1612.03 491.5C1634.39 491.5 1648.88 495.9 1655.48 504.7C1660.24 510.933 1662.63 516.617 1662.63 521.75L1662.63 612.5L1667.03 612.5C1667.03 610.667 1672.53 595.45 1683.53 566.85C1704.43 512.95 1719.64 486 1729.18 486C1747.14 486 1772.44 491.317 1805.08 501.95C1820.84 507.083 1834.41 514.6 1845.78 524.5C1857.14 534.033 1862.83 544.667 1862.83 556.4C1862.83 563.733 1855.31 578.033 1840.28 599.3C1825.61 620.2 1803.24 648.25 1773.18 683.45C1780.14 690.783 1788.94 700.133 1799.58 711.5C1810.21 722.867 1824.33 739.917 1841.93 762.65C1859.89 785.017 1868.88 800.967 1868.88 810.5C1868.88 820.033 1860.26 831.217 1843.03 844.05C1825.79 856.517 1807.46 866.783 1788.03 874.85C1768.59 882.55 1754.11 886.4 1744.58 886.4C1738.34 886.4 1729.73 877.05 1718.73 858.35C1708.09 839.283 1695.08 810.867 1679.68 773.1L1662.63 793.45L1662.63 864.95Z" fill="#471BB2"/>
</svg>
