<svg width="24" height="24" viewBox="0 0 24 24" fill="none" xmlns="http://www.w3.org/2000/svg">
<path id="union-1" d="M4.14286 23H19.8571C21.5929 23 23 21.9056 23 20.5556V3.44444C23 2.09442 21.5929 1 19.8571 1H4.14286C2.40711 1 1 2.09442 1 3.44444V20.5556M4.14286 23C2.40711 23 1 21.9056 1 20.5556M4.14286 23H7.28571M1 20.5556C1 19.2055 2.40711 18.1111 4.14286 18.1111H19.8571C21.5929 18.1111 23 17.0167 23 15.6667V14.4444M13.5714 1V7.11111L10.4286 5.88889L7.28571 7.11111V1" stroke="#AAAAAA" stroke-linecap="round" stroke-linejoin="round"/>
</svg>
