<svg width="32" height="30" viewBox="0 0 32 30" fill="none" xmlns="http://www.w3.org/2000/svg">
<g id="union-1">
<path d="M21.6881 13.963C21.6881 16.8267 19.1414 19.1481 16 19.1481C12.8586 19.1481 10.3119 16.8267 10.3119 13.963C10.3119 11.0993 12.8586 8.77778 16 8.77778C19.1414 8.77778 21.6881 11.0993 21.6881 13.963Z" fill="#B29AFF"/>
<path d="M31 15C31 19.9787 28.2156 24.3503 24.0209 26.8325C21.7011 28.2052 18.95 29 16 29C13.05 29 10.2989 28.2052 7.97912 26.8325C3.78442 24.3503 1 19.9787 1 15C1 7.26801 7.71573 1 16 1C24.2843 1 31 7.26801 31 15Z" fill="#B29AFF"/>
<path d="M16 19.1481C18.4137 19.1481 20.7286 20.0222 22.4353 21.5781C23.0541 22.1422 23.5746 22.7792 23.9868 23.4669C24.4689 24.2715 24.4173 25.5674 24.0209 26.8325M16 19.1481C13.5863 19.1481 11.2714 20.0222 9.56469 21.5781C8.94587 22.1422 8.42536 22.7792 8.01323 23.4669C7.53107 24.2715 7.58268 25.5674 7.97912 26.8325M16 19.1481C19.1414 19.1481 21.6881 16.8267 21.6881 13.963C21.6881 11.0993 19.1414 8.77778 16 8.77778C12.8586 8.77778 10.3119 11.0993 10.3119 13.963C10.3119 16.8267 12.8586 19.1481 16 19.1481ZM24.0209 26.8325C28.2156 24.3503 31 19.9787 31 15C31 7.26801 24.2843 1 16 1C7.71573 1 1 7.26801 1 15C1 19.9787 3.78442 24.3503 7.97912 26.8325M24.0209 26.8325C21.7011 28.2052 18.95 29 16 29C13.05 29 10.2989 28.2052 7.97912 26.8325" stroke="white"/>
</g>
</svg>
