<svg width="26" height="26" viewBox="0 0 26 26" fill="none" xmlns="http://www.w3.org/2000/svg">
<path fill-rule="evenodd" clip-rule="evenodd" d="M1 3.66667C1 2.19391 2.53502 1 4.42857 1H7.85714V7.66667L11.2857 6.33333L14.7143 7.66667V1H21.5714C23.465 1 25 2.19391 25 3.66667V17C25 18.4728 23.465 19.6667 21.5714 19.6667H4.42857C2.53502 19.6667 1 20.8606 1 22.3333V3.66667Z" fill="#471BB2"/>
<path d="M25 22.3333V17C25 18.4728 23.465 19.6667 21.5714 19.6667H4.42857C2.53502 19.6667 1 20.8606 1 22.3333C1 23.8061 2.53502 25 4.42857 25H7.85714H21.5714C23.465 25 25 23.8061 25 22.3333Z" fill="#8B67FF"/>
<path d="M14.7143 1H7.85714V7.66667L11.2857 6.33333L14.7143 7.66667V1Z" fill="#471BB2"/>
<path d="M4.42857 25H21.5714M4.42857 25C2.53502 25 1 23.8061 1 22.3333M4.42857 25H7.85714H21.5714M1 22.3333V3.66667C1 2.19391 2.53502 1 4.42857 1M1 22.3333C1 20.8606 2.53502 19.6667 4.42857 19.6667H21.5714C23.465 19.6667 25 18.4728 25 17M25 22.3333V3.66667M25 22.3333C25 23.8061 23.465 25 21.5714 25M25 22.3333V17M21.5714 1H4.42857M21.5714 1C23.465 1 25 2.19391 25 3.66667M21.5714 1H14.7143M25 3.66667V17M4.42857 1H7.85714M25 17V15.6667M14.7143 1V7.66667L11.2857 6.33333L7.85714 7.66667V1M14.7143 1H7.85714" stroke="white" stroke-linecap="round" stroke-linejoin="round"/>
</svg>
