<svg width="29" height="28" viewBox="0 0 29 28" fill="none" xmlns="http://www.w3.org/2000/svg">
<path fill-rule="evenodd" clip-rule="evenodd" d="M28 14C28 18.623 25.494 22.6824 21.7188 24.9873C22.0756 23.8126 22.122 22.6093 21.6881 21.8621C21.3172 21.2235 20.8487 20.632 20.2918 20.1082C18.7557 18.6635 16.6723 17.8519 14.5 17.8519C17.3273 17.8519 19.6193 15.6962 19.6193 13.037C19.6193 10.3779 17.3273 8.22222 14.5 8.22222C11.6727 8.22222 9.38074 10.3779 9.38074 13.037C9.38074 15.6962 11.6727 17.8519 14.5 17.8519C12.3277 17.8519 10.2443 18.6635 8.70822 20.1082C8.15128 20.632 7.68283 21.2235 7.31191 21.8621C6.87797 22.6093 6.92441 23.8126 7.28121 24.9873C3.50598 22.6824 1 18.623 1 14C1 6.8203 7.04416 1 14.5 1C21.9558 1 28 6.8203 28 14Z" fill="#B29AFF"/>
<path d="M14.5 17.8519C17.3273 17.8519 19.6193 15.6962 19.6193 13.037C19.6193 10.3779 17.3273 8.22222 14.5 8.22222C11.6727 8.22222 9.38074 10.3779 9.38074 13.037C9.38074 15.6962 11.6727 17.8519 14.5 17.8519Z" fill="white"/>
<path d="M21.6881 21.8621C21.3172 21.2235 20.8487 20.632 20.2918 20.1082C18.7557 18.6635 16.6723 17.8519 14.5 17.8519C12.3277 17.8519 10.2443 18.6635 8.70822 20.1082C8.15128 20.632 7.68283 21.2235 7.31191 21.8621C6.87797 22.6093 6.92441 23.8126 7.28121 24.9873C9.36901 26.262 11.845 27 14.5 27C17.155 27 19.631 26.262 21.7188 24.9873C22.0756 23.8126 22.122 22.6093 21.6881 21.8621Z" fill="white"/>
<path d="M14.5 17.8519C16.6723 17.8519 18.7557 18.6635 20.2918 20.1082C20.8487 20.632 21.3172 21.2235 21.6881 21.8621C22.122 22.6093 22.0756 23.8126 21.7188 24.9873M14.5 17.8519C12.3277 17.8519 10.2443 18.6635 8.70822 20.1082C8.15128 20.632 7.68283 21.2235 7.31191 21.8621C6.87797 22.6093 6.92441 23.8126 7.28121 24.9873M14.5 17.8519C17.3273 17.8519 19.6193 15.6962 19.6193 13.037C19.6193 10.3779 17.3273 8.22222 14.5 8.22222C11.6727 8.22222 9.38074 10.3779 9.38074 13.037C9.38074 15.6962 11.6727 17.8519 14.5 17.8519ZM21.7188 24.9873C25.494 22.6824 28 18.623 28 14C28 6.8203 21.9558 1 14.5 1C7.04416 1 1 6.8203 1 14C1 18.623 3.50598 22.6824 7.28121 24.9873M21.7188 24.9873C19.631 26.262 17.155 27 14.5 27C11.845 27 9.36901 26.262 7.28121 24.9873" stroke="#B29AFF"/>
</svg>
