<svg width="27" height="26" viewBox="0 0 27 26" fill="none" xmlns="http://www.w3.org/2000/svg">
<g id="Group 18512">
<path id="union-1" d="M13.5 16.5556C15.5114 16.5556 17.4405 17.3048 18.8628 18.6384C19.3784 19.1219 19.8122 19.6679 20.1556 20.2574C20.5574 20.947 20.5144 22.0578 20.1841 23.1421M13.5 16.5556C11.4886 16.5556 9.55953 17.3048 8.13724 18.6384C7.62156 19.1219 7.1878 19.6679 6.84436 20.2574C6.44256 20.947 6.48556 22.0578 6.81593 23.1421M13.5 16.5556C16.1179 16.5556 18.2401 14.5657 18.2401 12.1111C18.2401 9.65651 16.1179 7.66667 13.5 7.66667C10.8821 7.66667 8.75995 9.65651 8.75995 12.1111C8.75995 14.5657 10.8821 16.5556 13.5 16.5556ZM20.1841 23.1421C23.6796 21.0146 26 17.2674 26 13C26 6.37258 20.4036 1 13.5 1C6.59644 1 1 6.37258 1 13C1 17.2674 3.32035 21.0146 6.81593 23.1421M20.1841 23.1421C18.2509 24.3187 15.9583 25 13.5 25C11.0417 25 8.74908 24.3187 6.81593 23.1421" stroke="#AAAAAA"/>
</g>
</svg>
