<svg width="198" height="182" viewBox="0 0 198 182" fill="none" xmlns="http://www.w3.org/2000/svg">
<path fill-rule="evenodd" clip-rule="evenodd" d="M21.919 91.1423C21.919 52.1142 56.2661 20.4756 98.6355 20.4756C141.005 20.4756 175.352 52.1142 175.352 91.1423C175.352 130.17 141.005 161.809 98.6355 161.809C56.2661 161.809 21.919 130.17 21.919 91.1423ZM150.223 58.7658C154.503 62.7082 154.503 69.1002 150.223 73.0426L95.4255 123.519C91.1456 127.461 84.2064 127.461 79.9264 123.519L52.5277 98.2807C48.2478 94.3383 48.2478 87.9463 52.5277 84.0039C56.8077 80.0614 63.7468 80.0614 68.0268 84.0039L87.676 102.104L134.724 58.7658C139.004 54.8234 145.943 54.8234 150.223 58.7658Z" fill="#B29AFF"/>
<path fill-rule="evenodd" clip-rule="evenodd" d="M150.223 73.0426C154.503 69.1002 154.503 62.7082 150.223 58.7658C145.943 54.8234 139.004 54.8234 134.724 58.7658L87.676 102.104L68.0268 84.0039C63.7468 80.0614 56.8077 80.0614 52.5277 84.0039C48.2478 87.9463 48.2478 94.3383 52.5277 98.2807L79.9264 123.519C84.2064 127.461 91.1456 127.461 95.4255 123.519L150.223 73.0426Z" fill="white"/>
<path fill-rule="evenodd" clip-rule="evenodd" d="M98.6355 0.285156C44.1606 0.285156 0 40.9633 0 91.1423C0 141.321 44.1606 181.999 98.6355 181.999C153.11 181.999 197.271 141.321 197.271 91.1423C197.271 40.9633 153.11 0.285156 98.6355 0.285156ZM98.6355 20.4756C56.2661 20.4756 21.919 52.1142 21.919 91.1423C21.919 130.17 56.2661 161.809 98.6355 161.809C141.005 161.809 175.352 130.17 175.352 91.1423C175.352 52.1142 141.005 20.4756 98.6355 20.4756Z" fill="#B29AFF"/>
<path fill-rule="evenodd" clip-rule="evenodd" d="M21.919 91.1423C21.919 52.1142 56.2661 20.4756 98.6355 20.4756C141.005 20.4756 175.352 52.1142 175.352 91.1423C175.352 130.17 141.005 161.809 98.6355 161.809C56.2661 161.809 21.919 130.17 21.919 91.1423ZM150.223 58.7658C154.503 62.7082 154.503 69.1002 150.223 73.0426L95.4255 123.519C91.1456 127.461 84.2064 127.461 79.9264 123.519L52.5277 98.2807C48.2478 94.3383 48.2478 87.9463 52.5277 84.0039C56.8077 80.0614 63.7468 80.0614 68.0268 84.0039L87.676 102.104L134.724 58.7658C139.004 54.8234 145.943 54.8234 150.223 58.7658Z" fill="#B29AFF"/>
<path fill-rule="evenodd" clip-rule="evenodd" d="M150.223 73.0426C154.503 69.1002 154.503 62.7082 150.223 58.7658C145.943 54.8234 139.004 54.8234 134.724 58.7658L87.676 102.104L68.0268 84.0039C63.7468 80.0614 56.8077 80.0614 52.5277 84.0039C48.2478 87.9463 48.2478 94.3383 52.5277 98.2807L79.9264 123.519C84.2064 127.461 91.1456 127.461 95.4255 123.519L150.223 73.0426Z" fill="white"/>
<path fill-rule="evenodd" clip-rule="evenodd" d="M98.6355 0.285156C44.1606 0.285156 0 40.9633 0 91.1423C0 141.321 44.1606 181.999 98.6355 181.999C153.11 181.999 197.271 141.321 197.271 91.1423C197.271 40.9633 153.11 0.285156 98.6355 0.285156ZM98.6355 20.4756C56.2661 20.4756 21.919 52.1142 21.919 91.1423C21.919 130.17 56.2661 161.809 98.6355 161.809C141.005 161.809 175.352 130.17 175.352 91.1423C175.352 52.1142 141.005 20.4756 98.6355 20.4756Z" fill="#B29AFF"/>
</svg>
