<svg width="52" height="52" viewBox="0 0 52 52" fill="none" xmlns="http://www.w3.org/2000/svg">
<path d="M1 6.55555C1 3.48731 3.48731 1 6.55556 1H14.8889C17.9571 1 20.4444 3.48731 20.4444 6.55556V14.8889C20.4444 17.9571 17.9571 20.4444 14.8889 20.4444H6.55555C3.48731 20.4444 1 17.9571 1 14.8889V6.55555Z" fill="#C6C6C6"/>
<path d="M1 37.1111C1 34.0429 3.48731 31.5556 6.55556 31.5556H14.8889C17.9571 31.5556 20.4444 34.0429 20.4444 37.1111V45.4444C20.4444 48.5127 17.9571 51 14.8889 51H6.55555C3.48731 51 1 48.5127 1 45.4444V37.1111Z" fill="#C6C6C6"/>
<path d="M31.5556 6.55555C31.5556 3.48731 34.0429 1 37.1111 1H45.4444C48.5127 1 51 3.48731 51 6.55556V14.8889C51 17.9571 48.5127 20.4444 45.4444 20.4444H37.1111C34.0429 20.4444 31.5556 17.9571 31.5556 14.8889V6.55555Z" fill="#C6C6C6"/>
<path d="M31.5556 37.1111C31.5556 34.0429 34.0429 31.5556 37.1111 31.5556H45.4444C48.5127 31.5556 51 34.0429 51 37.1111V45.4444C51 48.5127 48.5127 51 45.4444 51H37.1111C34.0429 51 31.5556 48.5127 31.5556 45.4444V37.1111Z" fill="#C6C6C6"/>
<path d="M1 6.55555C1 3.48731 3.48731 1 6.55556 1H14.8889C17.9571 1 20.4444 3.48731 20.4444 6.55556V14.8889C20.4444 17.9571 17.9571 20.4444 14.8889 20.4444H6.55555C3.48731 20.4444 1 17.9571 1 14.8889V6.55555Z" stroke="#C6C6C6" stroke-linecap="round" stroke-linejoin="round"/>
<path d="M1 37.1111C1 34.0429 3.48731 31.5556 6.55556 31.5556H14.8889C17.9571 31.5556 20.4444 34.0429 20.4444 37.1111V45.4444C20.4444 48.5127 17.9571 51 14.8889 51H6.55555C3.48731 51 1 48.5127 1 45.4444V37.1111Z" stroke="#C6C6C6" stroke-linecap="round" stroke-linejoin="round"/>
<path d="M31.5556 6.55555C31.5556 3.48731 34.0429 1 37.1111 1H45.4444C48.5127 1 51 3.48731 51 6.55556V14.8889C51 17.9571 48.5127 20.4444 45.4444 20.4444H37.1111C34.0429 20.4444 31.5556 17.9571 31.5556 14.8889V6.55555Z" stroke="#C6C6C6" stroke-linecap="round" stroke-linejoin="round"/>
<path d="M31.5556 37.1111C31.5556 34.0429 34.0429 31.5556 37.1111 31.5556H45.4444C48.5127 31.5556 51 34.0429 51 37.1111V45.4444C51 48.5127 48.5127 51 45.4444 51H37.1111C34.0429 51 31.5556 48.5127 31.5556 45.4444V37.1111Z" stroke="#C6C6C6" stroke-linecap="round" stroke-linejoin="round"/>
</svg>
