<svg width="198" height="182" viewBox="0 0 198 182" fill="none" xmlns="http://www.w3.org/2000/svg">
<path fill-rule="evenodd" clip-rule="evenodd" d="M21.919 90.8571C21.919 51.829 56.2661 20.1905 98.6355 20.1905C141.005 20.1905 175.352 51.829 175.352 90.8571C175.352 129.885 141.005 161.524 98.6355 161.524C56.2661 161.524 21.919 129.885 21.919 90.8571ZM150.223 58.4806C154.503 62.4231 154.503 68.815 150.223 72.7575L95.4255 123.234C91.1456 127.176 84.2064 127.176 79.9264 123.234L52.5277 97.9956C48.2478 94.0531 48.2478 87.6612 52.5277 83.7187C56.8077 79.7763 63.7468 79.7763 68.0268 83.7187L87.676 101.818L134.724 58.4806C139.004 54.5382 145.943 54.5382 150.223 58.4806Z" fill="#B29AFF"/>
<path fill-rule="evenodd" clip-rule="evenodd" d="M150.223 72.7575C154.503 68.815 154.503 62.4231 150.223 58.4806C145.943 54.5382 139.004 54.5382 134.724 58.4806L87.676 101.818L68.0268 83.7187C63.7468 79.7763 56.8077 79.7763 52.5277 83.7187C48.2478 87.6612 48.2478 94.0531 52.5277 97.9956L79.9264 123.234C84.2064 127.176 91.1456 127.176 95.4255 123.234L150.223 72.7575Z" fill="white"/>
<path fill-rule="evenodd" clip-rule="evenodd" d="M98.6355 0C44.1606 0 0 40.6781 0 90.8571C0 141.036 44.1606 181.714 98.6355 181.714C153.11 181.714 197.271 141.036 197.271 90.8571C197.271 40.6781 153.11 0 98.6355 0ZM98.6355 20.1905C56.2661 20.1905 21.919 51.829 21.919 90.8571C21.919 129.885 56.2661 161.524 98.6355 161.524C141.005 161.524 175.352 129.885 175.352 90.8571C175.352 51.829 141.005 20.1905 98.6355 20.1905Z" fill="#B29AFF"/>
<path fill-rule="evenodd" clip-rule="evenodd" d="M21.919 90.8571C21.919 51.829 56.2661 20.1905 98.6355 20.1905C141.005 20.1905 175.352 51.829 175.352 90.8571C175.352 129.885 141.005 161.524 98.6355 161.524C56.2661 161.524 21.919 129.885 21.919 90.8571ZM150.223 58.4806C154.503 62.4231 154.503 68.815 150.223 72.7575L95.4255 123.234C91.1456 127.176 84.2064 127.176 79.9264 123.234L52.5277 97.9956C48.2478 94.0531 48.2478 87.6612 52.5277 83.7187C56.8077 79.7763 63.7468 79.7763 68.0268 83.7187L87.676 101.818L134.724 58.4806C139.004 54.5382 145.943 54.5382 150.223 58.4806Z" fill="#DADADA"/>
<path fill-rule="evenodd" clip-rule="evenodd" d="M150.223 72.7575C154.503 68.815 154.503 62.4231 150.223 58.4806C145.943 54.5382 139.004 54.5382 134.724 58.4806L87.676 101.818L68.0268 83.7187C63.7468 79.7763 56.8077 79.7763 52.5277 83.7187C48.2478 87.6612 48.2478 94.0531 52.5277 97.9956L79.9264 123.234C84.2064 127.176 91.1456 127.176 95.4255 123.234L150.223 72.7575Z" fill="white"/>
<path fill-rule="evenodd" clip-rule="evenodd" d="M98.6355 0C44.1606 0 0 40.6781 0 90.8571C0 141.036 44.1606 181.714 98.6355 181.714C153.11 181.714 197.271 141.036 197.271 90.8571C197.271 40.6781 153.11 0 98.6355 0ZM98.6355 20.1905C56.2661 20.1905 21.919 51.829 21.919 90.8571C21.919 129.885 56.2661 161.524 98.6355 161.524C141.005 161.524 175.352 129.885 175.352 90.8571C175.352 51.829 141.005 20.1905 98.6355 20.1905Z" fill="#DADADA"/>
</svg>
