<svg width="538" height="47" viewBox="0 0 538 47" fill="none" xmlns="http://www.w3.org/2000/svg">
<path d="M20.8672 12.4209V35.4312H22.4858C26.506 35.4312 29.1191 34.3626 30.3252 32.2256C31.5101 30.0885 32.1025 27.4014 32.1025 24.1641C32.1025 22.2174 31.8486 20.292 31.3408 18.3877C30.8118 16.4834 29.8809 15.0129 28.5479 13.9761C27.236 12.9393 24.8874 12.4209 21.502 12.4209H20.8672ZM20.8672 46H0.33252V35.4312H3.79199V12.4209H0.33252V1.85205H21.4702C26.2944 1.85205 30.23 2.14827 33.2769 2.74072C36.3449 3.33317 39.2331 4.5498 41.9414 6.39062C44.6286 8.2526 46.7445 10.7705 48.2891 13.9443C49.0508 15.4678 49.6326 17.097 50.0347 18.832C50.4367 20.5671 50.6377 22.3867 50.6377 24.291C50.6377 28.1208 49.8231 31.612 48.1938 34.7646C46.5858 37.8962 44.5439 40.2977 42.0684 41.9692C39.6562 43.6408 37.0114 44.7305 34.1338 45.2383C31.2773 45.7461 26.8551 46 20.8672 46ZM76.2822 23.8149C76.2822 28.7238 76.7583 32.0352 77.7104 33.749C78.6203 35.484 80.0485 36.3516 81.9951 36.3516C83.9206 36.3516 85.3594 35.5158 86.3115 33.8442C87.2637 32.1515 87.7397 28.8084 87.7397 23.8149C87.7397 18.9696 87.2743 15.6688 86.3433 13.9126C85.4334 12.1776 83.984 11.3101 81.9951 11.3101C80.0908 11.3101 78.6626 12.1458 77.7104 13.8174C76.7583 15.4889 76.2822 18.8215 76.2822 23.8149ZM57.1123 23.8149C57.1123 20.1333 58.0116 16.568 59.8101 13.1191C61.5874 9.69141 64.3486 6.80322 68.0938 4.45459C69.4268 3.62939 70.7915 2.97347 72.188 2.48682C73.6056 2.00016 75.1396 1.62988 76.79 1.37598C78.4404 1.10091 80.1755 0.963379 81.9951 0.963379C89.9085 0.963379 96.034 3.28027 100.372 7.91406C102.53 10.1992 104.159 12.6748 105.259 15.3408C106.36 18.0068 106.91 20.8315 106.91 23.8149C106.91 29.9722 104.667 35.3254 100.181 39.8745C95.6955 44.4237 89.6335 46.6982 81.9951 46.6982C74.6107 46.6982 68.6227 44.5612 64.0312 40.2871C59.4186 36.0342 57.1123 30.5435 57.1123 23.8149ZM133.887 27.6235V36.3198H137.728C140.182 36.3198 141.949 36.0024 143.028 35.3677C144.086 34.7329 144.615 33.6115 144.615 32.0034C144.615 30.5011 144.139 29.3903 143.187 28.6709C142.234 27.9727 140.394 27.6235 137.664 27.6235H133.887ZM133.887 11.5322V19.5938H137.664C140.224 19.5938 141.906 19.2235 142.71 18.4829C143.472 17.7424 143.853 16.769 143.853 15.563C143.853 14.5262 143.504 13.5952 142.806 12.77C142.107 11.9448 140.193 11.5322 137.061 11.5322H133.887ZM137.95 46H112.972V35.4312H116.812V12.4209H112.972V1.85205H139.949C145.239 1.85205 149.333 2.15885 152.232 2.77246C155.088 3.40723 157.331 4.66618 158.96 6.54932C160.59 8.47477 161.404 10.7176 161.404 13.2778C161.404 15.7746 160.632 17.7635 159.087 19.2446C157.5 20.7681 155.575 21.826 153.311 22.4185C156.421 23.3494 158.812 24.7882 160.484 26.7349C162.177 28.7238 163.023 30.9561 163.023 33.4316C163.023 36.3939 162.071 38.9118 160.167 40.9854C158.262 43.0378 155.649 44.3813 152.327 45.0161C149.048 45.672 144.255 46 137.95 46ZM209.996 46H167.974V35.4312H171.941V12.4209H167.974V1.85205H193.206V12.4209H189.017V35.4312H199.458V28.3535H209.996V46ZM256.111 46H213.995V35.4312H217.422V12.4209H213.931V1.85205H256.111V15.9756H244.527V12.4209H234.498V19.2129H243.226V28.1948H234.498V35.4312H244.527V31.8765H256.111V46ZM313.97 26.5444L325.428 30.5752C324.454 35.2936 322.222 39.1551 318.731 42.1597C315.197 45.1854 310.331 46.6982 304.131 46.6982C295.668 46.6982 289.405 44.4871 285.342 40.0649C281.259 35.6639 279.217 30.2896 279.217 23.9419C279.217 17.5519 281.216 12.1247 285.215 7.66016C289.214 3.19564 294.409 0.963379 300.799 0.963379C305.983 0.963379 310.204 2.24349 313.462 4.80371V1.85205H324.063V17.9751H313.05C312.479 15.965 311.516 14.3781 310.162 13.2144C308.807 12.0718 307.263 11.5005 305.528 11.5005C300.746 11.5005 298.355 15.6159 298.355 23.8467C298.355 32.0986 300.831 36.2246 305.782 36.2246C310.119 36.2246 312.849 32.9979 313.97 26.5444ZM354.31 46H331.077V35.4312H334.41V12.4209H331.014V1.85205H354.31V12.4209H351.485V19.1494H361.705V12.4209H358.848V1.85205H382.112V12.4209H378.78V35.4312H382.112V46H358.848V35.4312H361.705V28.1948H351.485V35.4312H354.31V46ZM407.408 13.0557L403.25 25.2749H411.153L407.408 13.0557ZM403.25 46H385.762V35.4312H389.126L397.41 12.4209H393.855V1.85205H425.594V12.4209H422.039L430.481 35.4312H433.719V46H410.677V36.3198H414.549L412.867 30.7656H401.568L399.632 36.3198H403.25V46ZM479.485 46H437.369V35.4312H440.796V12.4209H437.305V1.85205H479.485V15.9756H467.901V12.4209H457.872V19.2129H466.6V28.1948H457.872V35.4312H467.901V31.8765H479.485V46ZM537.535 46H514.683V35.4312H516.81L507.129 22.8628L518.365 12.4209H514.778V1.85205H536.519V12.4209H533.091L524.078 20.7998L535.345 35.4312H537.535V46ZM510.081 46H486.15V35.4312H489.515V12.4209H486.055V1.85205H510.081V12.4209H506.59V35.4312H510.081V46Z" fill="#471BB2"/>
</svg>
