<svg width="3907" height="298" viewBox="0 0 3907 298" fill="none" xmlns="http://www.w3.org/2000/svg">
<path d="M133.953 74.9941L133.953 224.384L144.462 224.384C170.562 224.384 187.527 217.447 195.357 203.572C203.05 189.698 206.896 172.252 206.896 151.234C206.896 138.596 205.248 126.096 201.951 113.732C198.517 101.369 192.473 91.8219 183.818 85.0908C175.301 78.3597 160.053 74.9941 138.074 74.9941L133.953 74.9941ZM133.953 293L0.635742 293L0.635742 224.384L23.0957 224.384L23.0957 74.9941L0.635742 74.9941L0.635742 6.37793L137.868 6.37793C169.188 6.37793 194.739 8.30111 214.521 12.1475C234.439 15.9938 253.19 23.8926 270.773 35.8437C288.219 47.9323 301.956 64.2793 311.984 84.8848C316.93 94.7754 320.707 105.353 323.317 116.617C325.927 127.882 327.232 139.695 327.232 152.059C327.232 176.923 321.944 199.589 311.366 220.057C300.926 240.387 287.67 255.979 271.598 266.831C255.938 277.683 238.766 284.758 220.084 288.055C201.539 291.352 172.829 293 133.953 293ZM502.165 148.968C502.165 180.838 505.255 202.336 511.437 213.463C517.344 224.727 526.616 230.359 539.254 230.359C551.755 230.359 561.096 224.933 567.278 214.081C573.46 203.091 576.55 181.387 576.55 148.968C576.55 117.51 573.528 96.0804 567.484 84.6787C561.577 73.4144 552.167 67.7822 539.254 67.7822C526.891 67.7822 517.619 73.2083 511.437 84.0605C505.255 94.9128 502.165 116.549 502.165 148.968ZM377.708 148.968C377.708 125.065 383.546 101.919 395.222 79.5273C406.761 57.2734 424.688 38.5225 449.003 23.2744C457.657 17.917 466.517 13.6585 475.584 10.499C484.787 7.33952 494.747 4.93555 505.461 3.28711C516.176 1.5013 527.441 0.608398 539.254 0.608398C590.631 0.608398 630.399 15.6504 658.56 45.7344C672.572 60.5703 683.149 76.6426 690.293 93.9512C697.436 111.26 701.007 129.599 701.007 148.968C701.007 188.942 686.446 223.697 657.324 253.231C628.201 282.766 588.845 297.533 539.254 297.533C491.312 297.533 452.437 283.659 422.628 255.91C392.681 228.299 377.708 192.651 377.708 148.968ZM764.67 74.9941L742.622 74.9941L742.622 6.37793L889.333 6.37793L889.333 74.9941L875.734 74.9941L875.734 171.634C875.734 194.712 877.931 210.441 882.327 218.82C886.723 227.062 894.622 231.184 906.024 231.184C915.502 231.184 922.371 227.681 926.629 220.675C930.887 213.806 933.017 199.726 933.017 178.434L933.017 74.9941L918.593 74.9941L918.593 6.37793L1026.36 6.37793L1026.36 74.9941L1003.69 74.9941L1003.69 178.846C1003.69 205.358 999.847 227.062 992.154 243.959C984.462 260.718 971.686 273.837 953.828 283.315C935.97 292.794 913.991 297.533 887.891 297.533C866.873 297.533 848.26 294.992 832.05 289.909C815.566 284.964 802.515 277.409 792.9 267.243C783.284 257.215 776.209 245.058 771.676 230.771C767.005 216.897 764.67 195.605 764.67 166.895L764.67 74.9941ZM1200.88 173.694L1200.88 230.153L1225.81 230.153C1241.75 230.153 1253.22 228.093 1260.22 223.972C1267.09 219.851 1270.53 212.57 1270.53 202.13C1270.53 192.377 1267.44 185.165 1261.25 180.494C1255.07 175.961 1243.12 173.694 1225.4 173.694L1200.88 173.694ZM1200.88 69.2246L1200.88 121.562L1225.4 121.562C1242.02 121.562 1252.94 119.159 1258.16 114.351C1263.11 109.543 1265.58 103.224 1265.58 95.3936C1265.58 88.6624 1263.31 82.6182 1258.78 77.2607C1254.25 71.9033 1241.82 69.2246 1221.48 69.2246L1200.88 69.2246ZM1227.25 293L1065.09 293L1065.09 224.384L1090.02 224.384L1090.02 74.9941L1065.09 74.9941L1065.09 6.37793L1240.24 6.37793C1274.58 6.37793 1301.16 8.36979 1319.98 12.3535C1338.52 16.4746 1353.09 24.6481 1363.66 36.874C1374.24 49.3747 1379.53 63.9359 1379.53 80.5576C1379.53 96.7673 1374.51 109.68 1364.49 119.296C1354.18 129.187 1341.68 136.055 1326.98 139.901C1347.18 145.946 1362.7 155.287 1373.55 167.925C1384.54 180.838 1390.04 195.33 1390.04 211.402C1390.04 230.634 1383.86 246.981 1371.49 260.443C1359.13 273.768 1342.16 282.491 1320.6 286.612C1299.3 290.871 1268.19 293 1227.25 293ZM1703.44 293L1430.62 293L1430.62 224.384L1456.38 224.384L1456.38 74.9941L1430.62 74.9941L1430.62 6.37793L1594.44 6.37793L1594.44 74.9941L1567.24 74.9941L1567.24 224.384L1635.03 224.384L1635.03 178.434L1703.44 178.434L1703.44 293ZM2011.28 293L1737.84 293L1737.84 224.384L1760.1 224.384L1760.1 74.9941L1737.43 74.9941L1737.43 6.37793L2011.28 6.37793L2011.28 98.0723L1936.07 98.0723L1936.07 74.9941L1870.95 74.9941L1870.95 119.09L1927.62 119.09L1927.62 177.403L1870.95 177.403L1870.95 224.384L1936.07 224.384L1936.07 201.306L2011.28 201.306L2011.28 293ZM2403.79 166.688L2478.18 192.857C2471.86 223.491 2457.37 248.561 2434.7 268.067C2411.76 287.711 2380.17 297.533 2339.92 297.533C2284.97 297.533 2244.31 283.178 2217.93 254.468C2191.42 225.895 2178.16 191.003 2178.16 149.792C2178.16 108.306 2191.15 73.071 2217.11 44.0859C2243.07 15.1009 2276.8 0.608398 2318.28 0.608398C2351.94 0.608398 2379.34 8.91927 2400.5 25.541L2400.5 6.37793L2469.32 6.37793L2469.32 111.054L2397.82 111.054C2394.11 98.0036 2387.86 87.7008 2379.07 80.1455C2370.28 72.7275 2360.25 69.0186 2348.98 69.0186C2317.94 69.0186 2302.42 95.737 2302.42 149.174C2302.42 202.748 2318.49 229.535 2350.63 229.535C2378.79 229.535 2396.51 208.586 2403.79 166.688ZM2674.13 293L2523.3 293L2523.3 224.384L2544.93 224.384L2544.93 74.9941L2522.89 74.9941L2522.89 6.37793L2674.13 6.37793L2674.13 74.9941L2655.79 74.9941L2655.79 118.678L2722.14 118.678L2722.14 74.9941L2703.6 74.9941L2703.6 6.37793L2854.63 6.37793L2854.63 74.9941L2833 74.9941L2833 224.384L2854.63 224.384L2854.63 293L2703.6 293L2703.6 224.384L2722.14 224.384L2722.14 177.403L2655.79 177.403L2655.79 224.384L2674.13 224.384L2674.13 293ZM3174.63 293L2901.19 293L2901.19 224.384L2923.45 224.384L2923.45 74.9941L2900.78 74.9941L2900.78 6.37793L3174.63 6.37793L3174.63 98.0723L3099.42 98.0723L3099.42 74.9941L3034.3 74.9941L3034.3 119.09L3090.97 119.09L3090.97 177.403L3034.3 177.403L3034.3 224.384L3099.42 224.384L3099.42 201.306L3174.63 201.306L3174.63 293ZM3453.21 166.688L3527.59 192.857C3521.27 223.491 3506.78 248.561 3484.11 268.067C3461.17 287.711 3429.58 297.533 3389.33 297.533C3334.38 297.533 3293.72 283.178 3267.34 254.468C3240.83 225.895 3227.58 191.003 3227.58 149.792C3227.58 108.306 3240.56 73.071 3266.52 44.0859C3292.48 15.1009 3326.21 0.608397 3367.69 0.608397C3401.35 0.608397 3428.75 8.91927 3449.91 25.541L3449.91 6.37793L3518.73 6.37793L3518.73 111.054L3447.23 111.054C3443.52 98.0036 3437.27 87.7008 3428.48 80.1455C3419.69 72.7275 3409.66 69.0186 3398.4 69.0186C3367.35 69.0186 3351.83 95.737 3351.83 149.174C3351.83 202.748 3367.9 229.535 3400.04 229.535C3428.2 229.535 3445.92 208.586 3453.21 166.688ZM3906.72 293L3758.36 293L3758.36 224.384L3772.17 224.384L3709.32 142.786L3782.27 74.9941L3758.98 74.9941L3758.98 6.37793L3900.13 6.37793L3900.13 74.9941L3877.88 74.9941L3819.36 129.393L3892.51 224.384L3906.72 224.384L3906.72 293ZM3728.49 293L3573.12 293L3573.12 224.384L3594.96 224.384L3594.96 74.9941L3572.5 74.9941L3572.5 6.37793L3728.49 6.37793L3728.49 74.9941L3705.82 74.9941L3705.82 224.384L3728.49 224.384L3728.49 293Z" fill="#471BB2"/>
</svg>
