<svg width="224" height="196" viewBox="0 0 224 196" fill="none" xmlns="http://www.w3.org/2000/svg">
<g filter="url(#filter0_f_691_2536)">
<path d="M187.206 98.9871C187.206 137.1 148.683 156.869 107.4 156.869C66.117 156.869 37.7062 137.1 37.7062 98.9871C37.7062 60.8745 70.5949 39.3616 111.878 39.3616C153.161 39.3616 187.206 60.8745 187.206 98.9871Z" fill="url(#paint0_radial_691_2536)"/>
</g>
<g filter="url(#filter1_f_691_2536)">
<path d="M57.0875 67.5489C65.5676 66.2237 76.4884 58.5006 75.5561 53.1467C74.6238 47.7928 57.5418 37.1871 49.0617 38.5123C40.5816 39.8376 43.9147 52.592 44.8469 57.9459C45.7792 63.2998 49.3924 76.2167 57.0875 67.5489Z" fill="url(#paint1_linear_691_2536)"/>
</g>
<g filter="url(#filter2_f_691_2536)">
<path d="M159.352 64.8795C145.752 54.9844 138.044 55.5925 139.531 50.2741C141.019 44.9556 162.105 33.9626 170.359 36.4264C178.612 38.8902 175.293 52.2645 173.805 57.5829C172.318 62.9014 168.745 68.2209 159.352 64.8795Z" fill="url(#paint2_linear_691_2536)"/>
</g>
<g filter="url(#filter3_f_691_2536)">
<path d="M73.6866 138.274C85.0037 146.157 94.3599 152.327 88.5332 159.392C82.7065 166.456 68.8087 165.793 57.4915 157.91C46.1744 150.027 41.7235 137.909 47.5502 130.845C53.3769 123.78 62.3694 130.391 73.6866 138.274Z" fill="url(#paint3_linear_691_2536)"/>
</g>
<g filter="url(#filter4_f_691_2536)">
<path d="M151.964 136.237C140.777 144.1 131.522 150.25 137.44 157.435C143.359 164.62 157.226 164.071 168.413 156.208C179.601 148.345 183.873 136.147 177.955 128.962C172.037 121.777 163.152 128.375 151.964 136.237Z" fill="url(#paint4_linear_691_2536)"/>
</g>
<g filter="url(#filter5_f_691_2536)">
<path d="M179 98.7863C179 133.167 144.471 151 107.468 151C70.4652 151 45 133.167 45 98.7863C45 64.4061 74.4789 45 111.482 45C148.485 45 179 64.4061 179 98.7863Z" fill="white"/>
</g>
<g filter="url(#filter6_if_691_2536)">
<ellipse cx="84.2064" cy="99.2076" rx="6.5" ry="9" fill="#471BB2"/>
</g>
<g filter="url(#filter7_if_691_2536)">
<path d="M139.706 99.2076C139.706 104.178 136.796 108.208 133.206 108.208C129.617 108.208 126.706 104.178 126.706 99.2076C126.706 94.237 129.617 90.2076 133.206 90.2076C136.796 90.2076 139.706 94.237 139.706 99.2076Z" fill="#471BB2"/>
</g>
<circle cx="81.7064" cy="93.8609" r="1" fill="#D9D9D9"/>
<circle cx="130.706" cy="93.8609" r="1" fill="#D9D9D9"/>
<g filter="url(#filter8_f_691_2536)">
<path d="M187.206 98.9871C187.206 137.1 148.683 156.869 107.4 156.869C66.117 156.869 37.7062 137.1 37.7062 98.9871C37.7062 60.8745 70.5949 39.3616 111.878 39.3616C153.161 39.3616 187.206 60.8745 187.206 98.9871Z" fill="url(#paint5_radial_691_2536)"/>
</g>
<g filter="url(#filter9_f_691_2536)">
<path d="M57.0875 67.5489C65.5676 66.2237 76.4884 58.5006 75.5561 53.1467C74.6238 47.7928 57.5418 37.1871 49.0617 38.5123C40.5816 39.8376 43.9147 52.592 44.8469 57.9459C45.7792 63.2998 49.3924 76.2167 57.0875 67.5489Z" fill="url(#paint6_linear_691_2536)"/>
</g>
<g filter="url(#filter10_f_691_2536)">
<path d="M159.352 64.8795C145.752 54.9844 138.044 55.5925 139.531 50.2741C141.019 44.9556 162.105 33.9626 170.359 36.4264C178.612 38.8902 175.293 52.2645 173.805 57.5829C172.318 62.9014 168.745 68.2209 159.352 64.8795Z" fill="url(#paint7_linear_691_2536)"/>
</g>
<g filter="url(#filter11_f_691_2536)">
<path d="M73.6866 138.274C85.0037 146.157 94.3599 152.327 88.5332 159.392C82.7065 166.456 68.8087 165.793 57.4915 157.91C46.1744 150.027 41.7235 137.909 47.5502 130.845C53.3769 123.78 62.3694 130.391 73.6866 138.274Z" fill="url(#paint8_linear_691_2536)"/>
</g>
<g filter="url(#filter12_f_691_2536)">
<path d="M151.964 136.237C140.777 144.1 131.522 150.25 137.44 157.435C143.359 164.62 157.226 164.071 168.413 156.208C179.601 148.345 183.873 136.147 177.955 128.962C172.037 121.777 163.152 128.375 151.964 136.237Z" fill="url(#paint9_linear_691_2536)"/>
</g>
<g filter="url(#filter13_f_691_2536)">
<path d="M179 98.7863C179 133.167 144.471 151 107.468 151C70.4652 151 45 133.167 45 98.7863C45 64.4061 74.4789 45 111.482 45C148.485 45 179 64.4061 179 98.7863Z" fill="white"/>
</g>
<g filter="url(#filter14_if_691_2536)">
<ellipse cx="84.2064" cy="99.2076" rx="6.5" ry="9" fill="#471BB2"/>
</g>
<g filter="url(#filter15_if_691_2536)">
<path d="M139.706 99.2076C139.706 104.178 136.796 108.208 133.206 108.208C129.617 108.208 126.706 104.178 126.706 99.2076C126.706 94.237 129.617 90.2076 133.206 90.2076C136.796 90.2076 139.706 94.237 139.706 99.2076Z" fill="#471BB2"/>
</g>
<circle cx="81.7064" cy="93.8609" r="1" fill="#D9D9D9"/>
<circle cx="130.706" cy="93.8609" r="1" fill="#D9D9D9"/>
<defs>
<filter id="filter0_f_691_2536" x="36.7062" y="38.3616" width="151.5" height="119.508" filterUnits="userSpaceOnUse" color-interpolation-filters="sRGB">
<feFlood flood-opacity="0" result="BackgroundImageFix"/>
<feBlend mode="normal" in="SourceGraphic" in2="BackgroundImageFix" result="shape"/>
<feGaussianBlur stdDeviation="0.5" result="effect1_foregroundBlur_691_2536"/>
</filter>
<filter id="filter1_f_691_2536" x="42.4167" y="37.3988" width="34.1953" height="34.064" filterUnits="userSpaceOnUse" color-interpolation-filters="sRGB">
<feFlood flood-opacity="0" result="BackgroundImageFix"/>
<feBlend mode="normal" in="SourceGraphic" in2="BackgroundImageFix" result="shape"/>
<feGaussianBlur stdDeviation="0.5" result="effect1_foregroundBlur_691_2536"/>
</filter>
<filter id="filter2_f_691_2536" x="138.349" y="35.0717" width="38.3857" height="31.848" filterUnits="userSpaceOnUse" color-interpolation-filters="sRGB">
<feFlood flood-opacity="0" result="BackgroundImageFix"/>
<feBlend mode="normal" in="SourceGraphic" in2="BackgroundImageFix" result="shape"/>
<feGaussianBlur stdDeviation="0.5" result="effect1_foregroundBlur_691_2536"/>
</filter>
<filter id="filter3_f_691_2536" x="43.9889" y="126.844" width="47.329" height="38.4409" filterUnits="userSpaceOnUse" color-interpolation-filters="sRGB">
<feFlood flood-opacity="0" result="BackgroundImageFix"/>
<feBlend mode="normal" in="SourceGraphic" in2="BackgroundImageFix" result="shape"/>
<feGaussianBlur stdDeviation="0.5" result="effect1_foregroundBlur_691_2536"/>
</filter>
<filter id="filter4_f_691_2536" x="134.596" y="124.878" width="47.0233" height="38.6055" filterUnits="userSpaceOnUse" color-interpolation-filters="sRGB">
<feFlood flood-opacity="0" result="BackgroundImageFix"/>
<feBlend mode="normal" in="SourceGraphic" in2="BackgroundImageFix" result="shape"/>
<feGaussianBlur stdDeviation="0.5" result="effect1_foregroundBlur_691_2536"/>
</filter>
<filter id="filter5_f_691_2536" x="0" y="0" width="224" height="196" filterUnits="userSpaceOnUse" color-interpolation-filters="sRGB">
<feFlood flood-opacity="0" result="BackgroundImageFix"/>
<feBlend mode="normal" in="SourceGraphic" in2="BackgroundImageFix" result="shape"/>
<feGaussianBlur stdDeviation="22.5" result="effect1_foregroundBlur_691_2536"/>
</filter>
<filter id="filter6_if_691_2536" x="76.7064" y="89.2076" width="15" height="23" filterUnits="userSpaceOnUse" color-interpolation-filters="sRGB">
<feFlood flood-opacity="0" result="BackgroundImageFix"/>
<feBlend mode="normal" in="SourceGraphic" in2="BackgroundImageFix" result="shape"/>
<feColorMatrix in="SourceAlpha" type="matrix" values="0 0 0 0 0 0 0 0 0 0 0 0 0 0 0 0 0 0 127 0" result="hardAlpha"/>
<feOffset dy="6"/>
<feGaussianBlur stdDeviation="2"/>
<feComposite in2="hardAlpha" operator="arithmetic" k2="-1" k3="1"/>
<feColorMatrix type="matrix" values="0 0 0 0 0 0 0 0 0 0 0 0 0 0 0 0 0 0 1 0"/>
<feBlend mode="normal" in2="shape" result="effect1_innerShadow_691_2536"/>
<feGaussianBlur stdDeviation="0.5" result="effect2_foregroundBlur_691_2536"/>
</filter>
<filter id="filter7_if_691_2536" x="125.706" y="89.2076" width="15" height="23" filterUnits="userSpaceOnUse" color-interpolation-filters="sRGB">
<feFlood flood-opacity="0" result="BackgroundImageFix"/>
<feBlend mode="normal" in="SourceGraphic" in2="BackgroundImageFix" result="shape"/>
<feColorMatrix in="SourceAlpha" type="matrix" values="0 0 0 0 0 0 0 0 0 0 0 0 0 0 0 0 0 0 127 0" result="hardAlpha"/>
<feOffset dy="6"/>
<feGaussianBlur stdDeviation="2"/>
<feComposite in2="hardAlpha" operator="arithmetic" k2="-1" k3="1"/>
<feColorMatrix type="matrix" values="0 0 0 0 0 0 0 0 0 0 0 0 0 0 0 0 0 0 1 0"/>
<feBlend mode="normal" in2="shape" result="effect1_innerShadow_691_2536"/>
<feGaussianBlur stdDeviation="0.5" result="effect2_foregroundBlur_691_2536"/>
</filter>
<filter id="filter8_f_691_2536" x="36.7062" y="38.3616" width="151.5" height="119.508" filterUnits="userSpaceOnUse" color-interpolation-filters="sRGB">
<feFlood flood-opacity="0" result="BackgroundImageFix"/>
<feBlend mode="normal" in="SourceGraphic" in2="BackgroundImageFix" result="shape"/>
<feGaussianBlur stdDeviation="0.5" result="effect1_foregroundBlur_691_2536"/>
</filter>
<filter id="filter9_f_691_2536" x="42.4167" y="37.3988" width="34.1953" height="34.064" filterUnits="userSpaceOnUse" color-interpolation-filters="sRGB">
<feFlood flood-opacity="0" result="BackgroundImageFix"/>
<feBlend mode="normal" in="SourceGraphic" in2="BackgroundImageFix" result="shape"/>
<feGaussianBlur stdDeviation="0.5" result="effect1_foregroundBlur_691_2536"/>
</filter>
<filter id="filter10_f_691_2536" x="138.349" y="35.0717" width="38.3857" height="31.848" filterUnits="userSpaceOnUse" color-interpolation-filters="sRGB">
<feFlood flood-opacity="0" result="BackgroundImageFix"/>
<feBlend mode="normal" in="SourceGraphic" in2="BackgroundImageFix" result="shape"/>
<feGaussianBlur stdDeviation="0.5" result="effect1_foregroundBlur_691_2536"/>
</filter>
<filter id="filter11_f_691_2536" x="43.9889" y="126.844" width="47.329" height="38.4409" filterUnits="userSpaceOnUse" color-interpolation-filters="sRGB">
<feFlood flood-opacity="0" result="BackgroundImageFix"/>
<feBlend mode="normal" in="SourceGraphic" in2="BackgroundImageFix" result="shape"/>
<feGaussianBlur stdDeviation="0.5" result="effect1_foregroundBlur_691_2536"/>
</filter>
<filter id="filter12_f_691_2536" x="134.596" y="124.878" width="47.0233" height="38.6055" filterUnits="userSpaceOnUse" color-interpolation-filters="sRGB">
<feFlood flood-opacity="0" result="BackgroundImageFix"/>
<feBlend mode="normal" in="SourceGraphic" in2="BackgroundImageFix" result="shape"/>
<feGaussianBlur stdDeviation="0.5" result="effect1_foregroundBlur_691_2536"/>
</filter>
<filter id="filter13_f_691_2536" x="18" y="18" width="188" height="160" filterUnits="userSpaceOnUse" color-interpolation-filters="sRGB">
<feFlood flood-opacity="0" result="BackgroundImageFix"/>
<feBlend mode="normal" in="SourceGraphic" in2="BackgroundImageFix" result="shape"/>
<feGaussianBlur stdDeviation="13.5" result="effect1_foregroundBlur_691_2536"/>
</filter>
<filter id="filter14_if_691_2536" x="76.7064" y="89.2076" width="15" height="23" filterUnits="userSpaceOnUse" color-interpolation-filters="sRGB">
<feFlood flood-opacity="0" result="BackgroundImageFix"/>
<feBlend mode="normal" in="SourceGraphic" in2="BackgroundImageFix" result="shape"/>
<feColorMatrix in="SourceAlpha" type="matrix" values="0 0 0 0 0 0 0 0 0 0 0 0 0 0 0 0 0 0 127 0" result="hardAlpha"/>
<feOffset dy="6"/>
<feGaussianBlur stdDeviation="2"/>
<feComposite in2="hardAlpha" operator="arithmetic" k2="-1" k3="1"/>
<feColorMatrix type="matrix" values="0 0 0 0 0 0 0 0 0 0 0 0 0 0 0 0 0 0 1 0"/>
<feBlend mode="normal" in2="shape" result="effect1_innerShadow_691_2536"/>
<feGaussianBlur stdDeviation="0.5" result="effect2_foregroundBlur_691_2536"/>
</filter>
<filter id="filter15_if_691_2536" x="125.706" y="89.2076" width="15" height="23" filterUnits="userSpaceOnUse" color-interpolation-filters="sRGB">
<feFlood flood-opacity="0" result="BackgroundImageFix"/>
<feBlend mode="normal" in="SourceGraphic" in2="BackgroundImageFix" result="shape"/>
<feColorMatrix in="SourceAlpha" type="matrix" values="0 0 0 0 0 0 0 0 0 0 0 0 0 0 0 0 0 0 127 0" result="hardAlpha"/>
<feOffset dy="6"/>
<feGaussianBlur stdDeviation="2"/>
<feComposite in2="hardAlpha" operator="arithmetic" k2="-1" k3="1"/>
<feColorMatrix type="matrix" values="0 0 0 0 0 0 0 0 0 0 0 0 0 0 0 0 0 0 1 0"/>
<feBlend mode="normal" in2="shape" result="effect1_innerShadow_691_2536"/>
<feGaussianBlur stdDeviation="0.5" result="effect2_foregroundBlur_691_2536"/>
</filter>
<radialGradient id="paint0_radial_691_2536" cx="0" cy="0" r="1" gradientUnits="userSpaceOnUse" gradientTransform="translate(109.206 114.708) rotate(161.178) scale(64.4462 69.7559)">
<stop stop-color="#FFCAC8"/>
<stop offset="1" stop-color="#FDEAEC"/>
</radialGradient>
<linearGradient id="paint1_linear_691_2536" x1="40.4535" y1="38.552" x2="51.9577" y2="59.2342" gradientUnits="userSpaceOnUse">
<stop stop-color="#FFD2D9"/>
<stop offset="1" stop-color="#FEEBED"/>
</linearGradient>
<linearGradient id="paint2_linear_691_2536" x1="178.874" y1="37.6005" x2="164.644" y2="56.609" gradientUnits="userSpaceOnUse">
<stop stop-color="#FFCAD7"/>
<stop offset="1" stop-color="#FCECEE"/>
</linearGradient>
<linearGradient id="paint3_linear_691_2536" x1="45.0978" y1="133.818" x2="83.5014" y2="165.493" gradientUnits="userSpaceOnUse">
<stop stop-color="#FDEAEC"/>
<stop offset="1" stop-color="#FFCAD7"/>
</linearGradient>
<linearGradient id="paint4_linear_691_2536" x1="180.446" y1="131.986" x2="142.335" y2="163.377" gradientUnits="userSpaceOnUse">
<stop stop-color="#FEEBED"/>
<stop offset="1" stop-color="#FFD2D9"/>
</linearGradient>
<radialGradient id="paint5_radial_691_2536" cx="0" cy="0" r="1" gradientUnits="userSpaceOnUse" gradientTransform="translate(109.206 114.708) rotate(161.178) scale(64.4462 69.7559)">
<stop stop-color="#FFCAC8"/>
<stop offset="1" stop-color="#FDEAEC"/>
</radialGradient>
<linearGradient id="paint6_linear_691_2536" x1="40.4535" y1="38.552" x2="51.9577" y2="59.2342" gradientUnits="userSpaceOnUse">
<stop stop-color="#FFD2D9"/>
<stop offset="1" stop-color="#FEEBED"/>
</linearGradient>
<linearGradient id="paint7_linear_691_2536" x1="178.874" y1="37.6005" x2="164.644" y2="56.609" gradientUnits="userSpaceOnUse">
<stop stop-color="#FFCAD7"/>
<stop offset="1" stop-color="#FCECEE"/>
</linearGradient>
<linearGradient id="paint8_linear_691_2536" x1="45.0978" y1="133.818" x2="83.5014" y2="165.493" gradientUnits="userSpaceOnUse">
<stop stop-color="#FDEAEC"/>
<stop offset="1" stop-color="#FFCAD7"/>
</linearGradient>
<linearGradient id="paint9_linear_691_2536" x1="180.446" y1="131.986" x2="142.335" y2="163.377" gradientUnits="userSpaceOnUse">
<stop stop-color="#FEEBED"/>
<stop offset="1" stop-color="#FFD2D9"/>
</linearGradient>
</defs>
</svg>
