<svg width="234" height="206" viewBox="0 0 234 206" fill="none" xmlns="http://www.w3.org/2000/svg">
<g filter="url(#filter0_f_694_2538)">
<path d="M193.206 102.987C193.206 141.1 154.683 160.869 113.4 160.869C72.117 160.869 43.7062 141.1 43.7062 102.987C43.7062 64.8745 76.5949 43.3616 117.878 43.3616C159.161 43.3616 193.206 64.8745 193.206 102.987Z" fill="url(#paint0_radial_694_2538)"/>
</g>
<g filter="url(#filter1_f_694_2538)">
<path d="M63.0875 71.5489C71.5676 70.2237 82.4884 62.5006 81.5561 57.1467C80.6238 51.7928 63.5418 41.1871 55.0617 42.5123C46.5816 43.8376 49.9147 56.592 50.8469 61.9459C51.7792 67.2998 55.3924 80.2167 63.0875 71.5489Z" fill="url(#paint1_linear_694_2538)"/>
</g>
<g filter="url(#filter2_f_694_2538)">
<path d="M165.352 68.8795C151.752 58.9844 144.044 59.5925 145.531 54.2741C147.019 48.9556 168.105 37.9626 176.359 40.4264C184.612 42.8902 181.293 56.2645 179.805 61.5829C178.318 66.9014 174.745 72.2209 165.352 68.8795Z" fill="url(#paint2_linear_694_2538)"/>
</g>
<g filter="url(#filter3_f_694_2538)">
<path d="M79.6866 142.274C91.0037 150.157 100.36 156.327 94.5332 163.392C88.7065 170.456 74.8087 169.793 63.4915 161.91C52.1744 154.027 47.7235 141.909 53.5502 134.845C59.3769 127.78 68.3694 134.391 79.6866 142.274Z" fill="url(#paint3_linear_694_2538)"/>
</g>
<g filter="url(#filter4_f_694_2538)">
<path d="M157.964 140.237C146.777 148.1 137.522 154.25 143.44 161.435C149.359 168.62 163.226 168.071 174.413 160.208C185.601 152.345 189.873 140.147 183.955 132.962C178.037 125.777 169.152 132.375 157.964 140.237Z" fill="url(#paint4_linear_694_2538)"/>
</g>
<g filter="url(#filter5_f_694_2538)">
<path d="M185 102.786C185 137.167 150.471 155 113.468 155C76.4652 155 51 137.167 51 102.786C51 68.4061 80.4789 49 117.482 49C154.485 49 185 68.4061 185 102.786Z" fill="white"/>
</g>
<g filter="url(#filter6_if_694_2538)">
<ellipse cx="90.2064" cy="103.208" rx="6.5" ry="9" fill="#471BB2"/>
</g>
<g filter="url(#filter7_if_694_2538)">
<path d="M145.706 103.208C145.706 108.178 142.796 112.208 139.206 112.208C135.617 112.208 132.706 108.178 132.706 103.208C132.706 98.237 135.617 94.2076 139.206 94.2076C142.796 94.2076 145.706 98.237 145.706 103.208Z" fill="#471BB2"/>
</g>
<circle cx="87.7064" cy="97.8609" r="1" fill="#D9D9D9"/>
<circle cx="136.706" cy="97.8609" r="1" fill="#D9D9D9"/>
<g filter="url(#filter8_f_694_2538)">
<path d="M193.206 102.987C193.206 141.1 154.683 160.869 113.4 160.869C72.117 160.869 43.7062 141.1 43.7062 102.987C43.7062 64.8745 76.5949 43.3616 117.878 43.3616C159.161 43.3616 193.206 64.8745 193.206 102.987Z" fill="url(#paint5_radial_694_2538)"/>
</g>
<g filter="url(#filter9_f_694_2538)">
<path d="M63.0875 71.5489C71.5676 70.2237 82.4884 62.5006 81.5561 57.1467C80.6238 51.7928 63.5418 41.1871 55.0617 42.5123C46.5816 43.8376 49.9147 56.592 50.8469 61.9459C51.7792 67.2998 55.3924 80.2167 63.0875 71.5489Z" fill="url(#paint6_linear_694_2538)"/>
</g>
<g filter="url(#filter10_f_694_2538)">
<path d="M165.352 68.8795C151.752 58.9844 144.044 59.5925 145.531 54.2741C147.019 48.9556 168.105 37.9626 176.359 40.4264C184.612 42.8902 181.293 56.2645 179.805 61.5829C178.318 66.9014 174.745 72.2209 165.352 68.8795Z" fill="url(#paint7_linear_694_2538)"/>
</g>
<g filter="url(#filter11_f_694_2538)">
<path d="M79.6866 142.274C91.0037 150.157 100.36 156.327 94.5332 163.392C88.7065 170.456 74.8087 169.793 63.4915 161.91C52.1744 154.027 47.7235 141.909 53.5502 134.845C59.3769 127.78 68.3694 134.391 79.6866 142.274Z" fill="url(#paint8_linear_694_2538)"/>
</g>
<g filter="url(#filter12_f_694_2538)">
<path d="M157.964 140.237C146.777 148.1 137.522 154.25 143.44 161.435C149.359 168.62 163.226 168.071 174.413 160.208C185.601 152.345 189.873 140.147 183.955 132.962C178.037 125.777 169.152 132.375 157.964 140.237Z" fill="url(#paint9_linear_694_2538)"/>
</g>
<g filter="url(#filter13_f_694_2538)">
<path d="M184 103.786C184 138.167 149.471 156 112.468 156C75.4652 156 50 138.167 50 103.786C50 69.4061 79.4789 50 116.482 50C153.485 50 184 69.4061 184 103.786Z" fill="white"/>
</g>
<g filter="url(#filter14_if_694_2538)">
<ellipse cx="90.2064" cy="103.208" rx="6.5" ry="9" fill="#471BB2"/>
</g>
<g filter="url(#filter15_if_694_2538)">
<path d="M145.706 103.208C145.706 108.178 142.796 112.208 139.206 112.208C135.617 112.208 132.706 108.178 132.706 103.208C132.706 98.237 135.617 94.2076 139.206 94.2076C142.796 94.2076 145.706 98.237 145.706 103.208Z" fill="#471BB2"/>
</g>
<circle cx="87.7064" cy="97.8609" r="1" fill="#D9D9D9"/>
<circle cx="136.706" cy="97.8609" r="1" fill="#D9D9D9"/>
<defs>
<filter id="filter0_f_694_2538" x="42.7062" y="42.3616" width="151.5" height="119.508" filterUnits="userSpaceOnUse" color-interpolation-filters="sRGB">
<feFlood flood-opacity="0" result="BackgroundImageFix"/>
<feBlend mode="normal" in="SourceGraphic" in2="BackgroundImageFix" result="shape"/>
<feGaussianBlur stdDeviation="0.5" result="effect1_foregroundBlur_694_2538"/>
</filter>
<filter id="filter1_f_694_2538" x="48.4167" y="41.3988" width="34.1953" height="34.064" filterUnits="userSpaceOnUse" color-interpolation-filters="sRGB">
<feFlood flood-opacity="0" result="BackgroundImageFix"/>
<feBlend mode="normal" in="SourceGraphic" in2="BackgroundImageFix" result="shape"/>
<feGaussianBlur stdDeviation="0.5" result="effect1_foregroundBlur_694_2538"/>
</filter>
<filter id="filter2_f_694_2538" x="144.349" y="39.0717" width="38.3857" height="31.848" filterUnits="userSpaceOnUse" color-interpolation-filters="sRGB">
<feFlood flood-opacity="0" result="BackgroundImageFix"/>
<feBlend mode="normal" in="SourceGraphic" in2="BackgroundImageFix" result="shape"/>
<feGaussianBlur stdDeviation="0.5" result="effect1_foregroundBlur_694_2538"/>
</filter>
<filter id="filter3_f_694_2538" x="49.9889" y="130.844" width="47.329" height="38.4409" filterUnits="userSpaceOnUse" color-interpolation-filters="sRGB">
<feFlood flood-opacity="0" result="BackgroundImageFix"/>
<feBlend mode="normal" in="SourceGraphic" in2="BackgroundImageFix" result="shape"/>
<feGaussianBlur stdDeviation="0.5" result="effect1_foregroundBlur_694_2538"/>
</filter>
<filter id="filter4_f_694_2538" x="140.596" y="128.878" width="47.0233" height="38.6055" filterUnits="userSpaceOnUse" color-interpolation-filters="sRGB">
<feFlood flood-opacity="0" result="BackgroundImageFix"/>
<feBlend mode="normal" in="SourceGraphic" in2="BackgroundImageFix" result="shape"/>
<feGaussianBlur stdDeviation="0.5" result="effect1_foregroundBlur_694_2538"/>
</filter>
<filter id="filter5_f_694_2538" x="6" y="4" width="224" height="196" filterUnits="userSpaceOnUse" color-interpolation-filters="sRGB">
<feFlood flood-opacity="0" result="BackgroundImageFix"/>
<feBlend mode="normal" in="SourceGraphic" in2="BackgroundImageFix" result="shape"/>
<feGaussianBlur stdDeviation="22.5" result="effect1_foregroundBlur_694_2538"/>
</filter>
<filter id="filter6_if_694_2538" x="82.7064" y="93.2076" width="15" height="23" filterUnits="userSpaceOnUse" color-interpolation-filters="sRGB">
<feFlood flood-opacity="0" result="BackgroundImageFix"/>
<feBlend mode="normal" in="SourceGraphic" in2="BackgroundImageFix" result="shape"/>
<feColorMatrix in="SourceAlpha" type="matrix" values="0 0 0 0 0 0 0 0 0 0 0 0 0 0 0 0 0 0 127 0" result="hardAlpha"/>
<feOffset dy="6"/>
<feGaussianBlur stdDeviation="2"/>
<feComposite in2="hardAlpha" operator="arithmetic" k2="-1" k3="1"/>
<feColorMatrix type="matrix" values="0 0 0 0 0 0 0 0 0 0 0 0 0 0 0 0 0 0 1 0"/>
<feBlend mode="normal" in2="shape" result="effect1_innerShadow_694_2538"/>
<feGaussianBlur stdDeviation="0.5" result="effect2_foregroundBlur_694_2538"/>
</filter>
<filter id="filter7_if_694_2538" x="131.706" y="93.2076" width="15" height="23" filterUnits="userSpaceOnUse" color-interpolation-filters="sRGB">
<feFlood flood-opacity="0" result="BackgroundImageFix"/>
<feBlend mode="normal" in="SourceGraphic" in2="BackgroundImageFix" result="shape"/>
<feColorMatrix in="SourceAlpha" type="matrix" values="0 0 0 0 0 0 0 0 0 0 0 0 0 0 0 0 0 0 127 0" result="hardAlpha"/>
<feOffset dy="6"/>
<feGaussianBlur stdDeviation="2"/>
<feComposite in2="hardAlpha" operator="arithmetic" k2="-1" k3="1"/>
<feColorMatrix type="matrix" values="0 0 0 0 0 0 0 0 0 0 0 0 0 0 0 0 0 0 1 0"/>
<feBlend mode="normal" in2="shape" result="effect1_innerShadow_694_2538"/>
<feGaussianBlur stdDeviation="0.5" result="effect2_foregroundBlur_694_2538"/>
</filter>
<filter id="filter8_f_694_2538" x="42.7062" y="42.3616" width="151.5" height="119.508" filterUnits="userSpaceOnUse" color-interpolation-filters="sRGB">
<feFlood flood-opacity="0" result="BackgroundImageFix"/>
<feBlend mode="normal" in="SourceGraphic" in2="BackgroundImageFix" result="shape"/>
<feGaussianBlur stdDeviation="0.5" result="effect1_foregroundBlur_694_2538"/>
</filter>
<filter id="filter9_f_694_2538" x="48.4167" y="41.3988" width="34.1953" height="34.064" filterUnits="userSpaceOnUse" color-interpolation-filters="sRGB">
<feFlood flood-opacity="0" result="BackgroundImageFix"/>
<feBlend mode="normal" in="SourceGraphic" in2="BackgroundImageFix" result="shape"/>
<feGaussianBlur stdDeviation="0.5" result="effect1_foregroundBlur_694_2538"/>
</filter>
<filter id="filter10_f_694_2538" x="144.349" y="39.0717" width="38.3857" height="31.848" filterUnits="userSpaceOnUse" color-interpolation-filters="sRGB">
<feFlood flood-opacity="0" result="BackgroundImageFix"/>
<feBlend mode="normal" in="SourceGraphic" in2="BackgroundImageFix" result="shape"/>
<feGaussianBlur stdDeviation="0.5" result="effect1_foregroundBlur_694_2538"/>
</filter>
<filter id="filter11_f_694_2538" x="49.9889" y="130.844" width="47.329" height="38.4409" filterUnits="userSpaceOnUse" color-interpolation-filters="sRGB">
<feFlood flood-opacity="0" result="BackgroundImageFix"/>
<feBlend mode="normal" in="SourceGraphic" in2="BackgroundImageFix" result="shape"/>
<feGaussianBlur stdDeviation="0.5" result="effect1_foregroundBlur_694_2538"/>
</filter>
<filter id="filter12_f_694_2538" x="140.596" y="128.878" width="47.0233" height="38.6055" filterUnits="userSpaceOnUse" color-interpolation-filters="sRGB">
<feFlood flood-opacity="0" result="BackgroundImageFix"/>
<feBlend mode="normal" in="SourceGraphic" in2="BackgroundImageFix" result="shape"/>
<feGaussianBlur stdDeviation="0.5" result="effect1_foregroundBlur_694_2538"/>
</filter>
<filter id="filter13_f_694_2538" x="0" y="0" width="234" height="206" filterUnits="userSpaceOnUse" color-interpolation-filters="sRGB">
<feFlood flood-opacity="0" result="BackgroundImageFix"/>
<feBlend mode="normal" in="SourceGraphic" in2="BackgroundImageFix" result="shape"/>
<feGaussianBlur stdDeviation="25" result="effect1_foregroundBlur_694_2538"/>
</filter>
<filter id="filter14_if_694_2538" x="82.7064" y="93.2076" width="15" height="23" filterUnits="userSpaceOnUse" color-interpolation-filters="sRGB">
<feFlood flood-opacity="0" result="BackgroundImageFix"/>
<feBlend mode="normal" in="SourceGraphic" in2="BackgroundImageFix" result="shape"/>
<feColorMatrix in="SourceAlpha" type="matrix" values="0 0 0 0 0 0 0 0 0 0 0 0 0 0 0 0 0 0 127 0" result="hardAlpha"/>
<feOffset dy="6"/>
<feGaussianBlur stdDeviation="2"/>
<feComposite in2="hardAlpha" operator="arithmetic" k2="-1" k3="1"/>
<feColorMatrix type="matrix" values="0 0 0 0 0 0 0 0 0 0 0 0 0 0 0 0 0 0 1 0"/>
<feBlend mode="normal" in2="shape" result="effect1_innerShadow_694_2538"/>
<feGaussianBlur stdDeviation="0.5" result="effect2_foregroundBlur_694_2538"/>
</filter>
<filter id="filter15_if_694_2538" x="131.706" y="93.2076" width="15" height="23" filterUnits="userSpaceOnUse" color-interpolation-filters="sRGB">
<feFlood flood-opacity="0" result="BackgroundImageFix"/>
<feBlend mode="normal" in="SourceGraphic" in2="BackgroundImageFix" result="shape"/>
<feColorMatrix in="SourceAlpha" type="matrix" values="0 0 0 0 0 0 0 0 0 0 0 0 0 0 0 0 0 0 127 0" result="hardAlpha"/>
<feOffset dy="6"/>
<feGaussianBlur stdDeviation="2"/>
<feComposite in2="hardAlpha" operator="arithmetic" k2="-1" k3="1"/>
<feColorMatrix type="matrix" values="0 0 0 0 0 0 0 0 0 0 0 0 0 0 0 0 0 0 1 0"/>
<feBlend mode="normal" in2="shape" result="effect1_innerShadow_694_2538"/>
<feGaussianBlur stdDeviation="0.5" result="effect2_foregroundBlur_694_2538"/>
</filter>
<radialGradient id="paint0_radial_694_2538" cx="0" cy="0" r="1" gradientUnits="userSpaceOnUse" gradientTransform="translate(115.206 118.708) rotate(161.178) scale(64.4462 69.7559)">
<stop stop-color="#FFCAC8"/>
<stop offset="1" stop-color="#FDEAEC"/>
</radialGradient>
<linearGradient id="paint1_linear_694_2538" x1="46.4535" y1="42.552" x2="57.9577" y2="63.2342" gradientUnits="userSpaceOnUse">
<stop stop-color="#FFD2D9"/>
<stop offset="1" stop-color="#FEEBED"/>
</linearGradient>
<linearGradient id="paint2_linear_694_2538" x1="184.874" y1="41.6005" x2="170.644" y2="60.609" gradientUnits="userSpaceOnUse">
<stop stop-color="#FFCAD7"/>
<stop offset="1" stop-color="#FCECEE"/>
</linearGradient>
<linearGradient id="paint3_linear_694_2538" x1="51.0978" y1="137.818" x2="89.5014" y2="169.493" gradientUnits="userSpaceOnUse">
<stop stop-color="#FDEAEC"/>
<stop offset="1" stop-color="#FFCAD7"/>
</linearGradient>
<linearGradient id="paint4_linear_694_2538" x1="186.446" y1="135.986" x2="148.335" y2="167.377" gradientUnits="userSpaceOnUse">
<stop stop-color="#FEEBED"/>
<stop offset="1" stop-color="#FFD2D9"/>
</linearGradient>
<radialGradient id="paint5_radial_694_2538" cx="0" cy="0" r="1" gradientUnits="userSpaceOnUse" gradientTransform="translate(115.206 118.708) rotate(161.178) scale(64.4462 69.7559)">
<stop stop-color="#D2D8FA"/>
<stop offset="1" stop-color="#DFF7FF"/>
</radialGradient>
<linearGradient id="paint6_linear_694_2538" x1="48" y1="39" x2="54.9089" y2="57.2997" gradientUnits="userSpaceOnUse">
<stop stop-color="#D2D8FA"/>
<stop offset="1" stop-color="#E2F7FE"/>
</linearGradient>
<linearGradient id="paint7_linear_694_2538" x1="181.5" y1="38.5" x2="172.69" y2="55.6639" gradientUnits="userSpaceOnUse">
<stop stop-color="#D2D8FA"/>
<stop offset="1" stop-color="#E1F8FF"/>
</linearGradient>
<linearGradient id="paint8_linear_694_2538" x1="51.0978" y1="137.818" x2="89.5014" y2="169.493" gradientUnits="userSpaceOnUse">
<stop stop-color="#DFF7FF"/>
<stop offset="1" stop-color="#D2D8FA"/>
</linearGradient>
<linearGradient id="paint9_linear_694_2538" x1="169" y1="150" x2="156.758" y2="166.437" gradientUnits="userSpaceOnUse">
<stop stop-color="#E2F7FE"/>
<stop offset="1" stop-color="#D2D8FA"/>
</linearGradient>
</defs>
</svg>
