<svg width="3511" height="322" viewBox="0 0 3511 322" fill="none" xmlns="http://www.w3.org/2000/svg">
<path d="M87.5 248C91.1667 248.667 95.6667 249.333 101 250C106.333 250.333 111.333 250.5 116 250.5C127.333 250.5 137.667 248.833 147 245.5C156.667 242.167 164.833 237 171.5 230C178.5 223 183.833 214 187.5 203C191.5 191.667 193.5 178.167 193.5 162.5C193.5 132.5 186.5 110 172.5 95C158.5 79.6667 139.833 72 116.5 72C111.833 72 107 72.1667 102 72.5C97.3333 72.8333 92.5 73.3333 87.5 74L87.5 248ZM115.5 321C109.833 321 103.333 320.833 96 320.5C88.6667 320.167 81 319.5 73 318.5C65.3333 317.5 57.5 316.167 49.5 314.5C41.8333 313.167 34.6667 311.167 28 308.5C9.66667 301.5 0.500003 289.333 0.500003 272L0.500003 38.5C0.500003 31.5 2.33334 26.1666 6 22.5C10 18.5 15.3333 15.3333 22 13C36.3333 8.33332 51.5 5.33332 67.5 3.99998C83.5 2.33332 97.8333 1.49999 110.5 1.49999C136.5 1.49999 160 4.66665 181 11C202.333 17.3333 220.5 27.1667 235.5 40.5C250.833 53.5 262.667 70 271 90C279.333 110 283.5 133.667 283.5 161C283.5 187.667 279.5 211 271.5 231C263.5 250.667 252 267.333 237 281C222.333 294.333 204.667 304.333 184 311C163.333 317.667 140.5 321 115.5 321ZM328.508 161C328.508 135 332.508 112 340.508 92C348.841 72 360.008 55.3333 374.008 42C388.341 28.3333 405.008 18 424.008 11C443.341 3.99999 464.174 0.5 486.508 0.5C508.841 0.5 529.508 3.99999 548.508 11C567.841 18 584.675 28.3333 599.008 42C613.341 55.3333 624.508 72 632.508 92C640.841 112 645.008 135 645.008 161C645.008 187 641.008 210.167 633.008 230.5C625.008 250.5 613.841 267.333 599.508 281C585.508 294.333 568.841 304.5 549.508 311.5C530.174 318.5 509.174 322 486.508 322C463.841 322 442.841 318.5 423.508 311.5C404.174 304.167 387.508 293.667 373.508 280C359.508 266.333 348.508 249.5 340.508 229.5C332.508 209.5 328.508 186.667 328.508 161ZM418.508 161C418.508 191.333 424.674 214 437.008 229C449.341 244 465.841 251.5 486.508 251.5C507.508 251.5 524.174 244 536.508 229C548.841 214 555.008 191.333 555.008 161C555.008 131 548.841 108.5 536.508 93.5C524.508 78.5 508.008 71 487.008 71C466.341 71 449.674 78.5 437.008 93.5C424.674 108.167 418.508 130.667 418.508 161ZM973.57 201C973.57 219 970.404 235.5 964.07 250.5C958.07 265.167 949.237 277.833 937.57 288.5C925.904 298.833 911.737 306.833 895.07 312.5C878.404 318.167 859.57 321 838.57 321C817.57 321 798.737 318.167 782.07 312.5C765.404 306.833 751.237 298.833 739.57 288.5C727.904 277.833 718.904 265.167 712.57 250.5C706.57 235.5 703.57 219 703.57 201L703.57 10C707.237 9.33332 713.07 8.49999 721.07 7.5C729.07 6.16666 736.737 5.5 744.07 5.5C751.737 5.5 758.404 6.16666 764.07 7.5C770.07 8.49999 775.07 10.5 779.07 13.5C783.07 16.5 786.07 20.6667 788.07 26C790.07 31.3333 791.07 38.3333 791.07 47L791.07 199.5C791.07 215.5 795.404 228 804.07 237C813.07 246 824.57 250.5 838.57 250.5C852.904 250.5 864.404 246 873.07 237C881.737 228 886.07 215.5 886.07 199.5L886.07 10C889.737 9.33332 895.57 8.49999 903.57 7.5C911.57 6.16666 919.237 5.49999 926.57 5.49999C934.237 5.49999 940.904 6.16666 946.57 7.5C952.57 8.49999 957.57 10.5 961.57 13.5C965.57 16.5 968.57 20.6667 970.57 26C972.57 31.3333 973.57 38.3333 973.57 47L973.57 201ZM1132.1 250.5C1136.77 251.833 1142.77 252.833 1150.1 253.5C1157.43 253.833 1164.43 254 1171.1 254C1184.43 254 1195.43 251.333 1204.1 246C1213.1 240.333 1217.6 231.667 1217.6 220C1217.6 209 1213.93 201.167 1206.6 196.5C1199.27 191.833 1188.1 189.5 1173.1 189.5L1132.1 189.5L1132.1 250.5ZM1132.1 128.5L1168.6 128.5C1182.93 128.5 1193.27 125.833 1199.6 120.5C1206.27 115.167 1209.6 107.333 1209.6 97C1209.6 88 1205.77 80.8333 1198.1 75.5C1190.77 70.1667 1179.6 67.5 1164.6 67.5C1159.6 67.5 1153.77 67.6667 1147.1 68C1140.77 68.3333 1135.77 68.8333 1132.1 69.5L1132.1 128.5ZM1164.6 321C1158.93 321 1152.27 320.833 1144.6 320.5C1136.93 320.167 1128.93 319.5 1120.6 318.5C1112.6 317.5 1104.6 316.167 1096.6 314.5C1088.6 313.167 1081.27 311.167 1074.6 308.5C1056.27 301.5 1047.1 289.333 1047.1 272L1047.1 38.5C1047.1 31.5 1048.93 26.1666 1052.6 22.5C1056.6 18.5 1061.93 15.3333 1068.6 13C1079.93 8.99998 1094.1 6.16664 1111.1 4.49998C1128.1 2.49998 1145.6 1.49999 1163.6 1.49999C1206.27 1.49999 1239.1 8.66665 1262.1 23C1285.1 37.3333 1296.6 59.5 1296.6 89.5C1296.6 104.5 1292.27 117.5 1283.6 128.5C1274.93 139.167 1263.27 147 1248.6 152C1265.27 156.667 1279.1 165.167 1290.1 177.5C1301.43 189.833 1307.1 205.333 1307.1 224C1307.1 257 1294.77 281.5 1270.1 297.5C1245.77 313.167 1210.6 321 1164.6 321ZM1413.17 314.5C1398.84 314.5 1387.51 310.333 1379.17 302C1370.84 293.667 1366.67 282.333 1366.67 268L1366.67 9.49997C1370.34 8.83332 1376.17 7.99998 1384.17 6.99998C1392.17 5.66664 1399.84 4.99997 1407.17 4.99997C1414.84 4.99997 1421.51 5.66664 1427.17 6.99998C1433.17 7.99998 1438.17 9.99999 1442.17 13C1446.17 16 1449.17 20.1667 1451.17 25.5C1453.17 30.8333 1454.17 37.8333 1454.17 46.5L1454.17 244L1568.67 244C1571.01 247.667 1573.17 252.667 1575.17 259C1577.17 265 1578.17 271.333 1578.17 278C1578.17 291.333 1575.34 300.833 1569.67 306.5C1564.01 311.833 1556.51 314.5 1547.17 314.5L1413.17 314.5ZM1633.02 56.5C1633.02 42.1666 1637.19 30.8333 1645.52 22.5C1653.85 14.1667 1665.19 10 1679.52 10L1844.52 10C1846.85 13.6667 1848.85 18.5 1850.52 24.5C1852.52 30.5 1853.52 36.8333 1853.52 43.5C1853.52 56.1666 1850.69 65.1666 1845.02 70.5C1839.69 75.8333 1832.52 78.5 1823.52 78.5L1718.02 78.5L1718.02 125L1830.52 125C1832.85 128.667 1834.85 133.5 1836.52 139.5C1838.52 145.167 1839.52 151.333 1839.52 158C1839.52 170.667 1836.85 179.667 1831.52 185C1826.19 190.333 1819.02 193 1810.02 193L1718.02 193L1718.02 245.5L1846.52 245.5C1848.85 249.167 1850.85 254 1852.52 260C1854.52 266 1855.52 272.333 1855.52 279C1855.52 291.667 1852.69 300.833 1847.02 306.5C1841.69 311.833 1834.52 314.5 1825.52 314.5L1679.52 314.5C1665.19 314.5 1653.85 310.333 1645.52 302C1637.19 293.667 1633.02 282.333 1633.02 268L1633.02 56.5ZM2181.54 71C2155.88 71 2136.21 78.8333 2122.54 94.5C2108.88 110.167 2102.04 132.333 2102.04 161C2102.04 190 2109.54 212.333 2124.54 228C2139.88 243.667 2160.38 251.5 2186.04 251.5C2199.71 251.5 2211.21 249.667 2220.54 246C2230.21 242.333 2239.38 238.167 2248.04 233.5C2253.71 238.167 2258.04 243.833 2261.04 250.5C2264.38 256.833 2266.04 264.333 2266.04 273C2266.04 286.667 2258.38 298.333 2243.04 308C2228.04 317.333 2205.04 322 2174.04 322C2151.71 322 2130.71 318.833 2111.04 312.5C2091.38 306.167 2074.21 296.5 2059.54 283.5C2044.88 270.167 2033.21 253.5 2024.54 233.5C2016.21 213.167 2012.04 189 2012.04 161C2012.04 135 2016.04 112.167 2024.04 92.5C2032.38 72.5 2043.54 55.6666 2057.54 42C2071.88 28.3333 2088.54 18 2107.54 11C2126.54 3.99999 2146.88 0.499999 2168.54 0.499999C2199.21 0.499999 2222.88 5.49999 2239.54 15.5C2256.54 25.5 2265.04 38.3333 2265.04 54C2265.04 62.6667 2262.88 70.1667 2258.54 76.5C2254.21 82.8333 2249.21 87.8333 2243.54 91.5C2234.88 85.8333 2225.54 81 2215.54 77C2205.88 73 2194.54 71 2181.54 71ZM2593.69 311C2590.02 312 2584.19 313 2576.19 314C2568.52 315 2560.85 315.5 2553.19 315.5C2545.52 315.5 2538.69 314.833 2532.69 313.5C2527.02 312.5 2522.19 310.5 2518.19 307.5C2514.19 304.5 2511.19 300.333 2509.19 295C2507.19 289.667 2506.19 282.667 2506.19 274L2506.19 196L2410.19 196L2410.19 311C2406.52 312 2400.69 313 2392.69 314C2385.02 315 2377.35 315.5 2369.69 315.5C2362.02 315.5 2355.19 314.833 2349.19 313.5C2343.52 312.5 2338.69 310.5 2334.69 307.5C2330.69 304.5 2327.69 300.333 2325.69 295C2323.69 289.667 2322.69 282.667 2322.69 274L2322.69 10C2326.35 9.33332 2332.19 8.49999 2340.19 7.5C2348.19 6.16666 2355.85 5.49999 2363.19 5.49999C2370.85 5.49999 2377.52 6.16666 2383.19 7.5C2389.19 8.49999 2394.19 10.5 2398.19 13.5C2402.19 16.5 2405.19 20.6667 2407.19 26C2409.19 31.3333 2410.19 38.3333 2410.19 47L2410.19 127L2506.19 127L2506.19 10C2509.85 9.33332 2515.69 8.49999 2523.69 7.5C2531.69 6.16666 2539.35 5.49999 2546.69 5.49999C2554.35 5.49999 2561.02 6.16666 2566.69 7.5C2572.69 8.49999 2577.69 10.5 2581.69 13.5C2585.69 16.5 2588.69 20.6667 2590.69 26C2592.69 31.3333 2593.69 38.3333 2593.69 47L2593.69 311ZM2668.63 56.5C2668.63 42.1666 2672.79 30.8333 2681.13 22.5C2689.46 14.1667 2700.79 10 2715.13 10L2880.13 10C2882.46 13.6667 2884.46 18.5 2886.13 24.5C2888.13 30.5 2889.13 36.8333 2889.13 43.5C2889.13 56.1666 2886.29 65.1666 2880.63 70.5C2875.29 75.8333 2868.13 78.5 2859.13 78.5L2753.63 78.5L2753.63 125L2866.13 125C2868.46 128.667 2870.46 133.5 2872.13 139.5C2874.13 145.167 2875.13 151.333 2875.13 158C2875.13 170.667 2872.46 179.667 2867.13 185C2861.79 190.333 2854.63 193 2845.63 193L2753.63 193L2753.63 245.5L2882.13 245.5C2884.46 249.167 2886.46 254 2888.13 260C2890.13 266 2891.13 272.333 2891.13 279C2891.13 291.667 2888.29 300.833 2882.63 306.5C2877.29 311.833 2870.13 314.5 2861.13 314.5L2715.13 314.5C2700.79 314.5 2689.46 310.333 2681.13 302C2672.79 293.667 2668.63 282.333 2668.63 268L2668.63 56.5ZM3104.12 71C3078.45 71 3058.79 78.8333 3045.12 94.5C3031.45 110.167 3024.62 132.333 3024.62 161C3024.62 190 3032.12 212.333 3047.12 228C3062.45 243.667 3082.95 251.5 3108.62 251.5C3122.29 251.5 3133.79 249.667 3143.12 246C3152.79 242.333 3161.95 238.167 3170.62 233.5C3176.29 238.167 3180.62 243.833 3183.62 250.5C3186.95 256.833 3188.62 264.333 3188.62 273C3188.62 286.667 3180.95 298.333 3165.62 308C3150.62 317.333 3127.62 322 3096.62 322C3074.29 322 3053.29 318.833 3033.62 312.5C3013.95 306.167 2996.79 296.5 2982.12 283.5C2967.45 270.167 2955.79 253.5 2947.12 233.5C2938.79 213.167 2934.62 189 2934.62 161C2934.62 135 2938.62 112.167 2946.62 92.5C2954.95 72.5 2966.12 55.6666 2980.12 42C2994.45 28.3333 3011.12 18 3030.12 11C3049.12 3.99999 3069.45 0.499999 3091.12 0.499999C3121.79 0.499999 3145.45 5.49999 3162.12 15.5C3179.12 25.5 3187.62 38.3333 3187.62 54C3187.62 62.6667 3185.45 70.1667 3181.12 76.5C3176.79 82.8333 3171.79 87.8333 3166.12 91.5C3157.45 85.8333 3148.12 81 3138.12 77C3128.45 73 3117.12 71 3104.12 71ZM3333.27 200.5L3333.27 311C3329.6 312 3323.77 313 3315.77 314C3307.77 315 3299.93 315.5 3292.27 315.5C3284.6 315.5 3277.77 314.833 3271.77 313.5C3266.1 312.5 3261.27 310.5 3257.27 307.5C3253.27 304.5 3250.27 300.333 3248.27 295C3246.27 289.667 3245.27 282.667 3245.27 274L3245.27 10C3248.93 9.33332 3254.77 8.49999 3262.77 7.5C3270.77 6.16666 3278.43 5.49999 3285.77 5.49999C3293.43 5.49999 3300.1 6.16666 3305.77 7.5C3311.77 8.49999 3316.77 10.5 3320.77 13.5C3324.77 16.5 3327.77 20.6667 3329.77 26C3331.77 31.3333 3332.77 38.3333 3332.77 47L3332.77 126.5L3436.77 6.99997C3459.43 6.99997 3475.6 11.3333 3485.27 20C3495.27 28.3333 3500.27 38.3333 3500.27 50C3500.27 58.6667 3498.1 66.8333 3493.77 74.5C3489.43 82.1667 3482.43 90.8333 3472.77 100.5L3410.27 163C3418.6 172.333 3427.27 182 3436.27 192C3445.6 202 3454.6 211.833 3463.27 221.5C3472.27 230.833 3480.77 239.833 3488.77 248.5C3497.1 257.167 3504.27 264.667 3510.27 271C3510.27 278.333 3508.93 284.833 3506.27 290.5C3503.6 296.167 3499.93 301 3495.27 305C3490.93 309 3485.93 312 3480.27 314C3474.6 316 3468.6 317 3462.27 317C3448.6 317 3437.43 313.667 3428.77 307C3420.1 300 3411.77 291.833 3403.77 282.5L3333.27 200.5Z" fill="#471BB2"/>
</svg>
