<svg width="247" height="115" viewBox="0 0 247 115" fill="none" xmlns="http://www.w3.org/2000/svg">
<path d="M61.5859 15.8857V28.9839H62.5073C64.7957 28.9839 66.2832 28.3757 66.9697 27.1592C67.6442 25.9427 67.9814 24.4131 67.9814 22.5703C67.9814 21.4622 67.8369 20.3662 67.5479 19.2822C67.2467 18.1982 66.7168 17.3612 65.958 16.771C65.2113 16.1808 63.8743 15.8857 61.9473 15.8857H61.5859ZM61.5859 35H49.897V28.9839H51.8662V15.8857H49.897V9.86963H61.9292C64.6753 9.86963 66.9155 10.0382 68.6499 10.3755C70.3963 10.7127 72.0404 11.4053 73.582 12.4531C75.1117 13.513 76.3161 14.9463 77.1953 16.7529C77.6289 17.6201 77.9601 18.5475 78.189 19.5352C78.4178 20.5228 78.5322 21.5586 78.5322 22.6426C78.5322 24.8226 78.0685 26.8099 77.1411 28.6045C76.2257 30.387 75.0635 31.7541 73.6543 32.7056C72.2812 33.6571 70.7757 34.2773 69.1377 34.5664C67.5117 34.8555 64.9945 35 61.5859 35ZM93.1299 22.3716C93.1299 25.1659 93.4009 27.0508 93.9429 28.0264C94.4608 29.014 95.2738 29.5078 96.3818 29.5078C97.4779 29.5078 98.2969 29.0321 98.8389 28.0806C99.3809 27.117 99.6519 25.214 99.6519 22.3716C99.6519 19.6134 99.3869 17.7345 98.8569 16.7349C98.339 15.7472 97.514 15.2534 96.3818 15.2534C95.2979 15.2534 94.4849 15.7292 93.9429 16.6807C93.4009 17.6322 93.1299 19.5291 93.1299 22.3716ZM82.2178 22.3716C82.2178 20.2759 82.7297 18.2464 83.7534 16.2832C84.7651 14.332 86.3369 12.688 88.4688 11.3511C89.2275 10.8813 90.0044 10.508 90.7993 10.231C91.6063 9.95394 92.4795 9.74316 93.4189 9.59863C94.3584 9.44206 95.346 9.36377 96.3818 9.36377C100.886 9.36377 104.373 10.6826 106.842 13.3203C108.071 14.6211 108.998 16.0303 109.625 17.5479C110.251 19.0654 110.564 20.6733 110.564 22.3716C110.564 25.8765 109.287 28.9237 106.734 31.5132C104.181 34.1027 100.73 35.3975 96.3818 35.3975C92.1784 35.3975 88.7699 34.181 86.1562 31.748C83.5306 29.3271 82.2178 26.2017 82.2178 22.3716ZM125.92 24.5396V29.4897H128.106C129.504 29.4897 130.509 29.3091 131.124 28.9478C131.726 28.5864 132.027 27.9481 132.027 27.0327C132.027 26.1776 131.756 25.5452 131.214 25.1357C130.672 24.7383 129.624 24.5396 128.07 24.5396H125.92ZM125.92 15.3799V19.9688H128.07C129.528 19.9688 130.485 19.758 130.943 19.3364C131.376 18.9149 131.593 18.3608 131.593 17.6743C131.593 17.0841 131.395 16.5542 130.997 16.0845C130.6 15.6147 129.51 15.3799 127.727 15.3799H125.92ZM128.233 35H114.015V28.9839H116.201V15.8857H114.015V9.86963H129.371C132.382 9.86963 134.713 10.0443 136.363 10.3936C137.989 10.7549 139.265 11.4715 140.193 12.5435C141.12 13.6395 141.584 14.9162 141.584 16.3735C141.584 17.7948 141.144 18.9269 140.265 19.77C139.362 20.6372 138.266 21.2394 136.977 21.5767C138.748 22.1066 140.109 22.9256 141.06 24.0337C142.024 25.1659 142.505 26.4365 142.505 27.8457C142.505 29.5319 141.963 30.9652 140.879 32.1455C139.795 33.3138 138.308 34.0786 136.417 34.4399C134.55 34.8133 131.822 35 128.233 35ZM169.244 35H145.324V28.9839H147.582V15.8857H145.324V9.86963H159.687V15.8857H157.302V28.9839H163.246V24.9551H169.244V35ZM195.494 35H171.52V28.9839H173.471V15.8857H171.484V9.86963H195.494V17.9092H188.9V15.8857H183.191V19.752H188.159V24.8647H183.191V28.9839H188.9V26.9604H195.494V35Z" fill="#F2F2F2"/>
<path d="M35.5933 82.7417L46.3457 86.5244C45.4323 90.9525 43.3374 94.5763 40.061 97.396C36.745 100.236 32.1779 101.655 26.3599 101.655C18.4172 101.655 12.5396 99.5802 8.72705 95.4302C4.89469 91.3 2.97852 86.2563 2.97852 80.2993C2.97852 74.3026 4.85498 69.2093 8.60791 65.0195C12.3608 60.8298 17.2357 58.7349 23.2324 58.7349C28.0973 58.7349 32.0588 59.9362 35.1167 62.3389V59.5688H45.0649V74.6997H34.7295C34.1934 72.8133 33.2899 71.3241 32.019 70.2319C30.7482 69.1597 29.2987 68.6235 27.6704 68.6235C23.1828 68.6235 20.939 72.4857 20.939 80.21C20.939 87.9541 23.2622 91.8262 27.9087 91.8262C31.9793 91.8262 34.5409 88.798 35.5933 82.7417ZM73.4502 101H51.6475V91.0815H54.7749V69.4873H51.5879V59.5688H73.4502V69.4873H70.7993V75.8018H80.3901V69.4873H77.7095V59.5688H99.542V69.4873H96.4146V91.0815H99.542V101H77.7095V91.0815H80.3901V84.2905H70.7993V91.0815H73.4502V101ZM123.281 70.083L119.379 81.5503H126.795L123.281 70.083ZM119.379 101H102.967V91.0815H106.125L113.898 69.4873H110.562V59.5688H140.348V69.4873H137.012L144.935 91.0815H147.973V101H126.349V91.9155H129.982L128.404 86.7031H117.8L115.983 91.9155H119.379V101ZM190.923 101H151.398V91.0815H154.615V69.4873H151.338V59.5688H190.923V72.8232H180.051V69.4873H170.639V75.8613H178.83V84.2905H170.639V91.0815H180.051V87.7456H190.923V101ZM245.4 101H223.955V91.0815H225.95L216.866 79.2866L227.41 69.4873H224.044V59.5688H244.447V69.4873H241.23L232.771 77.3506L243.345 91.0815H245.4V101ZM219.636 101H197.178V91.0815H200.335V69.4873H197.088V59.5688H219.636V69.4873H216.359V91.0815H219.636V101Z" fill="#F4F4F4"/>
</svg>
