<svg width="153" height="144" viewBox="0 0 153 144" fill="none" xmlns="http://www.w3.org/2000/svg">
<g filter="url(#filter0_f_688_2536)">
<path d="M151.206 69.9871C151.206 108.1 112.683 127.869 71.4002 127.869C30.117 127.869 1.70624 108.1 1.70624 69.9871C1.70624 31.8745 34.5949 10.3616 75.8782 10.3616C117.161 10.3616 151.206 31.8745 151.206 69.9871Z" fill="url(#paint0_radial_688_2536)"/>
</g>
<g filter="url(#filter1_f_688_2536)">
<path d="M21.0875 38.5489C29.5676 37.2237 40.4884 29.5006 39.5561 24.1467C38.6238 18.7928 21.5418 8.18707 13.0617 9.51234C4.58162 10.8376 7.91466 23.592 8.84695 28.9459C9.77924 34.2998 13.3924 47.2167 21.0875 38.5489Z" fill="url(#paint1_linear_688_2536)"/>
</g>
<g filter="url(#filter2_f_688_2536)">
<path d="M123.352 35.8795C109.752 25.9844 102.044 26.5925 103.531 21.2741C105.019 15.9556 126.105 4.96257 134.359 7.42639C142.612 9.89021 139.293 23.2645 137.805 28.5829C136.318 33.9014 132.745 39.2209 123.352 35.8795Z" fill="url(#paint2_linear_688_2536)"/>
</g>
<g filter="url(#filter3_f_688_2536)">
<path d="M37.6866 109.606C49.0037 117.489 58.3599 123.659 52.5332 130.723C46.7065 137.788 32.8087 137.125 21.4915 129.242C10.1744 121.359 5.72348 109.241 11.5502 102.177C17.3769 95.1119 26.3694 101.723 37.6866 109.606Z" fill="url(#paint3_linear_688_2536)"/>
</g>
<g filter="url(#filter4_f_688_2536)">
<path d="M115.964 107.237C104.777 115.1 95.5224 121.25 101.44 128.435C107.359 135.62 121.226 135.071 132.413 127.208C143.601 119.345 147.873 107.147 141.955 99.9616C136.037 92.7765 127.152 99.3747 115.964 107.237Z" fill="url(#paint4_linear_688_2536)"/>
</g>
<g filter="url(#filter5_f_688_2536)">
<path d="M151.206 69.9871C151.206 108.1 112.683 127.869 71.4002 127.869C30.117 127.869 1.70624 108.1 1.70624 69.9871C1.70624 31.8745 34.5949 10.3616 75.8782 10.3616C117.161 10.3616 151.206 31.8745 151.206 69.9871Z" fill="url(#paint5_radial_688_2536)"/>
</g>
<g filter="url(#filter6_f_688_2536)">
<path d="M21.0875 38.5489C29.5676 37.2237 40.4884 29.5006 39.5561 24.1467C38.6238 18.7928 21.5418 8.18707 13.0617 9.51234C4.58162 10.8376 7.91466 23.592 8.84695 28.9459C9.77924 34.2998 13.3924 47.2167 21.0875 38.5489Z" fill="url(#paint6_linear_688_2536)"/>
</g>
<g filter="url(#filter7_f_688_2536)">
<path d="M123.352 35.8795C109.752 25.9844 102.044 26.5925 103.531 21.2741C105.019 15.9556 126.105 4.96257 134.359 7.42639C142.612 9.89021 139.293 23.2645 137.805 28.5829C136.318 33.9014 132.745 39.2209 123.352 35.8795Z" fill="url(#paint7_linear_688_2536)"/>
</g>
<g filter="url(#filter8_f_688_2536)">
<path d="M37.6866 109.606C49.0037 117.489 58.3599 123.659 52.5332 130.723C46.7065 137.788 32.8087 137.125 21.4915 129.242C10.1744 121.359 5.72348 109.241 11.5502 102.177C17.3769 95.1119 26.3694 101.723 37.6866 109.606Z" fill="url(#paint8_linear_688_2536)"/>
</g>
<g filter="url(#filter9_f_688_2536)">
<path d="M115.964 107.237C104.777 115.1 95.5224 121.25 101.44 128.435C107.359 135.62 121.226 135.071 132.413 127.208C143.601 119.345 147.873 107.147 141.955 99.9616C136.037 92.7765 127.152 99.3747 115.964 107.237Z" fill="url(#paint9_linear_688_2536)"/>
</g>
<g filter="url(#filter10_if_688_2536)">
<ellipse cx="48.2064" cy="70.2076" rx="6.5" ry="9" fill="#471BB2"/>
</g>
<g filter="url(#filter11_if_688_2536)">
<ellipse cx="97.2064" cy="70.2076" rx="6.5" ry="9" fill="#471BB2"/>
</g>
<circle cx="45.7064" cy="64.8609" r="1" fill="#D9D9D9"/>
<circle cx="94.7064" cy="64.8609" r="1" fill="#D9D9D9"/>
<defs>
<filter id="filter0_f_688_2536" x="0.706238" y="9.36157" width="151.5" height="119.508" filterUnits="userSpaceOnUse" color-interpolation-filters="sRGB">
<feFlood flood-opacity="0" result="BackgroundImageFix"/>
<feBlend mode="normal" in="SourceGraphic" in2="BackgroundImageFix" result="shape"/>
<feGaussianBlur stdDeviation="0.5" result="effect1_foregroundBlur_688_2536"/>
</filter>
<filter id="filter1_f_688_2536" x="6.41675" y="8.3988" width="34.1953" height="34.064" filterUnits="userSpaceOnUse" color-interpolation-filters="sRGB">
<feFlood flood-opacity="0" result="BackgroundImageFix"/>
<feBlend mode="normal" in="SourceGraphic" in2="BackgroundImageFix" result="shape"/>
<feGaussianBlur stdDeviation="0.5" result="effect1_foregroundBlur_688_2536"/>
</filter>
<filter id="filter2_f_688_2536" x="102.349" y="6.07172" width="38.3857" height="31.848" filterUnits="userSpaceOnUse" color-interpolation-filters="sRGB">
<feFlood flood-opacity="0" result="BackgroundImageFix"/>
<feBlend mode="normal" in="SourceGraphic" in2="BackgroundImageFix" result="shape"/>
<feGaussianBlur stdDeviation="0.5" result="effect1_foregroundBlur_688_2536"/>
</filter>
<filter id="filter3_f_688_2536" x="7.98889" y="98.1758" width="47.3289" height="38.4409" filterUnits="userSpaceOnUse" color-interpolation-filters="sRGB">
<feFlood flood-opacity="0" result="BackgroundImageFix"/>
<feBlend mode="normal" in="SourceGraphic" in2="BackgroundImageFix" result="shape"/>
<feGaussianBlur stdDeviation="0.5" result="effect1_foregroundBlur_688_2536"/>
</filter>
<filter id="filter4_f_688_2536" x="98.5957" y="95.8784" width="47.0233" height="38.6055" filterUnits="userSpaceOnUse" color-interpolation-filters="sRGB">
<feFlood flood-opacity="0" result="BackgroundImageFix"/>
<feBlend mode="normal" in="SourceGraphic" in2="BackgroundImageFix" result="shape"/>
<feGaussianBlur stdDeviation="0.5" result="effect1_foregroundBlur_688_2536"/>
</filter>
<filter id="filter5_f_688_2536" x="0.706238" y="9.36157" width="151.5" height="119.508" filterUnits="userSpaceOnUse" color-interpolation-filters="sRGB">
<feFlood flood-opacity="0" result="BackgroundImageFix"/>
<feBlend mode="normal" in="SourceGraphic" in2="BackgroundImageFix" result="shape"/>
<feGaussianBlur stdDeviation="0.5" result="effect1_foregroundBlur_688_2536"/>
</filter>
<filter id="filter6_f_688_2536" x="6.41675" y="8.3988" width="34.1953" height="34.064" filterUnits="userSpaceOnUse" color-interpolation-filters="sRGB">
<feFlood flood-opacity="0" result="BackgroundImageFix"/>
<feBlend mode="normal" in="SourceGraphic" in2="BackgroundImageFix" result="shape"/>
<feGaussianBlur stdDeviation="0.5" result="effect1_foregroundBlur_688_2536"/>
</filter>
<filter id="filter7_f_688_2536" x="102.349" y="6.07172" width="38.3857" height="31.848" filterUnits="userSpaceOnUse" color-interpolation-filters="sRGB">
<feFlood flood-opacity="0" result="BackgroundImageFix"/>
<feBlend mode="normal" in="SourceGraphic" in2="BackgroundImageFix" result="shape"/>
<feGaussianBlur stdDeviation="0.5" result="effect1_foregroundBlur_688_2536"/>
</filter>
<filter id="filter8_f_688_2536" x="7.98889" y="98.1758" width="47.3289" height="38.4409" filterUnits="userSpaceOnUse" color-interpolation-filters="sRGB">
<feFlood flood-opacity="0" result="BackgroundImageFix"/>
<feBlend mode="normal" in="SourceGraphic" in2="BackgroundImageFix" result="shape"/>
<feGaussianBlur stdDeviation="0.5" result="effect1_foregroundBlur_688_2536"/>
</filter>
<filter id="filter9_f_688_2536" x="98.5957" y="95.8784" width="47.0233" height="38.6055" filterUnits="userSpaceOnUse" color-interpolation-filters="sRGB">
<feFlood flood-opacity="0" result="BackgroundImageFix"/>
<feBlend mode="normal" in="SourceGraphic" in2="BackgroundImageFix" result="shape"/>
<feGaussianBlur stdDeviation="0.5" result="effect1_foregroundBlur_688_2536"/>
</filter>
<filter id="filter10_if_688_2536" x="40.7064" y="60.2076" width="15" height="23" filterUnits="userSpaceOnUse" color-interpolation-filters="sRGB">
<feFlood flood-opacity="0" result="BackgroundImageFix"/>
<feBlend mode="normal" in="SourceGraphic" in2="BackgroundImageFix" result="shape"/>
<feColorMatrix in="SourceAlpha" type="matrix" values="0 0 0 0 0 0 0 0 0 0 0 0 0 0 0 0 0 0 127 0" result="hardAlpha"/>
<feOffset dy="4"/>
<feGaussianBlur stdDeviation="2"/>
<feComposite in2="hardAlpha" operator="arithmetic" k2="-1" k3="1"/>
<feColorMatrix type="matrix" values="0 0 0 0 0 0 0 0 0 0 0 0 0 0 0 0 0 0 1 0"/>
<feBlend mode="normal" in2="shape" result="effect1_innerShadow_688_2536"/>
<feGaussianBlur stdDeviation="0.5" result="effect2_foregroundBlur_688_2536"/>
</filter>
<filter id="filter11_if_688_2536" x="89.7064" y="60.2076" width="15" height="23" filterUnits="userSpaceOnUse" color-interpolation-filters="sRGB">
<feFlood flood-opacity="0" result="BackgroundImageFix"/>
<feBlend mode="normal" in="SourceGraphic" in2="BackgroundImageFix" result="shape"/>
<feColorMatrix in="SourceAlpha" type="matrix" values="0 0 0 0 0 0 0 0 0 0 0 0 0 0 0 0 0 0 127 0" result="hardAlpha"/>
<feOffset dy="4"/>
<feGaussianBlur stdDeviation="2"/>
<feComposite in2="hardAlpha" operator="arithmetic" k2="-1" k3="1"/>
<feColorMatrix type="matrix" values="0 0 0 0 0 0 0 0 0 0 0 0 0 0 0 0 0 0 1 0"/>
<feBlend mode="normal" in2="shape" result="effect1_innerShadow_688_2536"/>
<feGaussianBlur stdDeviation="0.5" result="effect2_foregroundBlur_688_2536"/>
</filter>
<radialGradient id="paint0_radial_688_2536" cx="0" cy="0" r="1" gradientUnits="userSpaceOnUse" gradientTransform="translate(73.2062 85.7076) rotate(161.178) scale(64.4462 69.7559)">
<stop stop-color="#B29AFF"/>
<stop offset="1" stop-color="#D2D8FA"/>
</radialGradient>
<linearGradient id="paint1_linear_688_2536" x1="4.45346" y1="9.55195" x2="15.9577" y2="30.2342" gradientUnits="userSpaceOnUse">
<stop stop-color="#B29AFF"/>
<stop offset="1" stop-color="#D2D8FA"/>
</linearGradient>
<linearGradient id="paint2_linear_688_2536" x1="142.874" y1="8.60047" x2="128.644" y2="27.609" gradientUnits="userSpaceOnUse">
<stop stop-color="#B29AFF"/>
<stop offset="1" stop-color="#D2D8FA"/>
</linearGradient>
<linearGradient id="paint3_linear_688_2536" x1="9.09784" y1="105.15" x2="47.5014" y2="136.824" gradientUnits="userSpaceOnUse">
<stop stop-color="#D2D8FA"/>
<stop offset="1" stop-color="#B29AFF"/>
</linearGradient>
<linearGradient id="paint4_linear_688_2536" x1="144.446" y1="102.986" x2="106.335" y2="134.377" gradientUnits="userSpaceOnUse">
<stop stop-color="#D2D8FA"/>
<stop offset="1" stop-color="#B29AFF"/>
</linearGradient>
<radialGradient id="paint5_radial_688_2536" cx="0" cy="0" r="1" gradientUnits="userSpaceOnUse" gradientTransform="translate(73.2062 85.7076) rotate(161.178) scale(64.4462 69.7559)">
<stop stop-color="#B29AFF"/>
<stop offset="1" stop-color="#D2D8FA"/>
</radialGradient>
<linearGradient id="paint6_linear_688_2536" x1="4.45346" y1="9.55195" x2="15.9577" y2="30.2342" gradientUnits="userSpaceOnUse">
<stop stop-color="#B29AFF"/>
<stop offset="1" stop-color="#D2D8FA"/>
</linearGradient>
<linearGradient id="paint7_linear_688_2536" x1="142.874" y1="8.60047" x2="128.644" y2="27.609" gradientUnits="userSpaceOnUse">
<stop stop-color="#B29AFF"/>
<stop offset="1" stop-color="#D2D8FA"/>
</linearGradient>
<linearGradient id="paint8_linear_688_2536" x1="9.09784" y1="105.15" x2="47.5014" y2="136.824" gradientUnits="userSpaceOnUse">
<stop stop-color="#D2D8FA"/>
<stop offset="1" stop-color="#B29AFF"/>
</linearGradient>
<linearGradient id="paint9_linear_688_2536" x1="144.446" y1="102.986" x2="106.335" y2="134.377" gradientUnits="userSpaceOnUse">
<stop stop-color="#D2D8FA"/>
<stop offset="1" stop-color="#B29AFF"/>
</linearGradient>
</defs>
</svg>
