<svg width="1917" height="1241" viewBox="0 0 1917 1241" fill="none" xmlns="http://www.w3.org/2000/svg">
<path d="M119.5 460C123.167 460.667 127.667 461.333 133 462C138.333 462.333 143.333 462.5 148 462.5C159.333 462.5 169.667 460.833 179 457.5C188.667 454.167 196.833 449 203.5 442C210.5 435 215.833 426 219.5 415C223.5 403.667 225.5 390.167 225.5 374.5C225.5 344.5 218.5 322 204.5 307C190.5 291.667 171.833 284 148.5 284C143.833 284 139 284.167 134 284.5C129.333 284.833 124.5 285.333 119.5 286L119.5 460ZM147.5 533C141.833 533 135.333 532.833 128 532.5C120.667 532.167 113 531.5 105 530.5C97.3333 529.5 89.5 528.167 81.5 526.5C73.8333 525.167 66.6667 523.167 60 520.5C41.6667 513.5 32.5 501.333 32.5 484L32.5 250.5C32.5 243.5 34.3333 238.167 38 234.5C42 230.5 47.3333 227.333 54 225C68.3333 220.333 83.5 217.333 99.5 216C115.5 214.333 129.833 213.5 142.5 213.5C168.5 213.5 192 216.667 213 223C234.333 229.333 252.5 239.167 267.5 252.5C282.833 265.5 294.667 282 303 302C311.333 322 315.5 345.667 315.5 373C315.5 399.667 311.5 423 303.5 443C295.5 462.667 284 479.333 269 493C254.333 506.333 236.667 516.333 216 523C195.333 529.667 172.5 533 147.5 533ZM360.508 373C360.508 347 364.508 324 372.508 304C380.841 284 392.008 267.333 406.008 254C420.341 240.333 437.008 230 456.008 223C475.341 216 496.174 212.5 518.508 212.5C540.841 212.5 561.508 216 580.508 223C599.841 230 616.675 240.333 631.008 254C645.341 267.333 656.508 284 664.508 304C672.841 324 677.008 347 677.008 373C677.008 399 673.008 422.167 665.008 442.5C657.008 462.5 645.841 479.333 631.508 493C617.508 506.333 600.841 516.5 581.508 523.5C562.174 530.5 541.174 534 518.508 534C495.841 534 474.841 530.5 455.508 523.5C436.174 516.167 419.508 505.667 405.508 492C391.508 478.333 380.508 461.5 372.508 441.5C364.508 421.5 360.508 398.667 360.508 373ZM450.508 373C450.508 403.333 456.674 426 469.008 441C481.341 456 497.841 463.5 518.508 463.5C539.508 463.5 556.174 456 568.508 441C580.841 426 587.008 403.333 587.008 373C587.008 343 580.841 320.5 568.508 305.5C556.508 290.5 540.008 283 519.008 283C498.341 283 481.674 290.5 469.008 305.5C456.674 320.167 450.508 342.667 450.508 373ZM1005.57 413C1005.57 431 1002.4 447.5 996.07 462.5C990.07 477.167 981.237 489.833 969.57 500.5C957.904 510.833 943.737 518.833 927.07 524.5C910.404 530.167 891.57 533 870.57 533C849.57 533 830.737 530.167 814.07 524.5C797.404 518.833 783.237 510.833 771.57 500.5C759.904 489.833 750.904 477.167 744.57 462.5C738.57 447.5 735.57 431 735.57 413L735.57 222C739.237 221.333 745.07 220.5 753.07 219.5C761.07 218.167 768.737 217.5 776.07 217.5C783.737 217.5 790.404 218.167 796.07 219.5C802.07 220.5 807.07 222.5 811.07 225.5C815.07 228.5 818.07 232.667 820.07 238C822.07 243.333 823.07 250.333 823.07 259L823.07 411.5C823.07 427.5 827.404 440 836.07 449C845.07 458 856.57 462.5 870.57 462.5C884.904 462.5 896.404 458 905.07 449C913.737 440 918.07 427.5 918.07 411.5L918.07 222C921.737 221.333 927.57 220.5 935.57 219.5C943.57 218.167 951.237 217.5 958.57 217.5C966.237 217.5 972.904 218.167 978.57 219.5C984.57 220.5 989.57 222.5 993.57 225.5C997.57 228.5 1000.57 232.667 1002.57 238C1004.57 243.333 1005.57 250.333 1005.57 259L1005.57 413ZM1164.1 462.5C1168.77 463.833 1174.77 464.833 1182.1 465.5C1189.43 465.833 1196.43 466 1203.1 466C1216.43 466 1227.43 463.333 1236.1 458C1245.1 452.333 1249.6 443.667 1249.6 432C1249.6 421 1245.93 413.167 1238.6 408.5C1231.27 403.833 1220.1 401.5 1205.1 401.5L1164.1 401.5L1164.1 462.5ZM1164.1 340.5L1200.6 340.5C1214.93 340.5 1225.27 337.833 1231.6 332.5C1238.27 327.167 1241.6 319.333 1241.6 309C1241.6 300 1237.77 292.833 1230.1 287.5C1222.77 282.167 1211.6 279.5 1196.6 279.5C1191.6 279.5 1185.77 279.667 1179.1 280C1172.77 280.333 1167.77 280.833 1164.1 281.5L1164.1 340.5ZM1196.6 533C1190.93 533 1184.27 532.833 1176.6 532.5C1168.93 532.167 1160.93 531.5 1152.6 530.5C1144.6 529.5 1136.6 528.167 1128.6 526.5C1120.6 525.167 1113.27 523.167 1106.6 520.5C1088.27 513.5 1079.1 501.333 1079.1 484L1079.1 250.5C1079.1 243.5 1080.93 238.167 1084.6 234.5C1088.6 230.5 1093.93 227.333 1100.6 225C1111.93 221 1126.1 218.167 1143.1 216.5C1160.1 214.5 1177.6 213.5 1195.6 213.5C1238.27 213.5 1271.1 220.667 1294.1 235C1317.1 249.333 1328.6 271.5 1328.6 301.5C1328.6 316.5 1324.27 329.5 1315.6 340.5C1306.93 351.167 1295.27 359 1280.6 364C1297.27 368.667 1311.1 377.167 1322.1 389.5C1333.43 401.833 1339.1 417.333 1339.1 436C1339.1 469 1326.77 493.5 1302.1 509.5C1277.77 525.167 1242.6 533 1196.6 533ZM1445.17 526.5C1430.84 526.5 1419.51 522.333 1411.17 514C1402.84 505.667 1398.67 494.333 1398.67 480L1398.67 221.5C1402.34 220.833 1408.17 220 1416.17 219C1424.17 217.667 1431.84 217 1439.17 217C1446.84 217 1453.51 217.667 1459.17 219C1465.17 220 1470.17 222 1474.17 225C1478.17 228 1481.17 232.167 1483.17 237.5C1485.17 242.833 1486.17 249.833 1486.17 258.5L1486.17 456L1600.67 456C1603.01 459.667 1605.17 464.667 1607.17 471C1609.17 477 1610.17 483.333 1610.17 490C1610.17 503.333 1607.34 512.833 1601.67 518.5C1596.01 523.833 1588.51 526.5 1579.17 526.5L1445.17 526.5ZM1665.02 268.5C1665.02 254.167 1669.19 242.833 1677.52 234.5C1685.85 226.167 1697.19 222 1711.52 222L1876.52 222C1878.85 225.667 1880.85 230.5 1882.52 236.5C1884.52 242.5 1885.52 248.833 1885.52 255.5C1885.52 268.167 1882.69 277.167 1877.02 282.5C1871.69 287.833 1864.52 290.5 1855.52 290.5L1750.02 290.5L1750.02 337L1862.52 337C1864.85 340.667 1866.85 345.5 1868.52 351.5C1870.52 357.167 1871.52 363.333 1871.52 370C1871.52 382.667 1868.85 391.667 1863.52 397C1858.19 402.333 1851.02 405 1842.02 405L1750.02 405L1750.02 457.5L1878.52 457.5C1880.85 461.167 1882.85 466 1884.52 472C1886.52 478 1887.52 484.333 1887.52 491C1887.52 503.667 1884.69 512.833 1879.02 518.5C1873.69 523.833 1866.52 526.5 1857.52 526.5L1711.52 526.5C1697.19 526.5 1685.85 522.333 1677.52 514C1669.19 505.667 1665.02 494.333 1665.02 480L1665.02 268.5Z" fill="#F6F6F6"/>
<path d="M393.26 746.84C368.107 746.84 348.833 754.517 335.44 769.87C322.047 785.223 315.35 806.947 315.35 835.04C315.35 863.46 322.7 885.347 337.4 900.7C352.427 916.053 372.517 923.73 397.67 923.73C411.063 923.73 422.333 921.933 431.48 918.34C440.953 914.747 449.937 910.663 458.43 906.09C463.983 910.663 468.23 916.217 471.17 922.75C474.437 928.957 476.07 936.307 476.07 944.8C476.07 958.193 468.557 969.627 453.53 979.1C438.83 988.247 416.29 992.82 385.91 992.82C364.023 992.82 343.443 989.717 324.17 983.51C304.897 977.303 288.073 967.83 273.7 955.09C259.327 942.023 247.893 925.69 239.4 906.09C231.233 886.163 227.15 862.48 227.15 835.04C227.15 809.56 231.07 787.183 238.91 767.91C247.077 748.31 258.02 731.813 271.74 718.42C285.787 705.027 302.12 694.9 320.74 688.04C339.36 681.18 359.287 677.75 380.52 677.75C410.573 677.75 433.767 682.65 450.1 692.45C466.76 702.25 475.09 714.827 475.09 730.18C475.09 738.673 472.967 746.023 468.72 752.23C464.473 758.437 459.573 763.337 454.02 766.93C445.527 761.377 436.38 756.64 426.58 752.72C417.107 748.8 406 746.84 393.26 746.84ZM797.162 982.04C793.568 983.02 787.852 984 780.012 984.98C772.498 985.96 764.985 986.45 757.472 986.45C749.958 986.45 743.262 985.797 737.382 984.49C731.828 983.51 727.092 981.55 723.172 978.61C719.252 975.67 716.312 971.587 714.352 966.36C712.392 961.133 711.412 954.273 711.412 945.78L711.412 869.34L617.332 869.34L617.332 982.04C613.738 983.02 608.022 984 600.182 984.98C592.668 985.96 585.155 986.45 577.642 986.45C570.128 986.45 563.432 985.797 557.552 984.49C551.998 983.51 547.262 981.55 543.342 978.61C539.422 975.67 536.482 971.587 534.522 966.36C532.562 961.133 531.582 954.273 531.582 945.78L531.582 687.06C535.175 686.407 540.892 685.59 548.732 684.61C556.572 683.303 564.085 682.65 571.272 682.65C578.785 682.65 585.318 683.303 590.872 684.61C596.752 685.59 601.652 687.55 605.572 690.49C609.492 693.43 612.432 697.513 614.392 702.74C616.352 707.967 617.332 714.827 617.332 723.32L617.332 801.72L711.412 801.72L711.412 687.06C715.005 686.407 720.722 685.59 728.562 684.61C736.402 683.303 743.915 682.65 751.102 682.65C758.615 682.65 765.148 683.303 770.702 684.61C776.582 685.59 781.482 687.55 785.402 690.49C789.322 693.43 792.262 697.513 794.222 702.74C796.182 707.967 797.162 714.827 797.162 723.32L797.162 982.04ZM870.6 732.63C870.6 718.583 874.684 707.477 882.85 699.31C891.017 691.143 902.124 687.06 916.17 687.06L1077.87 687.06C1080.16 690.653 1082.12 695.39 1083.75 701.27C1085.71 707.15 1086.69 713.357 1086.69 719.89C1086.69 732.303 1083.91 741.123 1078.36 746.35C1073.13 751.577 1066.11 754.19 1057.29 754.19L953.9 754.19L953.9 799.76L1064.15 799.76C1066.44 803.353 1068.4 808.09 1070.03 813.97C1071.99 819.523 1072.97 825.567 1072.97 832.1C1072.97 844.513 1070.36 853.333 1065.13 858.56C1059.9 863.787 1052.88 866.4 1044.06 866.4L953.9 866.4L953.9 917.85L1079.83 917.85C1082.12 921.443 1084.08 926.18 1085.71 932.06C1087.67 937.94 1088.65 944.147 1088.65 950.68C1088.65 963.093 1085.87 972.077 1080.32 977.63C1075.09 982.857 1068.07 985.47 1059.25 985.47L916.17 985.47C902.124 985.47 891.017 981.387 882.85 973.22C874.684 965.053 870.6 953.947 870.6 939.9L870.6 732.63ZM1297.39 746.84C1272.23 746.84 1252.96 754.517 1239.57 769.87C1226.17 785.223 1219.48 806.947 1219.48 835.04C1219.48 863.46 1226.83 885.347 1241.53 900.7C1256.55 916.053 1276.64 923.73 1301.8 923.73C1315.19 923.73 1326.46 921.933 1335.61 918.34C1345.08 914.747 1354.06 910.663 1362.56 906.09C1368.11 910.663 1372.36 916.217 1375.3 922.75C1378.56 928.957 1380.2 936.307 1380.2 944.8C1380.2 958.193 1372.68 969.627 1357.66 979.1C1342.96 988.247 1320.42 992.82 1290.04 992.82C1268.15 992.82 1247.57 989.717 1228.3 983.51C1209.02 977.303 1192.2 967.83 1177.83 955.09C1163.45 942.023 1152.02 925.69 1143.53 906.09C1135.36 886.163 1131.28 862.48 1131.28 835.04C1131.28 809.56 1135.2 787.183 1143.04 767.91C1151.2 748.31 1162.15 731.813 1175.87 718.42C1189.91 705.027 1206.25 694.9 1224.87 688.04C1243.49 681.18 1263.41 677.75 1284.65 677.75C1314.7 677.75 1337.89 682.65 1354.23 692.45C1370.89 702.25 1379.22 714.827 1379.22 730.18C1379.22 738.673 1377.09 746.023 1372.85 752.23C1368.6 758.437 1363.7 763.337 1358.15 766.93C1349.65 761.377 1340.51 756.64 1330.71 752.72C1321.23 748.8 1310.13 746.84 1297.39 746.84ZM1521.95 873.75L1521.95 982.04C1518.35 983.02 1512.64 984 1504.8 984.98C1496.96 985.96 1489.28 986.45 1481.77 986.45C1474.25 986.45 1467.56 985.797 1461.68 984.49C1456.12 983.51 1451.39 981.55 1447.47 978.61C1443.55 975.67 1440.61 971.587 1438.65 966.36C1436.69 961.133 1435.71 954.273 1435.71 945.78L1435.71 687.06C1439.3 686.407 1445.02 685.59 1452.86 684.61C1460.7 683.303 1468.21 682.65 1475.4 682.65C1482.91 682.65 1489.44 683.303 1495 684.61C1500.88 685.59 1505.78 687.55 1509.7 690.49C1513.62 693.43 1516.56 697.513 1518.52 702.74C1520.48 707.967 1521.46 714.827 1521.46 723.32L1521.46 801.23L1623.38 684.12C1645.59 684.12 1661.43 688.367 1670.91 696.86C1680.71 705.027 1685.61 714.827 1685.61 726.26C1685.61 734.753 1683.48 742.757 1679.24 750.27C1674.99 757.783 1668.13 766.277 1658.66 775.75L1597.41 837C1605.57 846.147 1614.07 855.62 1622.89 865.42C1632.03 875.22 1640.85 884.857 1649.35 894.33C1658.17 903.477 1666.5 912.297 1674.34 920.79C1682.5 929.283 1689.53 936.633 1695.41 942.84C1695.41 950.027 1694.1 956.397 1691.49 961.95C1688.87 967.503 1685.28 972.24 1680.71 976.16C1676.46 980.08 1671.56 983.02 1666.01 984.98C1660.45 986.94 1654.57 987.92 1648.37 987.92C1634.97 987.92 1624.03 984.653 1615.54 978.12C1607.04 971.26 1598.88 963.257 1591.04 954.11L1521.95 873.75Z" fill="#F6F6F6"/>
</svg>
