<svg width="207" height="189" viewBox="0 0 207 189" fill="none" xmlns="http://www.w3.org/2000/svg">
<g filter="url(#filter0_f_678_2641)">
<path d="M178.206 92.9852C178.206 131.098 139.683 150.867 98.4002 150.867C57.117 150.867 28.7062 131.098 28.7062 92.9852C28.7062 54.8725 61.5949 33.3596 102.878 33.3596C144.161 33.3596 178.206 54.8725 178.206 92.9852Z" fill="url(#paint0_radial_678_2641)"/>
</g>
<g filter="url(#filter1_f_678_2641)">
<path d="M48.0875 61.547C56.5676 60.2217 67.4884 52.4986 66.5561 47.1447C65.6238 41.7908 48.5418 31.1851 40.0617 32.5104C31.5816 33.8357 34.9147 46.5901 35.8469 51.944C36.7792 57.2979 40.3924 70.2147 48.0875 61.547Z" fill="url(#paint1_linear_678_2641)"/>
</g>
<g filter="url(#filter2_f_678_2641)">
<path d="M150.352 58.8776C136.752 48.9825 129.044 49.5906 130.531 44.2722C132.019 38.9538 153.105 27.9607 161.359 30.4245C169.612 32.8883 166.293 46.2626 164.805 51.581C163.318 56.8995 159.745 62.219 150.352 58.8776Z" fill="url(#paint2_linear_678_2641)"/>
</g>
<g filter="url(#filter3_f_678_2641)">
<path d="M64.6866 132.604C76.0037 140.487 85.3599 146.657 79.5332 153.722C73.7065 160.786 59.8087 160.123 48.4915 152.24C37.1744 144.357 32.7235 132.239 38.5502 125.175C44.3769 118.11 53.3694 124.721 64.6866 132.604Z" fill="url(#paint3_linear_678_2641)"/>
</g>
<g filter="url(#filter4_f_678_2641)">
<path d="M142.964 130.235C131.777 138.098 122.522 144.248 128.44 151.433C134.359 158.618 148.226 158.069 159.413 150.206C170.601 142.343 174.873 130.145 168.955 122.96C163.037 115.775 154.152 122.373 142.964 130.235Z" fill="url(#paint4_linear_678_2641)"/>
</g>
<g filter="url(#filter5_f_678_2641)">
<path d="M178.206 92.985C178.206 131.098 139.683 150.867 98.4002 150.867C57.117 150.867 28.7062 131.098 28.7062 92.985C28.7062 54.8724 61.5949 33.3595 102.878 33.3595C144.161 33.3595 178.206 54.8724 178.206 92.985Z" fill="white"/>
</g>
<g filter="url(#filter6_f_678_2641)">
<path d="M48.0875 61.5469C56.5676 60.2216 67.4884 52.4985 66.5561 47.1446C65.6238 41.7907 48.5418 31.185 40.0617 32.5103C31.5816 33.8355 34.9147 46.5899 35.8469 51.9438C36.7792 57.2977 40.3924 70.2146 48.0875 61.5469Z" fill="white"/>
</g>
<g filter="url(#filter7_f_678_2641)">
<path d="M150.352 58.8774C136.752 48.9824 129.044 49.5905 130.531 44.2721C132.019 38.9536 153.105 27.9606 161.359 30.4244C169.612 32.8882 166.293 46.2625 164.805 51.5809C163.318 56.8994 159.745 62.2189 150.352 58.8774Z" fill="white"/>
</g>
<g filter="url(#filter8_f_678_2641)">
<path d="M64.6866 132.604C76.0037 140.487 85.3599 146.657 79.5332 153.721C73.7065 160.786 59.8087 160.122 48.4915 152.239C37.1744 144.356 32.7235 132.239 38.5502 125.174C44.3769 118.11 53.3694 124.721 64.6866 132.604Z" fill="white"/>
</g>
<g filter="url(#filter9_f_678_2641)">
<path d="M142.964 130.235C131.777 138.098 122.522 144.248 128.44 151.433C134.359 158.618 148.226 158.068 159.413 150.206C170.601 142.343 174.873 130.145 168.955 122.959C163.037 115.774 154.152 122.373 142.964 130.235Z" fill="white"/>
</g>
<g filter="url(#filter10_if_678_2641)">
<ellipse cx="75.2064" cy="93.2055" rx="6.5" ry="9" fill="#471BB2"/>
</g>
<g filter="url(#filter11_if_678_2641)">
<ellipse cx="124.206" cy="93.2055" rx="6.5" ry="9" fill="#471BB2"/>
</g>
<circle cx="72.7064" cy="87.8588" r="1" fill="#D9D9D9"/>
<circle cx="121.706" cy="87.8588" r="1" fill="#D9D9D9"/>
<defs>
<filter id="filter0_f_678_2641" x="27.7062" y="32.3596" width="151.5" height="119.508" filterUnits="userSpaceOnUse" color-interpolation-filters="sRGB">
<feFlood flood-opacity="0" result="BackgroundImageFix"/>
<feBlend mode="normal" in="SourceGraphic" in2="BackgroundImageFix" result="shape"/>
<feGaussianBlur stdDeviation="0.5" result="effect1_foregroundBlur_678_2641"/>
</filter>
<filter id="filter1_f_678_2641" x="33.4167" y="31.3969" width="34.1953" height="34.064" filterUnits="userSpaceOnUse" color-interpolation-filters="sRGB">
<feFlood flood-opacity="0" result="BackgroundImageFix"/>
<feBlend mode="normal" in="SourceGraphic" in2="BackgroundImageFix" result="shape"/>
<feGaussianBlur stdDeviation="0.5" result="effect1_foregroundBlur_678_2641"/>
</filter>
<filter id="filter2_f_678_2641" x="129.349" y="29.0698" width="38.3857" height="31.848" filterUnits="userSpaceOnUse" color-interpolation-filters="sRGB">
<feFlood flood-opacity="0" result="BackgroundImageFix"/>
<feBlend mode="normal" in="SourceGraphic" in2="BackgroundImageFix" result="shape"/>
<feGaussianBlur stdDeviation="0.5" result="effect1_foregroundBlur_678_2641"/>
</filter>
<filter id="filter3_f_678_2641" x="34.9889" y="121.174" width="47.329" height="38.4409" filterUnits="userSpaceOnUse" color-interpolation-filters="sRGB">
<feFlood flood-opacity="0" result="BackgroundImageFix"/>
<feBlend mode="normal" in="SourceGraphic" in2="BackgroundImageFix" result="shape"/>
<feGaussianBlur stdDeviation="0.5" result="effect1_foregroundBlur_678_2641"/>
</filter>
<filter id="filter4_f_678_2641" x="125.596" y="118.876" width="47.0233" height="38.6055" filterUnits="userSpaceOnUse" color-interpolation-filters="sRGB">
<feFlood flood-opacity="0" result="BackgroundImageFix"/>
<feBlend mode="normal" in="SourceGraphic" in2="BackgroundImageFix" result="shape"/>
<feGaussianBlur stdDeviation="0.5" result="effect1_foregroundBlur_678_2641"/>
</filter>
<filter id="filter5_f_678_2641" x="0.706238" y="5.3595" width="205.5" height="173.508" filterUnits="userSpaceOnUse" color-interpolation-filters="sRGB">
<feFlood flood-opacity="0" result="BackgroundImageFix"/>
<feBlend mode="normal" in="SourceGraphic" in2="BackgroundImageFix" result="shape"/>
<feGaussianBlur stdDeviation="14" result="effect1_foregroundBlur_678_2641"/>
</filter>
<filter id="filter6_f_678_2641" x="4.41675" y="2.39673" width="92.1953" height="92.064" filterUnits="userSpaceOnUse" color-interpolation-filters="sRGB">
<feFlood flood-opacity="0" result="BackgroundImageFix"/>
<feBlend mode="normal" in="SourceGraphic" in2="BackgroundImageFix" result="shape"/>
<feGaussianBlur stdDeviation="15" result="effect1_foregroundBlur_678_2641"/>
</filter>
<filter id="filter7_f_678_2641" x="100.349" y="0.0697021" width="96.3857" height="89.848" filterUnits="userSpaceOnUse" color-interpolation-filters="sRGB">
<feFlood flood-opacity="0" result="BackgroundImageFix"/>
<feBlend mode="normal" in="SourceGraphic" in2="BackgroundImageFix" result="shape"/>
<feGaussianBlur stdDeviation="15" result="effect1_foregroundBlur_678_2641"/>
</filter>
<filter id="filter8_f_678_2641" x="5.98889" y="92.1737" width="105.329" height="96.4409" filterUnits="userSpaceOnUse" color-interpolation-filters="sRGB">
<feFlood flood-opacity="0" result="BackgroundImageFix"/>
<feBlend mode="normal" in="SourceGraphic" in2="BackgroundImageFix" result="shape"/>
<feGaussianBlur stdDeviation="15" result="effect1_foregroundBlur_678_2641"/>
</filter>
<filter id="filter9_f_678_2641" x="96.5958" y="89.8762" width="105.023" height="96.6055" filterUnits="userSpaceOnUse" color-interpolation-filters="sRGB">
<feFlood flood-opacity="0" result="BackgroundImageFix"/>
<feBlend mode="normal" in="SourceGraphic" in2="BackgroundImageFix" result="shape"/>
<feGaussianBlur stdDeviation="15" result="effect1_foregroundBlur_678_2641"/>
</filter>
<filter id="filter10_if_678_2641" x="67.7064" y="83.2055" width="15" height="23" filterUnits="userSpaceOnUse" color-interpolation-filters="sRGB">
<feFlood flood-opacity="0" result="BackgroundImageFix"/>
<feBlend mode="normal" in="SourceGraphic" in2="BackgroundImageFix" result="shape"/>
<feColorMatrix in="SourceAlpha" type="matrix" values="0 0 0 0 0 0 0 0 0 0 0 0 0 0 0 0 0 0 127 0" result="hardAlpha"/>
<feOffset dy="4"/>
<feGaussianBlur stdDeviation="2"/>
<feComposite in2="hardAlpha" operator="arithmetic" k2="-1" k3="1"/>
<feColorMatrix type="matrix" values="0 0 0 0 0 0 0 0 0 0 0 0 0 0 0 0 0 0 1 0"/>
<feBlend mode="normal" in2="shape" result="effect1_innerShadow_678_2641"/>
<feGaussianBlur stdDeviation="0.5" result="effect2_foregroundBlur_678_2641"/>
</filter>
<filter id="filter11_if_678_2641" x="116.706" y="83.2055" width="15" height="23" filterUnits="userSpaceOnUse" color-interpolation-filters="sRGB">
<feFlood flood-opacity="0" result="BackgroundImageFix"/>
<feBlend mode="normal" in="SourceGraphic" in2="BackgroundImageFix" result="shape"/>
<feColorMatrix in="SourceAlpha" type="matrix" values="0 0 0 0 0 0 0 0 0 0 0 0 0 0 0 0 0 0 127 0" result="hardAlpha"/>
<feOffset dy="4"/>
<feGaussianBlur stdDeviation="2"/>
<feComposite in2="hardAlpha" operator="arithmetic" k2="-1" k3="1"/>
<feColorMatrix type="matrix" values="0 0 0 0 0 0 0 0 0 0 0 0 0 0 0 0 0 0 1 0"/>
<feBlend mode="normal" in2="shape" result="effect1_innerShadow_678_2641"/>
<feGaussianBlur stdDeviation="0.5" result="effect2_foregroundBlur_678_2641"/>
</filter>
<radialGradient id="paint0_radial_678_2641" cx="0" cy="0" r="1" gradientUnits="userSpaceOnUse" gradientTransform="translate(100.206 108.706) rotate(161.178) scale(64.4462 69.7559)">
<stop stop-color="#B29AFF"/>
<stop offset="1" stop-color="#D2D8FA"/>
</radialGradient>
<linearGradient id="paint1_linear_678_2641" x1="31.4535" y1="32.55" x2="42.9577" y2="53.2322" gradientUnits="userSpaceOnUse">
<stop stop-color="#B29AFF"/>
<stop offset="1" stop-color="#D2D8FA"/>
</linearGradient>
<linearGradient id="paint2_linear_678_2641" x1="169.874" y1="31.5986" x2="155.644" y2="50.6071" gradientUnits="userSpaceOnUse">
<stop stop-color="#B29AFF"/>
<stop offset="1" stop-color="#D2D8FA"/>
</linearGradient>
<linearGradient id="paint3_linear_678_2641" x1="36.0978" y1="128.148" x2="74.5014" y2="159.822" gradientUnits="userSpaceOnUse">
<stop stop-color="#D2D8FA"/>
<stop offset="0.651042" stop-color="#B29AFF"/>
</linearGradient>
<linearGradient id="paint4_linear_678_2641" x1="171.446" y1="125.984" x2="133.335" y2="157.375" gradientUnits="userSpaceOnUse">
<stop stop-color="#D2D8FA"/>
<stop offset="0.651042" stop-color="#B29AFF"/>
</linearGradient>
</defs>
</svg>
