<svg width="81" height="60" viewBox="0 0 81 60" fill="none" xmlns="http://www.w3.org/2000/svg">
<path d="M67 48.1401C67 52.5074 63.0329 50.5733 61.3226 50.5733C59.6123 50.5733 51 40.9501 51 36.5828C51 32.2155 53.0645 26.8502 55.6452 29.8917C57.3555 29.8917 67 43.7728 67 48.1401Z" fill="#FCF980"/>
<path d="M56.0063 34.206C54.7272 32.8987 56.0063 31.1557 57.7117 32.463C58.5645 33.3345 65.8125 39.8708 66.6653 42.9211C67.0916 44.6641 67.2622 46.7557 66.2389 49.8931C64.9598 53.8149 59.4171 54.2506 57.7117 49.8931C56.0063 45.5356 56.859 47.2786 55.5799 44.6641C54.5566 42.5725 50.89 39.435 49.1845 38.1278C48.7582 37.692 48.9713 35.0775 50.89 36.3848C54.7272 38.9993 58.5644 45.0998 59.4171 47.7144C61.5489 52.9434 64.1071 49.8931 64.5335 47.7144C64.9598 45.5356 64.5335 42.9211 62.828 40.7423C61.1226 38.5635 57.2854 35.5133 56.0063 34.206Z" fill="#2D2B2D" stroke="#2D2B2D"/>
<path d="M60.5122 37.9453C60.5122 36.4452 80.5 29.0094 79.5 31.5094C78.5 34.0094 74.0122 47.4453 74.0122 47.4453C74.0122 47.4453 63.5122 53.5215 60.5122 54.5214C57.5122 55.5214 41.5122 59.9453 41.0122 58.4453C40.5122 56.9452 55.5122 49.9453 55.5122 49.9453C55.5122 49.9453 60.5122 39.4453 60.5122 37.9453Z" fill="#B29AFF"/>
<path d="M74.0122 47.4453C74.0122 47.4453 78.5 34.0094 79.5 31.5094C80.5 29.0094 60.5122 36.4452 60.5122 37.9453C60.5122 39.4453 55.5122 49.9453 55.5122 49.9453M74.0122 47.4453C74.0122 47.4453 63.5122 53.5215 60.5122 54.5214C57.5122 55.5214 41.5122 59.9453 41.0122 58.4453C40.5122 56.9452 55.5122 49.9453 55.5122 49.9453M74.0122 47.4453L55.5122 49.9453" stroke="#2D2B2D"/>
<path d="M56.5 28.5C56.5 43.3872 44.2125 55.5 29 55.5C13.7875 55.5 1.5 43.3872 1.5 28.5C1.5 13.6128 13.7875 1.5 29 1.5C44.2125 1.5 56.5 13.6128 56.5 28.5Z" fill="#FCF980" stroke="#2D2B2D" stroke-width="3"/>
<circle cx="32.5" cy="18.5" r="10" fill="white" stroke="#2D2B2D" stroke-width="3"/>
<circle cx="52" cy="21" r="9.5" fill="white" stroke="#2D2B2D" stroke-width="3"/>
<path d="M40.5063 21C40.5063 24.866 37.3723 28 33.5063 28C29.6403 28 26.5063 24.866 26.5063 21C26.5063 17.134 29.6403 14 33.5063 14C37.3723 14 40.5063 17.134 40.5063 21Z" fill="#2A2A2A"/>
<circle cx="53.0063" cy="23.5" r="6.5" fill="#2A2A2A"/>
<path d="M31.126 39C26.9572 39 27.5333 42.963 27.5333 44.8871C27.5333 46.8112 36.719 56.5 40.8878 56.5C45.0566 56.5 51.9033 55.9032 49 53C50.5 50.5 35.2948 39 31.126 39Z" fill="#FCF980"/>
<path d="M30.0376 46.2163C28.5376 44.7163 26.5376 46.2163 28.0376 48.2163C29.0376 49.2164 36.5376 57.7163 40.0376 58.7163C42.0376 59.2163 44.4376 59.4163 48.0376 58.2163C52.5376 56.7163 53.0376 50.2163 48.0376 48.2163C43.0376 46.2163 45.0376 47.2163 42.0376 45.7163C39.6376 44.5163 36.0376 40.2163 34.5376 38.2163C34.0376 37.7163 31.0376 37.9663 32.5376 40.2163C35.5376 44.7163 42.5376 49.2163 45.5376 50.2163C51.5376 52.7163 48.0376 55.7163 45.5376 56.2163C43.0376 56.7163 40.0376 56.2163 37.5376 54.2163C35.0376 52.2163 31.5376 47.7163 30.0376 46.2163Z" fill="#2D2B2D" stroke="#2D2B2D"/>
<path d="M62 36.7407C62 36.7407 76 30.7407 75.5 32.2407L76.5 35.2407L74 40.7407L72 47.2407L66 50.2407L60.5 52.7407L47 55.2407C47 55.2407 49.4996 50.1742 52.5 48.7407C54.2968 47.8823 57.5 47.7407 57.5 47.7407C57.5 47.7407 57.0072 42.7908 58.5 40.2407C59.4766 38.5726 62 36.7407 62 36.7407Z" fill="#D9D9D9"/>
<path d="M75.5 32.2407C76 30.7407 62 36.7407 62 36.7407C62 36.7407 59.4766 38.5726 58.5 40.2407C57.0072 42.7908 57.5 47.7407 57.5 47.7407M75.5 32.2407C75 33.7407 72 38.2408 71.5 39.7407C71 41.2407 70 43.5 70 46M75.5 32.2407L76.5 35.2407L74 40.7407L72 47.2407M60.5 52.7407L47 55.2407C47 55.2407 49.4996 50.1742 52.5 48.7407C54.2968 47.8823 57.5 47.7407 57.5 47.7407M60.5 52.7407C60.5 52.7407 63 48.7593 64.5 48C66 47.2407 68.4326 46.2079 70 46M60.5 52.7407L66 50.2407L72 47.2407M70 46C64.9232 46.4845 57.5 47.7407 57.5 47.7407M70 46L72 47.2407" stroke="#2D2B2D"/>
<path d="M70 33.5C70 33.5 66.2964 38.3667 65.5 40.5C64.8035 42.3655 64.5 45.5 64.5 45.5" stroke="#2D2B2D" stroke-width="0.3"/>
<path d="M71.5 33C71.5 33 67.7964 37.8667 67 40C66.3035 41.8655 65.5 45.5 65.5 45.5" stroke="#2D2B2D" stroke-width="0.3"/>
<path d="M73 32.5C73 32.5 68.7964 38.3667 68 40.5C67.3035 42.3655 67 45.5 67 45.5" stroke="#2D2B2D" stroke-width="0.3"/>
<path d="M63 47C63 47 60.3065 49.0278 59.7273 49.9167C59.2208 50.694 59 52 59 52" stroke="#2D2B2D" stroke-width="0.3"/>
<path d="M61.5 47C61.5 47 58.7839 49.358 58.4364 50.1481C58.1325 50.8391 58 52 58 52" stroke="#2D2B2D" stroke-width="0.3"/>
<path d="M60 47.5C60 47.5 57.6533 49.6222 57.3636 50.3333C57.1104 50.9552 57 52 57 52" stroke="#2D2B2D" stroke-width="0.3"/>
<path d="M59 47.5C59 47.5 56.6533 49.6222 56.3636 50.3333C56.1104 50.9552 56 52 56 52" stroke="#2D2B2D" stroke-width="0.3"/>
<path d="M57.5009 48C57.5009 48 55.9353 49.1111 55.5009 50C54.9555 51.1161 55.0009 52.5 55.0009 52.5" stroke="#2D2B2D" stroke-width="0.3"/>
<path d="M55.5 48C55.5 48 53.9353 49.1111 53.5009 50C52.9555 51.1161 53.0009 52.5 53.0009 52.5" stroke="#2D2B2D" stroke-width="0.3"/>
<path d="M56.5 48C56.5 48 54.7896 49.7889 54.5 50.5C54.2468 51.1218 54 52.5 54 52.5" stroke="#2D2B2D" stroke-width="0.3"/>
<path d="M54.5 48C54.5 48 52.7896 49.7889 52.5 50.5C52.2468 51.1218 52 52.5 52 52.5" stroke="#2D2B2D" stroke-width="0.3"/>
<path d="M68.5 34C68.5 34 65.2964 38.3667 64.5 40.5C63.8035 42.3655 63.4999 46 63.4999 46" stroke="#2D2B2D" stroke-width="0.3"/>
<path d="M67 34.5C67 34.5 63.7964 38.8667 63 41C62.3035 42.8655 62 46 62 46" stroke="#2D2B2D" stroke-width="0.3"/>
<path d="M65.5 35.5C65.5 35.5 62.7964 38.8667 62 41C61.3035 42.8655 61 46 61 46" stroke="#2D2B2D" stroke-width="0.3"/>
<path d="M64 36C64 36 61.7964 38.8667 61 41C60.3035 42.8655 60 46 60 46" stroke="#2D2B2D" stroke-width="0.3"/>
<path d="M63 36C63 36 60.7964 38.8667 60 41C59.3035 42.8655 59 46 59 46" stroke="#2D2B2D" stroke-width="0.3"/>
</svg>
