<svg width="75" height="60" viewBox="0 0 75 60" fill="none" xmlns="http://www.w3.org/2000/svg">
<path d="M74 51.1401C74 55.5074 70.0329 53.5733 68.3226 53.5733C66.6123 53.5733 58 43.9501 58 39.5828C58 35.2155 60.0645 29.8502 62.6452 32.8917C64.3555 32.8917 74 46.7728 74 51.1401Z" fill="#FCF980"/>
<path d="M63.0063 37.206C61.7272 35.8987 63.0063 34.1557 64.7117 35.463C65.5645 36.3345 72.8125 42.8708 73.6653 45.9211C74.0916 47.6641 74.2622 49.7557 73.2389 52.8931C71.9598 56.8149 66.4171 57.2506 64.7117 52.8931C63.0063 48.5356 63.859 50.2786 62.5799 47.6641C61.5566 45.5725 57.89 42.435 56.1845 41.1278C55.7582 40.692 55.9713 38.0775 57.89 39.3848C61.7272 41.9993 65.5644 48.0998 66.4171 50.7144C68.5489 55.9434 71.1071 52.8931 71.5335 50.7144C71.9598 48.5356 71.5335 45.9211 69.828 43.7423C68.1226 41.5635 64.2854 38.5133 63.0063 37.206Z" fill="#2D2B2D" stroke="#2D2B2D"/>
<path d="M63.5 31.5C63.5 46.3872 51.2125 58.5 36 58.5C20.7875 58.5 8.5 46.3872 8.5 31.5C8.5 16.6128 20.7875 4.5 36 4.5C51.2125 4.5 63.5 16.6128 63.5 31.5Z" fill="#FCF980" stroke="#2D2B2D" stroke-width="3"/>
<circle cx="39.5" cy="21.5" r="10" fill="white" stroke="#2D2B2D" stroke-width="3"/>
<circle cx="59" cy="24" r="9.5" fill="white" stroke="#2D2B2D" stroke-width="3"/>
<path d="M45 21C45 24.866 41.866 28 38 28C34.134 28 31 24.866 31 21C31 17.134 34.134 14 38 14C41.866 14 45 17.134 45 21Z" fill="#2A2A2A"/>
<circle cx="57.5" cy="23.5" r="6.5" fill="#2A2A2A"/>
<path d="M21 22.2701C21 26.4389 16.537 24.5927 14.6129 24.5927C12.6888 24.5927 3 15.407 3 11.2382C3 7.06938 5.32258 1.94788 8.22581 4.85113C10.1499 4.85113 21 18.1013 21 22.2701Z" fill="#FCF980"/>
<path d="M13.8925 22.5649C15.3925 24.0649 13.8925 26.0649 11.8925 24.5649C10.8925 23.565 2.39258 16.0649 1.39256 12.5649C0.892578 10.565 0.692559 8.16496 1.89256 4.56496C3.39256 0.0649638 9.89256 -0.435036 11.8926 4.56496C13.8926 9.56496 12.8926 7.56496 14.3926 10.565C15.5926 12.965 19.8926 16.565 21.8926 18.065C22.3926 18.565 22.1426 21.565 19.8926 20.065C15.3926 17.065 10.8926 10.065 9.89256 7.06495C7.39256 1.06495 4.39254 4.56495 3.89254 7.06495C3.39254 9.56495 3.89254 12.5649 5.89254 15.0649C7.89254 17.5649 12.3925 21.0649 13.8925 22.5649Z" fill="#2D2B2D" stroke="#2D2B2D"/>
</svg>
