<svg width="244" height="20" viewBox="0 0 244 20" fill="none" xmlns="http://www.w3.org/2000/svg">
<path d="M7.58789 19.25C6.17122 19.25 4.92122 18.9583 3.83789 18.375C2.77122 17.7917 1.93789 16.9833 1.33789 15.95C0.754557 14.9167 0.462891 13.7417 0.462891 12.425C0.462891 11.0917 0.771224 9.91667 1.38789 8.9C2.00456 7.86667 2.85456 7.05833 3.93789 6.475C5.02122 5.89167 6.25456 5.6 7.63789 5.6C8.47122 5.6 9.25456 5.70833 9.98789 5.925C10.7212 6.14167 11.3629 6.43333 11.9129 6.8C12.4796 7.16667 12.9129 7.55833 13.2129 7.975C13.5296 8.39167 13.6879 8.80833 13.6879 9.225L12.9379 9.275V0.5H15.5129V19H12.9379V15.6L13.4379 15.7C13.4379 16.1 13.2712 16.5083 12.9379 16.925C12.6212 17.325 12.1879 17.7083 11.6379 18.075C11.1046 18.425 10.4796 18.7083 9.76289 18.925C9.06289 19.1417 8.33789 19.25 7.58789 19.25ZM8.06289 16.95C9.04622 16.95 9.91289 16.75 10.6629 16.35C11.4129 15.95 11.9962 15.4083 12.4129 14.725C12.8296 14.0417 13.0379 13.275 13.0379 12.425C13.0379 11.575 12.8296 10.8083 12.4129 10.125C11.9962 9.44167 11.4129 8.90833 10.6629 8.525C9.91289 8.125 9.04622 7.925 8.06289 7.925C7.09622 7.925 6.23789 8.125 5.48789 8.525C4.73789 8.90833 4.14622 9.44167 3.71289 10.125C3.29622 10.8083 3.08789 11.575 3.08789 12.425C3.08789 13.275 3.29622 14.0417 3.71289 14.725C4.14622 15.4083 4.73789 15.95 5.48789 16.35C6.23789 16.75 7.09622 16.95 8.06289 16.95ZM31.3963 19.25C29.8796 19.25 28.5296 18.9583 27.3463 18.375C26.1796 17.7917 25.2546 16.9833 24.5713 15.95C23.9046 14.9167 23.5713 13.7417 23.5713 12.425C23.5713 11.0917 23.9046 9.91667 24.5713 8.9C25.2546 7.86667 26.1796 7.05833 27.3463 6.475C28.5296 5.89167 29.8796 5.6 31.3963 5.6C32.913 5.6 34.2546 5.89167 35.4213 6.475C36.588 7.05833 37.5046 7.86667 38.1713 8.9C38.8546 9.91667 39.1963 11.0917 39.1963 12.425C39.1963 13.7417 38.8546 14.9167 38.1713 15.95C37.5046 16.9833 36.588 17.7917 35.4213 18.375C34.2546 18.9583 32.913 19.25 31.3963 19.25ZM31.3963 16.9C32.3796 16.9 33.263 16.7083 34.0463 16.325C34.8463 15.9417 35.4713 15.4167 35.9213 14.75C36.388 14.0667 36.6046 13.2917 36.5713 12.425C36.6046 11.5417 36.388 10.7667 35.9213 10.1C35.4713 9.43333 34.8463 8.90833 34.0463 8.525C33.263 8.14167 32.3796 7.95 31.3963 7.95C30.413 7.95 29.5213 8.14167 28.7213 8.525C27.938 8.90833 27.313 9.44167 26.8463 10.125C26.3963 10.7917 26.1796 11.5583 26.1963 12.425C26.1796 13.2917 26.3963 14.0667 26.8463 14.75C27.313 15.4167 27.938 15.9417 28.7213 16.325C29.5213 16.7083 30.413 16.9 31.3963 16.9ZM52.8385 19.25C51.7718 19.25 50.8385 19.0083 50.0385 18.525C49.2551 18.025 48.6385 17.3167 48.1885 16.4C47.7551 15.4833 47.5385 14.3917 47.5385 13.125V5.875H50.1135V12.3C50.1135 13.2667 50.2468 14.0917 50.5135 14.775C50.7968 15.4417 51.2135 15.95 51.7635 16.3C52.3301 16.65 53.0385 16.825 53.8885 16.825C54.4718 16.825 55.0218 16.7333 55.5385 16.55C56.0551 16.35 56.5051 16.075 56.8885 15.725C57.2885 15.375 57.5968 14.95 57.8135 14.45C58.0468 13.95 58.1635 13.4 58.1635 12.8V5.875H60.7385V19H58.1635V16.25L58.6135 15.95C58.3968 16.5 58.0218 17.0333 57.4885 17.55C56.9551 18.05 56.2885 18.4583 55.4885 18.775C54.7051 19.0917 53.8218 19.25 52.8385 19.25ZM78.3236 19.25C77.5903 19.25 76.882 19.15 76.1986 18.95C75.5153 18.7333 74.907 18.4583 74.3736 18.125C73.8403 17.7917 73.3986 17.4333 73.0486 17.05C72.6986 16.65 72.4736 16.275 72.3736 15.925L73.2986 15.725V18.925H70.7236V0.5H73.2986V8.875L72.6236 8.8C72.707 8.43333 72.9153 8.06667 73.2486 7.7C73.582 7.33333 74.007 6.99167 74.5236 6.675C75.057 6.35833 75.6486 6.1 76.2986 5.9C76.9653 5.7 77.657 5.6 78.3736 5.6C79.7236 5.6 80.932 5.89167 81.9986 6.475C83.0653 7.05833 83.9153 7.85833 84.5486 8.875C85.182 9.89167 85.4986 11.0667 85.4986 12.4C85.4986 13.7167 85.182 14.8917 84.5486 15.925C83.932 16.9583 83.082 17.775 81.9986 18.375C80.932 18.9583 79.707 19.25 78.3236 19.25ZM78.0236 16.875C78.9903 16.875 79.8486 16.6833 80.5986 16.3C81.3486 15.9 81.932 15.3667 82.3486 14.7C82.782 14.0167 82.9986 13.25 82.9986 12.4C82.9986 11.55 82.782 10.7917 82.3486 10.125C81.932 9.45833 81.3486 8.93333 80.5986 8.55C79.8653 8.16667 79.007 7.975 78.0236 7.975C77.057 7.975 76.1986 8.16667 75.4486 8.55C74.6986 8.93333 74.107 9.45833 73.6736 10.125C73.2403 10.7917 73.0236 11.55 73.0236 12.4C73.0236 13.25 73.2403 14.0167 73.6736 14.7C74.107 15.3667 74.6986 15.9 75.4486 16.3C76.1986 16.6833 77.057 16.875 78.0236 16.875ZM93.9971 19V0.5H96.5721V19H93.9971ZM112.761 19.25C111.194 19.25 109.803 18.9667 108.586 18.4C107.369 17.8167 106.419 17.025 105.736 16.025C105.053 15.0083 104.711 13.8583 104.711 12.575C104.711 11.5083 104.911 10.55 105.311 9.7C105.711 8.83333 106.269 8.1 106.986 7.5C107.703 6.88333 108.536 6.40833 109.486 6.075C110.436 5.74167 111.453 5.575 112.536 5.575C113.519 5.575 114.444 5.73333 115.311 6.05C116.178 6.36667 116.936 6.80833 117.586 7.375C118.236 7.94167 118.736 8.61667 119.086 9.4C119.436 10.1667 119.603 11.0167 119.586 11.95L119.561 13.2H106.886L106.311 11.15H117.336L116.961 11.425V10.825C116.894 10.2583 116.644 9.75833 116.211 9.325C115.778 8.89167 115.236 8.55833 114.586 8.325C113.953 8.075 113.269 7.95 112.536 7.95C111.503 7.95 110.586 8.10833 109.786 8.425C108.986 8.725 108.361 9.20833 107.911 9.875C107.478 10.525 107.261 11.3667 107.261 12.4C107.261 13.3 107.503 14.0917 107.986 14.775C108.486 15.4417 109.178 15.9583 110.061 16.325C110.961 16.6917 111.986 16.875 113.136 16.875C114.186 16.875 115.078 16.7333 115.811 16.45C116.561 16.15 117.228 15.7833 117.811 15.35L119.011 17.25C118.561 17.6167 117.994 17.95 117.311 18.25C116.644 18.55 115.911 18.7917 115.111 18.975C114.328 19.1583 113.544 19.25 112.761 19.25ZM146.557 19.25C145.157 19.25 143.898 18.95 142.782 18.35C141.682 17.75 140.807 16.9333 140.157 15.9C139.507 14.8667 139.182 13.7083 139.182 12.425C139.182 11.125 139.507 9.96667 140.157 8.95C140.807 7.91667 141.682 7.1 142.782 6.5C143.898 5.9 145.157 5.6 146.557 5.6C147.923 5.6 149.182 5.83333 150.332 6.3C151.498 6.75 152.398 7.38333 153.032 8.2L151.607 10.15C151.24 9.73333 150.773 9.35833 150.207 9.025C149.657 8.69167 149.073 8.425 148.457 8.225C147.857 8.025 147.257 7.925 146.657 7.925C145.707 7.925 144.865 8.125 144.132 8.525C143.398 8.90833 142.823 9.44167 142.407 10.125C141.99 10.7917 141.782 11.5583 141.782 12.425C141.782 13.2917 141.998 14.0667 142.432 14.75C142.882 15.4167 143.473 15.95 144.207 16.35C144.957 16.7333 145.782 16.925 146.682 16.925C147.382 16.925 148.023 16.8417 148.607 16.675C149.207 16.4917 149.757 16.2583 150.257 15.975C150.757 15.675 151.215 15.3583 151.632 15.025L153.032 16.925C152.282 17.5583 151.348 18.1083 150.232 18.575C149.115 19.025 147.89 19.25 146.557 19.25ZM161.495 19V0.5H164.07V9.125L163.345 9.3C163.528 8.68333 163.903 8.1 164.47 7.55C165.053 6.98333 165.753 6.51667 166.57 6.15C167.403 5.78333 168.278 5.6 169.195 5.6C170.395 5.6 171.387 5.83333 172.17 6.3C172.953 6.75 173.545 7.39167 173.945 8.225C174.345 9.05833 174.545 10.0333 174.545 11.15V19H171.97V11.45C171.97 10.7167 171.812 10.0833 171.495 9.55C171.195 9.01667 170.77 8.61667 170.22 8.35C169.687 8.06667 169.062 7.925 168.345 7.925C167.728 7.925 167.153 8.04167 166.62 8.275C166.103 8.49167 165.653 8.78333 165.27 9.15C164.887 9.5 164.587 9.89167 164.37 10.325C164.17 10.7417 164.07 11.1667 164.07 11.6V19H162.795C162.462 19 162.187 19 161.97 19C161.753 19 161.595 19 161.495 19ZM189.922 19.25C188.572 19.25 187.372 18.9583 186.322 18.375C185.272 17.775 184.447 16.9583 183.847 15.925C183.264 14.8917 182.972 13.725 182.972 12.425C182.972 11.0917 183.28 9.91667 183.897 8.9C184.514 7.86667 185.355 7.05833 186.422 6.475C187.505 5.89167 188.739 5.6 190.122 5.6C190.955 5.6 191.73 5.70833 192.447 5.925C193.164 6.14167 193.789 6.43333 194.322 6.8C194.855 7.15 195.28 7.55 195.597 8C195.914 8.43333 196.08 8.875 196.097 9.325L195.422 9.275V5.875H198.022V19H195.422V15.6L195.972 15.625C195.939 16.0417 195.747 16.4667 195.397 16.9C195.064 17.3167 194.614 17.7083 194.047 18.075C193.497 18.425 192.864 18.7083 192.147 18.925C191.447 19.1417 190.705 19.25 189.922 19.25ZM190.547 16.875C191.53 16.875 192.397 16.6833 193.147 16.3C193.897 15.9 194.48 15.3667 194.897 14.7C195.314 14.0167 195.522 13.2583 195.522 12.425C195.522 11.575 195.314 10.8167 194.897 10.15C194.48 9.48333 193.897 8.95833 193.147 8.575C192.397 8.19167 191.53 8 190.547 8C189.58 8 188.722 8.19167 187.972 8.575C187.239 8.95833 186.655 9.48333 186.222 10.15C185.805 10.8167 185.597 11.575 185.597 12.425C185.597 13.2583 185.805 14.0167 186.222 14.7C186.655 15.3667 187.239 15.9 187.972 16.3C188.722 16.6833 189.58 16.875 190.547 16.875ZM214.299 19.25C212.732 19.25 211.341 18.9667 210.124 18.4C208.907 17.8167 207.957 17.025 207.274 16.025C206.591 15.0083 206.249 13.8583 206.249 12.575C206.249 11.5083 206.449 10.55 206.849 9.7C207.249 8.83333 207.807 8.1 208.524 7.5C209.241 6.88333 210.074 6.40833 211.024 6.075C211.974 5.74167 212.991 5.575 214.074 5.575C215.057 5.575 215.982 5.73333 216.849 6.05C217.716 6.36667 218.474 6.80833 219.124 7.375C219.774 7.94167 220.274 8.61667 220.624 9.4C220.974 10.1667 221.141 11.0167 221.124 11.95L221.099 13.2H208.424L207.849 11.15H218.874L218.499 11.425V10.825C218.432 10.2583 218.182 9.75833 217.749 9.325C217.316 8.89167 216.774 8.55833 216.124 8.325C215.491 8.075 214.807 7.95 214.074 7.95C213.041 7.95 212.124 8.10833 211.324 8.425C210.524 8.725 209.899 9.20833 209.449 9.875C209.016 10.525 208.799 11.3667 208.799 12.4C208.799 13.3 209.041 14.0917 209.524 14.775C210.024 15.4417 210.716 15.9583 211.599 16.325C212.499 16.6917 213.524 16.875 214.674 16.875C215.724 16.875 216.616 16.7333 217.349 16.45C218.099 16.15 218.766 15.7833 219.349 15.35L220.549 17.25C220.099 17.6167 219.532 17.95 218.849 18.25C218.182 18.55 217.449 18.7917 216.649 18.975C215.866 19.1583 215.082 19.25 214.299 19.25ZM232.081 15.325L232.206 12.525L240.131 5.875H243.681L232.081 15.325ZM229.981 19V0.5H232.406V19H229.981ZM240.506 19L234.506 12.375L236.256 10.7L243.806 19H240.506Z" fill="#471BB2"/>
</svg>
