<svg width="1440" height="800" viewBox="0 0 1440 800" fill="none" xmlns="http://www.w3.org/2000/svg">
<rect width="1440" height="800" fill="#0C091E"/>
<g filter="url(#filter0_f_1_2)">
<circle cx="1193" cy="53" r="2" fill="white"/>
</g>
<circle cx="1193" cy="53" r="2" fill="white"/>
<g filter="url(#filter1_f_1_2)">
<circle cx="284" cy="85" r="2" fill="white"/>
</g>
<circle cx="284" cy="85" r="2" fill="white"/>
<g filter="url(#filter2_f_1_2)">
<circle cx="72" cy="59" r="2" fill="white"/>
</g>
<circle cx="72" cy="59" r="2" fill="white"/>
<g filter="url(#filter3_f_1_2)">
<circle cx="1016" cy="28" r="2" fill="white"/>
</g>
<circle cx="1016" cy="28" r="2" fill="white"/>
<g filter="url(#filter4_f_1_2)">
<circle cx="883" cy="65" r="2" fill="white"/>
</g>
<circle cx="883" cy="65" r="2" fill="white"/>
<g filter="url(#filter5_f_1_2)">
<circle cx="1390" cy="65" r="2" fill="white"/>
</g>
<circle cx="1390" cy="65" r="2" fill="white"/>
<g filter="url(#filter6_f_1_2)">
<circle cx="677" cy="32" r="2" fill="white"/>
</g>
<circle cx="677" cy="32" r="2" fill="white"/>
<g filter="url(#filter7_f_1_2)">
<circle cx="963" cy="213" r="2" fill="white"/>
</g>
<circle cx="963" cy="213" r="2" fill="white"/>
<g filter="url(#filter8_f_1_2)">
<circle cx="1120" cy="408" r="2" fill="white"/>
</g>
<circle cx="1120" cy="408" r="2" fill="white"/>
<g filter="url(#filter9_f_1_2)">
<circle cx="1299" cy="740" r="2" fill="white"/>
</g>
<circle cx="1299" cy="740" r="2" fill="white"/>
<g filter="url(#filter10_f_1_2)">
<circle cx="1018" cy="768" r="2" fill="white"/>
</g>
<circle cx="1018" cy="768" r="2" fill="white"/>
<g filter="url(#filter11_f_1_2)">
<circle cx="1312" cy="452" r="2" fill="white"/>
</g>
<circle cx="1312" cy="452" r="2" fill="white"/>
<g filter="url(#filter12_f_1_2)">
<circle cx="1394" cy="664" r="2" fill="white"/>
</g>
<circle cx="1394" cy="664" r="2" fill="white"/>
<g filter="url(#filter13_f_1_2)">
<circle cx="1400" cy="318" r="2" fill="white"/>
</g>
<circle cx="1400" cy="318" r="2" fill="white"/>
<g filter="url(#filter14_f_1_2)">
<circle cx="634" cy="466" r="2" fill="white"/>
</g>
<circle cx="634" cy="466" r="2" fill="white"/>
<g filter="url(#filter15_f_1_2)">
<circle cx="805" cy="452" r="2" fill="white"/>
</g>
<circle cx="805" cy="452" r="2" fill="white"/>
<g filter="url(#filter16_f_1_2)">
<circle cx="943" cy="586" r="2" fill="white"/>
</g>
<circle cx="943" cy="586" r="2" fill="white"/>
<g filter="url(#filter17_f_1_2)">
<circle cx="1400" cy="507" r="2" fill="white"/>
</g>
<circle cx="1400" cy="507" r="2" fill="white"/>
<g filter="url(#filter18_f_1_2)">
<circle cx="1178" cy="474" r="2" fill="white"/>
</g>
<circle cx="1178" cy="474" r="2" fill="white"/>
<g filter="url(#filter19_f_1_2)">
<circle cx="355" cy="30" r="2" fill="white"/>
</g>
<circle cx="355" cy="30" r="2" fill="white"/>
<g filter="url(#filter20_f_1_2)">
<circle cx="43" cy="206" r="2" fill="white"/>
</g>
<circle cx="43" cy="206" r="2" fill="white"/>
<g filter="url(#filter21_f_1_2)">
<circle cx="887" cy="303" r="2" fill="white"/>
</g>
<circle cx="887" cy="303" r="2" fill="white"/>
<g filter="url(#filter22_f_1_2)">
<circle cx="508" cy="207" r="2" fill="white"/>
</g>
<circle cx="508" cy="207" r="2" fill="white"/>
<g filter="url(#filter23_f_1_2)">
<circle cx="574" cy="309" r="2" fill="white"/>
</g>
<circle cx="574" cy="309" r="2" fill="white"/>
<g filter="url(#filter24_f_1_2)">
<circle cx="794" cy="730" r="2" fill="white"/>
</g>
<circle cx="794" cy="730" r="2" fill="white"/>
<g filter="url(#filter25_f_1_2)">
<circle cx="523" cy="522" r="2" fill="white"/>
</g>
<circle cx="523" cy="522" r="2" fill="white"/>
<g filter="url(#filter26_f_1_2)">
<circle cx="564" cy="682" r="2" fill="white"/>
</g>
<circle cx="564" cy="682" r="2" fill="white"/>
<g filter="url(#filter27_f_1_2)">
<circle cx="289" cy="736" r="2" fill="white"/>
</g>
<circle cx="289" cy="736" r="2" fill="white"/>
<g filter="url(#filter28_f_1_2)">
<circle cx="43" cy="766" r="2" fill="white"/>
</g>
<circle cx="43" cy="766" r="2" fill="white"/>
<g filter="url(#filter29_f_1_2)">
<circle cx="325" cy="314" r="2" fill="white"/>
</g>
<circle cx="325" cy="314" r="2" fill="white"/>
<g filter="url(#filter30_f_1_2)">
<circle cx="101" cy="521" r="2" fill="white"/>
</g>
<circle cx="101" cy="521" r="2" fill="white"/>
<g filter="url(#filter31_f_1_2)">
<circle cx="155" cy="647" r="2" fill="white"/>
</g>
<circle cx="155" cy="647" r="2" fill="white"/>
<path d="M956.477 418C964.902 347.792 1027.51 332.69 1081.48 287C1108.06 264.491 1126.48 256.185 1152.48 233C1198.38 192.065 1192.81 102.333 1254.48 113C1316.14 123.667 1379.4 101.789 1409.98 157C1444.89 220.043 1375.48 214.5 1331.48 324C1287.48 433.5 1391.84 416.314 1389.48 482C1387.98 523.814 1360.18 543.159 1359.98 585C1359.7 640.305 1432.52 666.997 1409.98 717.5C1382.48 779.094 1238.48 738 1238.48 738C1186.64 748 1022.77 788.04 1015.48 700C1011.2 648.396 1077.1 636.595 1081.48 585C1088.37 503.829 946.772 498.883 956.477 418Z" fill="#E5E5E5" fill-opacity="0.06"/>
<rect width="160.252" height="150.433" rx="15" transform="matrix(0.835813 0.549014 -0.549051 0.835789 1217.76 68.9114)" fill="#686767"/>
<rect width="160.252" height="3.27028" transform="matrix(0.835813 0.549014 -0.549051 0.835789 1195.31 103.076)" fill="#595959"/>
<rect width="160.252" height="3.27027" transform="matrix(0.835813 0.549015 -0.549051 0.835789 1186.33 116.742)" fill="#595959"/>
<ellipse cx="3.27046" cy="3.2703" rx="3.27046" ry="3.2703" transform="matrix(0.835813 0.549015 -0.549051 0.835789 1207.49 93.4697)" fill="#7D7D7D"/>
<ellipse cx="3.2704" cy="3.27026" rx="3.2704" ry="3.27026" transform="matrix(0.835811 0.549017 -0.549049 0.835791 1325.03 170.677)" fill="#7D7D7D"/>
<ellipse cx="3.27043" cy="3.27026" rx="3.27043" ry="3.27026" transform="matrix(0.835813 0.549015 -0.549051 0.835789 1186.84 124.902)" fill="#7D7D7D"/>
<ellipse cx="3.27046" cy="3.2703" rx="3.27046" ry="3.2703" transform="matrix(0.835813 0.549015 -0.549051 0.835789 1304.38 202.11)" fill="#7D7D7D"/>
<rect width="31.0692" height="83.392" rx="10" transform="matrix(0.999318 -0.0369264 0.0368827 0.99932 1263.44 188.835)" fill="#D6D6D6"/>
<ellipse cx="10.6289" cy="10.6284" rx="10.6289" ry="10.6284" transform="matrix(0.999318 -0.0369266 0.0368825 0.99932 1277.29 253.774)" fill="url(#paint0_radial_1_2)"/>
<rect width="31.0692" height="83.392" rx="10" transform="matrix(-0.294269 -0.955723 -0.95571 0.29431 1213.3 158.126)" fill="#D6D6D6"/>
<ellipse cx="10.6289" cy="10.6284" rx="10.6289" ry="10.6284" transform="matrix(-0.294269 -0.955723 -0.95571 0.294311 1148.38 166.662)" fill="url(#paint1_radial_1_2)"/>
<path d="M1234.82 257.181L1165.12 211.396L1125.72 271.369C1122.69 275.985 1123.97 282.185 1128.59 285.217L1138.52 291.743C1143.14 294.775 1149.34 293.492 1152.37 288.876L1171.01 260.506C1173.8 256.26 1179.5 255.079 1183.75 257.868C1187.99 260.657 1189.18 266.36 1186.39 270.605L1167.75 298.975C1164.72 303.591 1166 309.791 1170.62 312.823L1181.58 320.023C1186.19 323.055 1192.39 321.771 1195.43 317.155L1234.82 257.181Z" fill="#D6D6D6"/>
<rect width="106.289" height="103.014" transform="matrix(0.835813 0.549014 -0.549051 0.835789 1210.32 121.747)" fill="#E1E1E1"/>
<rect width="99.7485" height="29.4325" transform="matrix(0.835813 0.549014 -0.549051 0.835789 1165.47 195.974)" fill="#E1E1E1"/>
<rect width="8.17611" height="103.014" transform="matrix(0.835813 0.549015 -0.549051 0.835789 1223.98 130.725)" fill="url(#paint2_linear_1_2)"/>
<rect width="8.17612" height="103.014" transform="matrix(0.835813 0.549014 -0.549052 0.835788 1275.92 164.84)" fill="url(#paint3_linear_1_2)"/>
<rect width="106.289" height="3.27027" transform="matrix(0.835813 0.549014 -0.549051 0.835789 1155.55 205.112)" fill="#9A9A9A"/>
<rect width="11.4466" height="26.1622" rx="5.72329" transform="matrix(0.835814 0.549014 -0.549052 0.835788 1321.6 145.936)" fill="#D6D6D6"/>
<rect width="11.4465" height="26.1622" rx="5.72327" transform="matrix(0.835813 0.549015 -0.549051 0.835789 1223.19 81.2968)" fill="#D6D6D6"/>
<path d="M1318.31 159.425C1300.53 186.481 1264.19 194.006 1237.13 176.233C1210.07 158.459 1202.55 122.117 1220.32 95.0607C1238.1 68.0044 1274.44 60.4794 1301.5 78.2531C1328.56 96.0268 1336.08 132.369 1318.31 159.425Z" fill="#D6D6D6" stroke="#E1E1E1" stroke-width="0.5"/>
<path fill-rule="evenodd" clip-rule="evenodd" d="M1317.54 160.88C1299.11 185.848 1264.15 192.322 1237.89 175.075C1211.64 157.828 1203.69 123.171 1219.29 96.3388C1218.65 97.2111 1218.02 98.1059 1217.42 99.0231C1199.57 126.195 1207.13 162.692 1234.3 180.541C1261.48 198.391 1297.97 190.834 1315.82 163.662C1316.43 162.745 1317 161.817 1317.54 160.88Z" fill="#DDDDDD"/>
<path fill-rule="evenodd" clip-rule="evenodd" d="M1313.95 166.346C1295.52 191.315 1260.56 197.788 1234.3 180.541C1208.04 163.294 1200.1 128.638 1215.7 101.806C1215.05 102.678 1214.43 103.573 1213.83 104.49C1195.98 131.662 1203.54 168.158 1230.71 186.008C1257.88 203.857 1294.38 196.3 1312.23 169.129C1312.84 168.211 1313.41 167.284 1313.95 166.346Z" fill="#D6D6D6"/>
<path d="M1324.16 139.79C1315.39 117.401 1270.5 85.9591 1241.88 78.8972C1220.45 95.1422 1209.14 119.533 1218.97 145.039C1224.43 159.201 1232 166.081 1245.02 173.887C1254.65 179.662 1261.07 182.61 1272.29 182.999C1298.64 183.912 1320.86 155.232 1324.16 139.79Z" fill="black"/>
<rect x="1252.48" y="191.255" width="3.27044" height="1.63515" rx="0.817574" transform="rotate(13.3007 1252.48 191.255)" fill="#C4C4C4"/>
<rect width="1.63528" height="1.63508" rx="0.817539" transform="matrix(0.973176 0.230061 -0.230062 0.973176 1259.74 192.113)" fill="#C4C4C4"/>
<mask id="mask0_1_2" style="mask-type:alpha" maskUnits="userSpaceOnUse" x="1215" y="78" width="110" height="106">
<path d="M1324.16 139.792C1315.39 117.402 1270.5 85.9604 1241.88 78.8984C1220.45 95.1435 1209.14 119.534 1218.97 145.04C1224.43 159.202 1232 166.083 1245.02 173.888C1254.65 179.663 1261.07 182.611 1272.29 183C1298.64 183.914 1320.86 155.233 1324.16 139.792Z" fill="black"/>
</mask>
<g mask="url(#mask0_1_2)">
<rect width="16.3516" height="90.6049" transform="matrix(0.369765 0.929126 -0.929149 0.369707 1285.76 84.331)" fill="#484848"/>
<rect width="9.22658" height="95.5158" transform="matrix(0.369764 0.929126 -0.929149 0.369707 1302.67 106.532)" fill="#484848"/>
</g>
<ellipse cx="10.6289" cy="10.6284" rx="10.6289" ry="10.6284" transform="matrix(0.835813 0.549015 -0.549051 0.835789 1243.19 86.6036)" fill="#828282" fill-opacity="0.5"/>
<ellipse cx="5.72329" cy="5.72298" rx="5.72329" ry="5.72298" transform="matrix(0.835814 0.549013 -0.549053 0.835788 1256.85 95.5813)" fill="#828282" fill-opacity="0.5"/>
<ellipse cx="4.08804" cy="4.08785" rx="4.08804" ry="4.08785" transform="matrix(0.835812 0.549016 -0.54905 0.83579 1234.21 100.27)" fill="#828282" fill-opacity="0.5"/>
<ellipse cx="4.08805" cy="4.08785" rx="4.08805" ry="4.08785" transform="matrix(0.835813 0.549015 -0.549051 0.835789 1264.85 71.4907)" fill="#BC0D0D"/>
<ellipse cx="4.08808" cy="4.08786" rx="4.08808" ry="4.08786" transform="matrix(0.835814 0.549013 -0.549053 0.835788 1283.48 75.8994)" fill="#BC0D0D"/>
<rect width="44.151" height="22.8919" rx="5" transform="matrix(0.835813 0.549015 -0.549051 0.835789 1206.19 181.639)" fill="#273AE7"/>
<path d="M1227.63 199.634L1216.67 200.996L1222.7 203.733L1207.72 206.118" stroke="#D2CB15"/>
<path d="M383.5 268.5C329 191 204.113 21.5 79.1125 82.5C-45.8876 143.5 66 122.5 70 195C74 267.5 80.5001 284 61.5 328C24.2889 414.173 22.2247 520.5 56.6123 568C91 615.5 309.612 788 381.112 777.5C452.612 767 438.112 643 396.612 577.5C355.112 512 172.61 602.47 283.613 503C322.113 468.5 415.112 540 438.112 540C461.112 540 541.863 483.73 473.112 388C399.5 285.5 438 346 383.5 268.5Z" fill="#E5E5E5" fill-opacity="0.06"/>
<defs>
<filter id="filter0_f_1_2" x="1186" y="46" width="14" height="14" filterUnits="userSpaceOnUse" color-interpolation-filters="sRGB">
<feFlood flood-opacity="0" result="BackgroundImageFix"/>
<feBlend mode="normal" in="SourceGraphic" in2="BackgroundImageFix" result="shape"/>
<feGaussianBlur stdDeviation="2.5" result="effect1_foregroundBlur_1_2"/>
</filter>
<filter id="filter1_f_1_2" x="277" y="78" width="14" height="14" filterUnits="userSpaceOnUse" color-interpolation-filters="sRGB">
<feFlood flood-opacity="0" result="BackgroundImageFix"/>
<feBlend mode="normal" in="SourceGraphic" in2="BackgroundImageFix" result="shape"/>
<feGaussianBlur stdDeviation="2.5" result="effect1_foregroundBlur_1_2"/>
</filter>
<filter id="filter2_f_1_2" x="65" y="52" width="14" height="14" filterUnits="userSpaceOnUse" color-interpolation-filters="sRGB">
<feFlood flood-opacity="0" result="BackgroundImageFix"/>
<feBlend mode="normal" in="SourceGraphic" in2="BackgroundImageFix" result="shape"/>
<feGaussianBlur stdDeviation="2.5" result="effect1_foregroundBlur_1_2"/>
</filter>
<filter id="filter3_f_1_2" x="1009" y="21" width="14" height="14" filterUnits="userSpaceOnUse" color-interpolation-filters="sRGB">
<feFlood flood-opacity="0" result="BackgroundImageFix"/>
<feBlend mode="normal" in="SourceGraphic" in2="BackgroundImageFix" result="shape"/>
<feGaussianBlur stdDeviation="2.5" result="effect1_foregroundBlur_1_2"/>
</filter>
<filter id="filter4_f_1_2" x="876" y="58" width="14" height="14" filterUnits="userSpaceOnUse" color-interpolation-filters="sRGB">
<feFlood flood-opacity="0" result="BackgroundImageFix"/>
<feBlend mode="normal" in="SourceGraphic" in2="BackgroundImageFix" result="shape"/>
<feGaussianBlur stdDeviation="2.5" result="effect1_foregroundBlur_1_2"/>
</filter>
<filter id="filter5_f_1_2" x="1383" y="58" width="14" height="14" filterUnits="userSpaceOnUse" color-interpolation-filters="sRGB">
<feFlood flood-opacity="0" result="BackgroundImageFix"/>
<feBlend mode="normal" in="SourceGraphic" in2="BackgroundImageFix" result="shape"/>
<feGaussianBlur stdDeviation="2.5" result="effect1_foregroundBlur_1_2"/>
</filter>
<filter id="filter6_f_1_2" x="670" y="25" width="14" height="14" filterUnits="userSpaceOnUse" color-interpolation-filters="sRGB">
<feFlood flood-opacity="0" result="BackgroundImageFix"/>
<feBlend mode="normal" in="SourceGraphic" in2="BackgroundImageFix" result="shape"/>
<feGaussianBlur stdDeviation="2.5" result="effect1_foregroundBlur_1_2"/>
</filter>
<filter id="filter7_f_1_2" x="956" y="206" width="14" height="14" filterUnits="userSpaceOnUse" color-interpolation-filters="sRGB">
<feFlood flood-opacity="0" result="BackgroundImageFix"/>
<feBlend mode="normal" in="SourceGraphic" in2="BackgroundImageFix" result="shape"/>
<feGaussianBlur stdDeviation="2.5" result="effect1_foregroundBlur_1_2"/>
</filter>
<filter id="filter8_f_1_2" x="1113" y="401" width="14" height="14" filterUnits="userSpaceOnUse" color-interpolation-filters="sRGB">
<feFlood flood-opacity="0" result="BackgroundImageFix"/>
<feBlend mode="normal" in="SourceGraphic" in2="BackgroundImageFix" result="shape"/>
<feGaussianBlur stdDeviation="2.5" result="effect1_foregroundBlur_1_2"/>
</filter>
<filter id="filter9_f_1_2" x="1292" y="733" width="14" height="14" filterUnits="userSpaceOnUse" color-interpolation-filters="sRGB">
<feFlood flood-opacity="0" result="BackgroundImageFix"/>
<feBlend mode="normal" in="SourceGraphic" in2="BackgroundImageFix" result="shape"/>
<feGaussianBlur stdDeviation="2.5" result="effect1_foregroundBlur_1_2"/>
</filter>
<filter id="filter10_f_1_2" x="1011" y="761" width="14" height="14" filterUnits="userSpaceOnUse" color-interpolation-filters="sRGB">
<feFlood flood-opacity="0" result="BackgroundImageFix"/>
<feBlend mode="normal" in="SourceGraphic" in2="BackgroundImageFix" result="shape"/>
<feGaussianBlur stdDeviation="2.5" result="effect1_foregroundBlur_1_2"/>
</filter>
<filter id="filter11_f_1_2" x="1305" y="445" width="14" height="14" filterUnits="userSpaceOnUse" color-interpolation-filters="sRGB">
<feFlood flood-opacity="0" result="BackgroundImageFix"/>
<feBlend mode="normal" in="SourceGraphic" in2="BackgroundImageFix" result="shape"/>
<feGaussianBlur stdDeviation="2.5" result="effect1_foregroundBlur_1_2"/>
</filter>
<filter id="filter12_f_1_2" x="1387" y="657" width="14" height="14" filterUnits="userSpaceOnUse" color-interpolation-filters="sRGB">
<feFlood flood-opacity="0" result="BackgroundImageFix"/>
<feBlend mode="normal" in="SourceGraphic" in2="BackgroundImageFix" result="shape"/>
<feGaussianBlur stdDeviation="2.5" result="effect1_foregroundBlur_1_2"/>
</filter>
<filter id="filter13_f_1_2" x="1393" y="311" width="14" height="14" filterUnits="userSpaceOnUse" color-interpolation-filters="sRGB">
<feFlood flood-opacity="0" result="BackgroundImageFix"/>
<feBlend mode="normal" in="SourceGraphic" in2="BackgroundImageFix" result="shape"/>
<feGaussianBlur stdDeviation="2.5" result="effect1_foregroundBlur_1_2"/>
</filter>
<filter id="filter14_f_1_2" x="627" y="459" width="14" height="14" filterUnits="userSpaceOnUse" color-interpolation-filters="sRGB">
<feFlood flood-opacity="0" result="BackgroundImageFix"/>
<feBlend mode="normal" in="SourceGraphic" in2="BackgroundImageFix" result="shape"/>
<feGaussianBlur stdDeviation="2.5" result="effect1_foregroundBlur_1_2"/>
</filter>
<filter id="filter15_f_1_2" x="798" y="445" width="14" height="14" filterUnits="userSpaceOnUse" color-interpolation-filters="sRGB">
<feFlood flood-opacity="0" result="BackgroundImageFix"/>
<feBlend mode="normal" in="SourceGraphic" in2="BackgroundImageFix" result="shape"/>
<feGaussianBlur stdDeviation="2.5" result="effect1_foregroundBlur_1_2"/>
</filter>
<filter id="filter16_f_1_2" x="936" y="579" width="14" height="14" filterUnits="userSpaceOnUse" color-interpolation-filters="sRGB">
<feFlood flood-opacity="0" result="BackgroundImageFix"/>
<feBlend mode="normal" in="SourceGraphic" in2="BackgroundImageFix" result="shape"/>
<feGaussianBlur stdDeviation="2.5" result="effect1_foregroundBlur_1_2"/>
</filter>
<filter id="filter17_f_1_2" x="1393" y="500" width="14" height="14" filterUnits="userSpaceOnUse" color-interpolation-filters="sRGB">
<feFlood flood-opacity="0" result="BackgroundImageFix"/>
<feBlend mode="normal" in="SourceGraphic" in2="BackgroundImageFix" result="shape"/>
<feGaussianBlur stdDeviation="2.5" result="effect1_foregroundBlur_1_2"/>
</filter>
<filter id="filter18_f_1_2" x="1171" y="467" width="14" height="14" filterUnits="userSpaceOnUse" color-interpolation-filters="sRGB">
<feFlood flood-opacity="0" result="BackgroundImageFix"/>
<feBlend mode="normal" in="SourceGraphic" in2="BackgroundImageFix" result="shape"/>
<feGaussianBlur stdDeviation="2.5" result="effect1_foregroundBlur_1_2"/>
</filter>
<filter id="filter19_f_1_2" x="348" y="23" width="14" height="14" filterUnits="userSpaceOnUse" color-interpolation-filters="sRGB">
<feFlood flood-opacity="0" result="BackgroundImageFix"/>
<feBlend mode="normal" in="SourceGraphic" in2="BackgroundImageFix" result="shape"/>
<feGaussianBlur stdDeviation="2.5" result="effect1_foregroundBlur_1_2"/>
</filter>
<filter id="filter20_f_1_2" x="36" y="199" width="14" height="14" filterUnits="userSpaceOnUse" color-interpolation-filters="sRGB">
<feFlood flood-opacity="0" result="BackgroundImageFix"/>
<feBlend mode="normal" in="SourceGraphic" in2="BackgroundImageFix" result="shape"/>
<feGaussianBlur stdDeviation="2.5" result="effect1_foregroundBlur_1_2"/>
</filter>
<filter id="filter21_f_1_2" x="880" y="296" width="14" height="14" filterUnits="userSpaceOnUse" color-interpolation-filters="sRGB">
<feFlood flood-opacity="0" result="BackgroundImageFix"/>
<feBlend mode="normal" in="SourceGraphic" in2="BackgroundImageFix" result="shape"/>
<feGaussianBlur stdDeviation="2.5" result="effect1_foregroundBlur_1_2"/>
</filter>
<filter id="filter22_f_1_2" x="501" y="200" width="14" height="14" filterUnits="userSpaceOnUse" color-interpolation-filters="sRGB">
<feFlood flood-opacity="0" result="BackgroundImageFix"/>
<feBlend mode="normal" in="SourceGraphic" in2="BackgroundImageFix" result="shape"/>
<feGaussianBlur stdDeviation="2.5" result="effect1_foregroundBlur_1_2"/>
</filter>
<filter id="filter23_f_1_2" x="567" y="302" width="14" height="14" filterUnits="userSpaceOnUse" color-interpolation-filters="sRGB">
<feFlood flood-opacity="0" result="BackgroundImageFix"/>
<feBlend mode="normal" in="SourceGraphic" in2="BackgroundImageFix" result="shape"/>
<feGaussianBlur stdDeviation="2.5" result="effect1_foregroundBlur_1_2"/>
</filter>
<filter id="filter24_f_1_2" x="787" y="723" width="14" height="14" filterUnits="userSpaceOnUse" color-interpolation-filters="sRGB">
<feFlood flood-opacity="0" result="BackgroundImageFix"/>
<feBlend mode="normal" in="SourceGraphic" in2="BackgroundImageFix" result="shape"/>
<feGaussianBlur stdDeviation="2.5" result="effect1_foregroundBlur_1_2"/>
</filter>
<filter id="filter25_f_1_2" x="516" y="515" width="14" height="14" filterUnits="userSpaceOnUse" color-interpolation-filters="sRGB">
<feFlood flood-opacity="0" result="BackgroundImageFix"/>
<feBlend mode="normal" in="SourceGraphic" in2="BackgroundImageFix" result="shape"/>
<feGaussianBlur stdDeviation="2.5" result="effect1_foregroundBlur_1_2"/>
</filter>
<filter id="filter26_f_1_2" x="557" y="675" width="14" height="14" filterUnits="userSpaceOnUse" color-interpolation-filters="sRGB">
<feFlood flood-opacity="0" result="BackgroundImageFix"/>
<feBlend mode="normal" in="SourceGraphic" in2="BackgroundImageFix" result="shape"/>
<feGaussianBlur stdDeviation="2.5" result="effect1_foregroundBlur_1_2"/>
</filter>
<filter id="filter27_f_1_2" x="282" y="729" width="14" height="14" filterUnits="userSpaceOnUse" color-interpolation-filters="sRGB">
<feFlood flood-opacity="0" result="BackgroundImageFix"/>
<feBlend mode="normal" in="SourceGraphic" in2="BackgroundImageFix" result="shape"/>
<feGaussianBlur stdDeviation="2.5" result="effect1_foregroundBlur_1_2"/>
</filter>
<filter id="filter28_f_1_2" x="36" y="759" width="14" height="14" filterUnits="userSpaceOnUse" color-interpolation-filters="sRGB">
<feFlood flood-opacity="0" result="BackgroundImageFix"/>
<feBlend mode="normal" in="SourceGraphic" in2="BackgroundImageFix" result="shape"/>
<feGaussianBlur stdDeviation="2.5" result="effect1_foregroundBlur_1_2"/>
</filter>
<filter id="filter29_f_1_2" x="318" y="307" width="14" height="14" filterUnits="userSpaceOnUse" color-interpolation-filters="sRGB">
<feFlood flood-opacity="0" result="BackgroundImageFix"/>
<feBlend mode="normal" in="SourceGraphic" in2="BackgroundImageFix" result="shape"/>
<feGaussianBlur stdDeviation="2.5" result="effect1_foregroundBlur_1_2"/>
</filter>
<filter id="filter30_f_1_2" x="94" y="514" width="14" height="14" filterUnits="userSpaceOnUse" color-interpolation-filters="sRGB">
<feFlood flood-opacity="0" result="BackgroundImageFix"/>
<feBlend mode="normal" in="SourceGraphic" in2="BackgroundImageFix" result="shape"/>
<feGaussianBlur stdDeviation="2.5" result="effect1_foregroundBlur_1_2"/>
</filter>
<filter id="filter31_f_1_2" x="148" y="640" width="14" height="14" filterUnits="userSpaceOnUse" color-interpolation-filters="sRGB">
<feFlood flood-opacity="0" result="BackgroundImageFix"/>
<feBlend mode="normal" in="SourceGraphic" in2="BackgroundImageFix" result="shape"/>
<feGaussianBlur stdDeviation="2.5" result="effect1_foregroundBlur_1_2"/>
</filter>
<radialGradient id="paint0_radial_1_2" cx="0" cy="0" r="1" gradientUnits="userSpaceOnUse" gradientTransform="translate(13.0818 13.0811) rotate(-156.802) scale(6.22669 6.22647)">
<stop stop-color="white"/>
<stop offset="1" stop-color="#DDDDDD"/>
</radialGradient>
<radialGradient id="paint1_radial_1_2" cx="0" cy="0" r="1" gradientUnits="userSpaceOnUse" gradientTransform="translate(13.0818 13.0811) rotate(-156.802) scale(6.22669 6.22647)">
<stop stop-color="white"/>
<stop offset="1" stop-color="#DDDDDD"/>
</radialGradient>
<linearGradient id="paint2_linear_1_2" x1="4.08805" y1="0" x2="4.08805" y2="103.014" gradientUnits="userSpaceOnUse">
<stop stop-color="#3BB094"/>
<stop offset="1" stop-color="#232030"/>
</linearGradient>
<linearGradient id="paint3_linear_1_2" x1="4.08806" y1="0" x2="4.08806" y2="103.014" gradientUnits="userSpaceOnUse">
<stop stop-color="#3BB094"/>
<stop offset="1" stop-color="#232030"/>
</linearGradient>
</defs>
</svg>
